solid OpenSCAD_Model
  facet normal 0 0 -1
    outer loop
      vertex 10 17.3205 -50
      vertex 20 0 -50
      vertex 10 -17.3205 -50
    endloop
  endfacet
  facet normal 0 -0 -1
    outer loop
      vertex -10 17.3205 -50
      vertex -10 -17.3205 -50
      vertex -20 0 -50
    endloop
  endfacet
  facet normal -0 -0 -1
    outer loop
      vertex 10 17.3205 -50
      vertex 10 -17.3205 -50
      vertex -10 17.3205 -50
    endloop
  endfacet
  facet normal 0 0 -1
    outer loop
      vertex -10 17.3205 -50
      vertex 10 -17.3205 -50
      vertex -10 -17.3205 -50
    endloop
  endfacet
  facet normal 0 0 1
    outer loop
      vertex 10 -17.3205 50
      vertex 20 0 50
      vertex 10 17.3205 50
    endloop
  endfacet
  facet normal -0 0 1
    outer loop
      vertex -20 0 50
      vertex -10 -17.3205 50
      vertex -10 17.3205 50
    endloop
  endfacet
  facet normal -0 0 1
    outer loop
      vertex -10 17.3205 50
      vertex 10 -17.3205 50
      vertex 10 17.3205 50
    endloop
  endfacet
  facet normal 0 0 1
    outer loop
      vertex -10 -17.3205 50
      vertex 10 -17.3205 50
      vertex -10 17.3205 50
    endloop
  endfacet
  facet normal 0.866025 0.5 0
    outer loop
      vertex 10 17.3205 -50
      vertex 20 0 50
      vertex 20 0 -50
    endloop
  endfacet
  facet normal 0.866025 0.5 -0
    outer loop
      vertex 10 17.3205 -50
      vertex 10 17.3205 50
      vertex 20 0 50
    endloop
  endfacet
  facet normal 0 1 0
    outer loop
      vertex -10 17.3205 -50
      vertex 10 17.3205 50
      vertex 10 17.3205 -50
    endloop
  endfacet
  facet normal 0 1 0
    outer loop
      vertex -10 17.3205 -50
      vertex -10 17.3205 50
      vertex 10 17.3205 50
    endloop
  endfacet
  facet normal -0.866025 0.5 0
    outer loop
      vertex -20 0 -50
      vertex -10 17.3205 50
      vertex -10 17.3205 -50
    endloop
  endfacet
  facet normal -0.866025 0.5 0
    outer loop
      vertex -20 0 -50
      vertex -20 0 50
      vertex -10 17.3205 50
    endloop
  endfacet
  facet normal -0.866025 -0.5 0
    outer loop
      vertex -10 -17.3205 -50
      vertex -20 0 50
      vertex -20 0 -50
    endloop
  endfacet
  facet normal -0.866025 -0.5 0
    outer loop
      vertex -10 -17.3205 -50
      vertex -10 -17.3205 50
      vertex -20 0 50
    endloop
  endfacet
  facet normal 0 -1 0
    outer loop
      vertex 10 -17.3205 -50
      vertex -10 -17.3205 50
      vertex -10 -17.3205 -50
    endloop
  endfacet
  facet normal 0 -1 0
    outer loop
      vertex 10 -17.3205 -50
      vertex 10 -17.3205 50
      vertex -10 -17.3205 50
    endloop
  endfacet
  facet normal 0.866025 -0.5 0
    outer loop
      vertex 20 0 -50
      vertex 10 -17.3205 50
      vertex 10 -17.3205 -50
    endloop
  endfacet
  facet normal 0.866025 -0.5 0
    outer loop
      vertex 20 0 -50
      vertex 20 0 50
      vertex 10 -17.3205 50
    endloop
  endfacet
endsolid OpenSCAD_Model
