solid OpenSCAD_Model
  facet normal -0 0 -1
    outer loop
      vertex 20 0 -50
      vertex 14.1421 -14.1421 -50
      vertex 14.1421 14.1421 -50
    endloop
  endfacet
  facet normal 0 0 -1
    outer loop
      vertex 14.1421 -14.1421 -50
      vertex -14.1421 14.1421 -50
      vertex 14.1421 14.1421 -50
    endloop
  endfacet
  facet normal 0 0 -1
    outer loop
      vertex -14.1421 14.1421 -50
      vertex 0 20 -50
      vertex 14.1421 14.1421 -50
    endloop
  endfacet
  facet normal 0 0 -1
    outer loop
      vertex 14.1421 -14.1421 -50
      vertex -14.1421 -14.1421 -50
      vertex -14.1421 14.1421 -50
    endloop
  endfacet
  facet normal 0 -0 -1
    outer loop
      vertex -14.1421 14.1421 -50
      vertex -14.1421 -14.1421 -50
      vertex -20 0 -50
    endloop
  endfacet
  facet normal -0 0 -1
    outer loop
      vertex 14.1421 -14.1421 -50
      vertex 0 -20 -50
      vertex -14.1421 -14.1421 -50
    endloop
  endfacet
  facet normal 0 0 1
    outer loop
      vertex 14.1421 14.1421 50
      vertex 14.1421 -14.1421 50
      vertex 20 0 50
    endloop
  endfacet
  facet normal 0 0 1
    outer loop
      vertex 14.1421 14.1421 50
      vertex -14.1421 14.1421 50
      vertex 14.1421 -14.1421 50
    endloop
  endfacet
  facet normal 0 0 1
    outer loop
      vertex 14.1421 14.1421 50
      vertex 0 20 50
      vertex -14.1421 14.1421 50
    endloop
  endfacet
  facet normal 0 0 1
    outer loop
      vertex -14.1421 14.1421 50
      vertex -14.1421 -14.1421 50
      vertex 14.1421 -14.1421 50
    endloop
  endfacet
  facet normal -0 0 1
    outer loop
      vertex -20 0 50
      vertex -14.1421 -14.1421 50
      vertex -14.1421 14.1421 50
    endloop
  endfacet
  facet normal -0 0 1
    outer loop
      vertex -14.1421 -14.1421 50
      vertex 0 -20 50
      vertex 14.1421 -14.1421 50
    endloop
  endfacet
  facet normal 0.923878 -0.382686 0
    outer loop
      vertex 20 0 -50
      vertex 14.1421 -14.1421 50
      vertex 14.1421 -14.1421 -50
    endloop
  endfacet
  facet normal 0.923878 -0.382686 0
    outer loop
      vertex 20 0 -50
      vertex 20 0 50
      vertex 14.1421 -14.1421 50
    endloop
  endfacet
  facet normal 0.923878 0.382686 0
    outer loop
      vertex 14.1421 14.1421 -50
      vertex 20 0 50
      vertex 20 0 -50
    endloop
  endfacet
  facet normal 0.923878 0.382686 -0
    outer loop
      vertex 14.1421 14.1421 -50
      vertex 14.1421 14.1421 50
      vertex 20 0 50
    endloop
  endfacet
  facet normal 0.382686 0.923878 0
    outer loop
      vertex 0 20 -50
      vertex 14.1421 14.1421 50
      vertex 14.1421 14.1421 -50
    endloop
  endfacet
  facet normal 0.382686 0.923878 -0
    outer loop
      vertex 0 20 -50
      vertex 0 20 50
      vertex 14.1421 14.1421 50
    endloop
  endfacet
  facet normal -0.382686 0.923878 0
    outer loop
      vertex -14.1421 14.1421 -50
      vertex 0 20 50
      vertex 0 20 -50
    endloop
  endfacet
  facet normal -0.382686 0.923878 0
    outer loop
      vertex -14.1421 14.1421 -50
      vertex -14.1421 14.1421 50
      vertex 0 20 50
    endloop
  endfacet
  facet normal -0.923878 0.382686 0
    outer loop
      vertex -20 0 -50
      vertex -14.1421 14.1421 50
      vertex -14.1421 14.1421 -50
    endloop
  endfacet
  facet normal -0.923878 0.382686 0
    outer loop
      vertex -20 0 -50
      vertex -20 0 50
      vertex -14.1421 14.1421 50
    endloop
  endfacet
  facet normal -0.923878 -0.382686 0
    outer loop
      vertex -14.1421 -14.1421 -50
      vertex -20 0 50
      vertex -20 0 -50
    endloop
  endfacet
  facet normal -0.923878 -0.382686 0
    outer loop
      vertex -14.1421 -14.1421 -50
      vertex -14.1421 -14.1421 50
      vertex -20 0 50
    endloop
  endfacet
  facet normal -0.382686 -0.923878 0
    outer loop
      vertex 0 -20 -50
      vertex -14.1421 -14.1421 50
      vertex -14.1421 -14.1421 -50
    endloop
  endfacet
  facet normal -0.382686 -0.923878 0
    outer loop
      vertex 0 -20 -50
      vertex 0 -20 50
      vertex -14.1421 -14.1421 50
    endloop
  endfacet
  facet normal 0.382686 -0.923878 0
    outer loop
      vertex 14.1421 -14.1421 -50
      vertex 0 -20 50
      vertex 0 -20 -50
    endloop
  endfacet
  facet normal 0.382686 -0.923878 0
    outer loop
      vertex 14.1421 -14.1421 -50
      vertex 14.1421 -14.1421 50
      vertex 0 -20 50
    endloop
  endfacet
endsolid OpenSCAD_Model
