solid OpenSCAD_Model
  facet normal 1 -0 0
    outer loop
      vertex 5 -5 21
      vertex 5 5 6
      vertex 5 5 21
    endloop
  endfacet
  facet normal 1 0 0
    outer loop
      vertex 5 5 6
      vertex 5 -5 21
      vertex 5 -5 6
    endloop
  endfacet
  facet normal -0 0 1
    outer loop
      vertex -5 5 21
      vertex 5 -5 21
      vertex 5 5 21
    endloop
  endfacet
  facet normal 0 0 1
    outer loop
      vertex 5 -5 21
      vertex -5 5 21
      vertex -5 -5 21
    endloop
  endfacet
  facet normal -0 0 1
    outer loop
      vertex 5 5 6
      vertex 11.4127 3.70819 6
      vertex 7.05342 9.70819 6
    endloop
  endfacet
  facet normal 0 0 1
    outer loop
      vertex 11.4127 3.70819 6
      vertex 5 5 6
      vertex 11.4127 -3.70819 6
    endloop
  endfacet
  facet normal 0 0 1
    outer loop
      vertex 5 -5 6
      vertex 11.4127 -3.70819 6
      vertex 5 5 6
    endloop
  endfacet
  facet normal 0 0 1
    outer loop
      vertex 0 12 6
      vertex 5 5 6
      vertex 7.05342 9.70819 6
    endloop
  endfacet
  facet normal 0 0 1
    outer loop
      vertex 0 12 6
      vertex -5 5 6
      vertex 5 5 6
    endloop
  endfacet
  facet normal 0 0 1
    outer loop
      vertex -11.4127 3.70819 6
      vertex -5 5 6
      vertex -7.05342 9.70819 6
    endloop
  endfacet
  facet normal -0 0 1
    outer loop
      vertex -7.05342 9.70819 6
      vertex -5 5 6
      vertex 0 12 6
    endloop
  endfacet
  facet normal 0 0 1
    outer loop
      vertex 11.4127 -3.70819 6
      vertex 5 -5 6
      vertex 7.05342 -9.70819 6
    endloop
  endfacet
  facet normal 0 0 1
    outer loop
      vertex 5 -5 6
      vertex 0 -12 6
      vertex 7.05342 -9.70819 6
    endloop
  endfacet
  facet normal -0 0 1
    outer loop
      vertex -5 -5 6
      vertex 0 -12 6
      vertex 5 -5 6
    endloop
  endfacet
  facet normal 0 0 1
    outer loop
      vertex -5 -5 6
      vertex -7.05342 -9.70819 6
      vertex 0 -12 6
    endloop
  endfacet
  facet normal 0 0 1
    outer loop
      vertex -5 5 6
      vertex -11.4127 3.70819 6
      vertex -5 -5 6
    endloop
  endfacet
  facet normal -0 0 1
    outer loop
      vertex -11.4127 -3.70819 6
      vertex -5 -5 6
      vertex -11.4127 3.70819 6
    endloop
  endfacet
  facet normal 0 0 1
    outer loop
      vertex -5 -5 6
      vertex -11.4127 -3.70819 6
      vertex -7.05342 -9.70819 6
    endloop
  endfacet
  facet normal -1 0 0
    outer loop
      vertex -5 -5 6
      vertex -5 5 21
      vertex -5 5 6
    endloop
  endfacet
  facet normal -1 -0 0
    outer loop
      vertex -5 5 21
      vertex -5 -5 6
      vertex -5 -5 21
    endloop
  endfacet
  facet normal 0 1 -0
    outer loop
      vertex 5 5 6
      vertex -5 5 21
      vertex 5 5 21
    endloop
  endfacet
  facet normal 0 1 0
    outer loop
      vertex -5 5 21
      vertex 5 5 6
      vertex -5 5 6
    endloop
  endfacet
  facet normal 0 -1 0
    outer loop
      vertex -5 -5 6
      vertex 5 -5 21
      vertex -5 -5 21
    endloop
  endfacet
  facet normal 0 -1 -0
    outer loop
      vertex 5 -5 21
      vertex -5 -5 6
      vertex 5 -5 6
    endloop
  endfacet
  facet normal -0.809015 0.587787 0
    outer loop
      vertex -11.4127 3.70819 -6
      vertex -7.05342 9.70819 6
      vertex -7.05342 9.70819 -6
    endloop
  endfacet
  facet normal -0.809015 0.587787 0
    outer loop
      vertex -7.05342 9.70819 6
      vertex -11.4127 3.70819 -6
      vertex -11.4127 3.70819 6
    endloop
  endfacet
  facet normal 1 -0 0
    outer loop
      vertex 11.4127 -3.70819 6
      vertex 11.4127 3.70819 -6
      vertex 11.4127 3.70819 6
    endloop
  endfacet
  facet normal 1 0 0
    outer loop
      vertex 11.4127 3.70819 -6
      vertex 11.4127 -3.70819 6
      vertex 11.4127 -3.70819 -6
    endloop
  endfacet
  facet normal -0.809015 -0.587787 0
    outer loop
      vertex -7.05342 -9.70819 -6
      vertex -11.4127 -3.70819 6
      vertex -11.4127 -3.70819 -6
    endloop
  endfacet
  facet normal -0.809015 -0.587787 0
    outer loop
      vertex -11.4127 -3.70819 6
      vertex -7.05342 -9.70819 -6
      vertex -7.05342 -9.70819 6
    endloop
  endfacet
  facet normal 0.809015 -0.587787 0
    outer loop
      vertex 7.05342 -9.70819 6
      vertex 11.4127 -3.70819 -6
      vertex 11.4127 -3.70819 6
    endloop
  endfacet
  facet normal 0.809015 -0.587787 0
    outer loop
      vertex 11.4127 -3.70819 -6
      vertex 7.05342 -9.70819 6
      vertex 7.05342 -9.70819 -6
    endloop
  endfacet
  facet normal 0 0 -1
    outer loop
      vertex 7.05342 -9.70819 -6
      vertex 11.4127 3.70819 -6
      vertex 11.4127 -3.70819 -6
    endloop
  endfacet
  facet normal 0 0 -1
    outer loop
      vertex 7.05342 -9.70819 -6
      vertex 7.05342 9.70819 -6
      vertex 11.4127 3.70819 -6
    endloop
  endfacet
  facet normal 0 0 -1
    outer loop
      vertex 0 -12 -6
      vertex 7.05342 9.70819 -6
      vertex 7.05342 -9.70819 -6
    endloop
  endfacet
  facet normal 0 0 -1
    outer loop
      vertex 0 -12 -6
      vertex 0 12 -6
      vertex 7.05342 9.70819 -6
    endloop
  endfacet
  facet normal 0 0 -1
    outer loop
      vertex -7.05342 -9.70819 -6
      vertex 0 12 -6
      vertex 0 -12 -6
    endloop
  endfacet
  facet normal 0 0 -1
    outer loop
      vertex -7.05342 -9.70819 -6
      vertex -7.05342 9.70819 -6
      vertex 0 12 -6
    endloop
  endfacet
  facet normal 0 0 -1
    outer loop
      vertex -11.4127 -3.70819 -6
      vertex -7.05342 9.70819 -6
      vertex -7.05342 -9.70819 -6
    endloop
  endfacet
  facet normal 0 0 -1
    outer loop
      vertex -7.05342 9.70819 -6
      vertex -11.4127 -3.70819 -6
      vertex -11.4127 3.70819 -6
    endloop
  endfacet
  facet normal -0.309019 0.951056 0
    outer loop
      vertex 0 12 -6
      vertex -7.05342 9.70819 6
      vertex 0 12 6
    endloop
  endfacet
  facet normal -0.309019 0.951056 0
    outer loop
      vertex -7.05342 9.70819 6
      vertex 0 12 -6
      vertex -7.05342 9.70819 -6
    endloop
  endfacet
  facet normal 0.809015 0.587787 0
    outer loop
      vertex 11.4127 3.70819 6
      vertex 7.05342 9.70819 -6
      vertex 7.05342 9.70819 6
    endloop
  endfacet
  facet normal 0.809015 0.587787 0
    outer loop
      vertex 7.05342 9.70819 -6
      vertex 11.4127 3.70819 6
      vertex 11.4127 3.70819 -6
    endloop
  endfacet
  facet normal -1 0 0
    outer loop
      vertex -11.4127 -3.70819 -6
      vertex -11.4127 3.70819 6
      vertex -11.4127 3.70819 -6
    endloop
  endfacet
  facet normal -1 -0 0
    outer loop
      vertex -11.4127 3.70819 6
      vertex -11.4127 -3.70819 -6
      vertex -11.4127 -3.70819 6
    endloop
  endfacet
  facet normal 0.309019 -0.951056 0
    outer loop
      vertex 0 -12 -6
      vertex 7.05342 -9.70819 6
      vertex 0 -12 6
    endloop
  endfacet
  facet normal 0.309019 -0.951056 0
    outer loop
      vertex 7.05342 -9.70819 6
      vertex 0 -12 -6
      vertex 7.05342 -9.70819 -6
    endloop
  endfacet
  facet normal 0.309019 0.951056 -0
    outer loop
      vertex 7.05342 9.70819 -6
      vertex 0 12 6
      vertex 7.05342 9.70819 6
    endloop
  endfacet
  facet normal 0.309019 0.951056 0
    outer loop
      vertex 0 12 6
      vertex 7.05342 9.70819 -6
      vertex 0 12 -6
    endloop
  endfacet
  facet normal -0.309019 -0.951056 0
    outer loop
      vertex -7.05342 -9.70819 -6
      vertex 0 -12 6
      vertex -7.05342 -9.70819 6
    endloop
  endfacet
  facet normal -0.309019 -0.951056 -0
    outer loop
      vertex 0 -12 6
      vertex -7.05342 -9.70819 -6
      vertex 0 -12 -6
    endloop
  endfacet
endsolid OpenSCAD_Model
