solid OpenSCAD_Model
  facet normal 1 -0 0
    outer loop
      vertex 5 -5 21
      vertex 5 5 6
      vertex 5 5 21
    endloop
  endfacet
  facet normal 1 0 0
    outer loop
      vertex 5 5 6
      vertex 5 -5 21
      vertex 5 -5 6
    endloop
  endfacet
  facet normal -0 0 1
    outer loop
      vertex -5 5 21
      vertex 5 -5 21
      vertex 5 5 21
    endloop
  endfacet
  facet normal 0 0 1
    outer loop
      vertex 5 -5 21
      vertex -5 5 21
      vertex -5 -5 21
    endloop
  endfacet
  facet normal -0 0 1
    outer loop
      vertex 5 5 6
      vertex 11.5139 3.38078 6
      vertex 7.85832 9.06898 6
    endloop
  endfacet
  facet normal 0 0 1
    outer loop
      vertex 11.5139 3.38078 6
      vertex 5 5 6
      vertex 11.5139 -3.38078 6
    endloop
  endfacet
  facet normal 0 0 1
    outer loop
      vertex 5 -5 6
      vertex 11.5139 -3.38078 6
      vertex 5 5 6
    endloop
  endfacet
  facet normal 0 0 1
    outer loop
      vertex 1.70776 11.8779 6
      vertex 5 5 6
      vertex 7.85832 9.06898 6
    endloop
  endfacet
  facet normal 0 0 1
    outer loop
      vertex -5 5 6
      vertex 1.70776 11.8779 6
      vertex -4.98497 10.9156 6
    endloop
  endfacet
  facet normal 0 0 1
    outer loop
      vertex 1.70776 11.8779 6
      vertex -5 5 6
      vertex 5 5 6
    endloop
  endfacet
  facet normal 0 0 1
    outer loop
      vertex -12 0 6
      vertex -5 5 6
      vertex -10.095 6.48769 6
    endloop
  endfacet
  facet normal -0 0 1
    outer loop
      vertex -10.095 6.48769 6
      vertex -5 5 6
      vertex -4.98497 10.9156 6
    endloop
  endfacet
  facet normal 0 0 1
    outer loop
      vertex 11.5139 -3.38078 6
      vertex 5 -5 6
      vertex 7.85832 -9.06898 6
    endloop
  endfacet
  facet normal 0 0 1
    outer loop
      vertex 5 -5 6
      vertex 1.70776 -11.8779 6
      vertex 7.85832 -9.06898 6
    endloop
  endfacet
  facet normal -0 0 1
    outer loop
      vertex -5 -5 6
      vertex 1.70776 -11.8779 6
      vertex 5 -5 6
    endloop
  endfacet
  facet normal 0 0 1
    outer loop
      vertex 1.70776 -11.8779 6
      vertex -5 -5 6
      vertex -4.98497 -10.9156 6
    endloop
  endfacet
  facet normal 0 0 1
    outer loop
      vertex -5 5 6
      vertex -12 0 6
      vertex -5 -5 6
    endloop
  endfacet
  facet normal 0 0 1
    outer loop
      vertex -5 -5 6
      vertex -10.095 -6.48769 6
      vertex -4.98497 -10.9156 6
    endloop
  endfacet
  facet normal 0 0 1
    outer loop
      vertex -5 -5 6
      vertex -12 0 6
      vertex -10.095 -6.48769 6
    endloop
  endfacet
  facet normal -1 0 0
    outer loop
      vertex -5 -5 6
      vertex -5 5 21
      vertex -5 5 6
    endloop
  endfacet
  facet normal -1 -0 0
    outer loop
      vertex -5 5 21
      vertex -5 -5 6
      vertex -5 -5 21
    endloop
  endfacet
  facet normal 0 1 -0
    outer loop
      vertex 5 5 6
      vertex -5 5 21
      vertex 5 5 21
    endloop
  endfacet
  facet normal 0 1 0
    outer loop
      vertex -5 5 21
      vertex 5 5 6
      vertex -5 5 6
    endloop
  endfacet
  facet normal 0 -1 0
    outer loop
      vertex -5 -5 6
      vertex 5 -5 21
      vertex -5 -5 21
    endloop
  endfacet
  facet normal 0 -1 -0
    outer loop
      vertex 5 -5 21
      vertex -5 -5 6
      vertex 5 -5 6
    endloop
  endfacet
  facet normal -0.959491 0.281738 0
    outer loop
      vertex -12 0 -6
      vertex -10.095 6.48769 6
      vertex -10.095 6.48769 -6
    endloop
  endfacet
  facet normal -0.959491 0.281738 0
    outer loop
      vertex -10.095 6.48769 6
      vertex -12 0 -6
      vertex -12 0 6
    endloop
  endfacet
  facet normal -0.654864 -0.755746 0
    outer loop
      vertex -10.095 -6.48769 -6
      vertex -4.98497 -10.9156 6
      vertex -10.095 -6.48769 6
    endloop
  endfacet
  facet normal -0.654864 -0.755746 -0
    outer loop
      vertex -4.98497 -10.9156 6
      vertex -10.095 -6.48769 -6
      vertex -4.98497 -10.9156 -6
    endloop
  endfacet
  facet normal 0 0 -1
    outer loop
      vertex 7.85832 -9.06898 -6
      vertex 11.5139 3.38078 -6
      vertex 11.5139 -3.38078 -6
    endloop
  endfacet
  facet normal 0 0 -1
    outer loop
      vertex 7.85832 -9.06898 -6
      vertex 7.85832 9.06898 -6
      vertex 11.5139 3.38078 -6
    endloop
  endfacet
  facet normal 0 0 -1
    outer loop
      vertex 1.70776 -11.8779 -6
      vertex 7.85832 9.06898 -6
      vertex 7.85832 -9.06898 -6
    endloop
  endfacet
  facet normal 0 0 -1
    outer loop
      vertex 1.70776 -11.8779 -6
      vertex 1.70776 11.8779 -6
      vertex 7.85832 9.06898 -6
    endloop
  endfacet
  facet normal 0 0 -1
    outer loop
      vertex -4.98497 -10.9156 -6
      vertex 1.70776 11.8779 -6
      vertex 1.70776 -11.8779 -6
    endloop
  endfacet
  facet normal 0 0 -1
    outer loop
      vertex -4.98497 -10.9156 -6
      vertex -4.98497 10.9156 -6
      vertex 1.70776 11.8779 -6
    endloop
  endfacet
  facet normal 0 0 -1
    outer loop
      vertex -10.095 -6.48769 -6
      vertex -4.98497 10.9156 -6
      vertex -4.98497 -10.9156 -6
    endloop
  endfacet
  facet normal 0 0 -1
    outer loop
      vertex -10.095 -6.48769 -6
      vertex -10.095 6.48769 -6
      vertex -4.98497 10.9156 -6
    endloop
  endfacet
  facet normal 0 -0 -1
    outer loop
      vertex -10.095 6.48769 -6
      vertex -10.095 -6.48769 -6
      vertex -12 0 -6
    endloop
  endfacet
  facet normal -0.959491 -0.281738 0
    outer loop
      vertex -10.095 -6.48769 -6
      vertex -12 0 6
      vertex -12 0 -6
    endloop
  endfacet
  facet normal -0.959491 -0.281738 0
    outer loop
      vertex -12 0 6
      vertex -10.095 -6.48769 -6
      vertex -10.095 -6.48769 6
    endloop
  endfacet
  facet normal -0.142319 -0.989821 0
    outer loop
      vertex -4.98497 -10.9156 -6
      vertex 1.70776 -11.8779 6
      vertex -4.98497 -10.9156 6
    endloop
  endfacet
  facet normal -0.142319 -0.989821 -0
    outer loop
      vertex 1.70776 -11.8779 6
      vertex -4.98497 -10.9156 -6
      vertex 1.70776 -11.8779 -6
    endloop
  endfacet
  facet normal 0.841254 -0.54064 0
    outer loop
      vertex 7.85832 -9.06898 6
      vertex 11.5139 -3.38078 -6
      vertex 11.5139 -3.38078 6
    endloop
  endfacet
  facet normal 0.841254 -0.54064 0
    outer loop
      vertex 11.5139 -3.38078 -6
      vertex 7.85832 -9.06898 6
      vertex 7.85832 -9.06898 -6
    endloop
  endfacet
  facet normal -0.654864 0.755746 0
    outer loop
      vertex -4.98497 10.9156 -6
      vertex -10.095 6.48769 6
      vertex -4.98497 10.9156 6
    endloop
  endfacet
  facet normal -0.654864 0.755746 0
    outer loop
      vertex -10.095 6.48769 6
      vertex -4.98497 10.9156 -6
      vertex -10.095 6.48769 -6
    endloop
  endfacet
  facet normal 0.415422 -0.909629 0
    outer loop
      vertex 1.70776 -11.8779 -6
      vertex 7.85832 -9.06898 6
      vertex 1.70776 -11.8779 6
    endloop
  endfacet
  facet normal 0.415422 -0.909629 0
    outer loop
      vertex 7.85832 -9.06898 6
      vertex 1.70776 -11.8779 -6
      vertex 7.85832 -9.06898 -6
    endloop
  endfacet
  facet normal 0.415422 0.909629 -0
    outer loop
      vertex 7.85832 9.06898 -6
      vertex 1.70776 11.8779 6
      vertex 7.85832 9.06898 6
    endloop
  endfacet
  facet normal 0.415422 0.909629 0
    outer loop
      vertex 1.70776 11.8779 6
      vertex 7.85832 9.06898 -6
      vertex 1.70776 11.8779 -6
    endloop
  endfacet
  facet normal 1 -0 0
    outer loop
      vertex 11.5139 -3.38078 6
      vertex 11.5139 3.38078 -6
      vertex 11.5139 3.38078 6
    endloop
  endfacet
  facet normal 1 0 0
    outer loop
      vertex 11.5139 3.38078 -6
      vertex 11.5139 -3.38078 6
      vertex 11.5139 -3.38078 -6
    endloop
  endfacet
  facet normal 0.841254 0.54064 0
    outer loop
      vertex 11.5139 3.38078 6
      vertex 7.85832 9.06898 -6
      vertex 7.85832 9.06898 6
    endloop
  endfacet
  facet normal 0.841254 0.54064 0
    outer loop
      vertex 7.85832 9.06898 -6
      vertex 11.5139 3.38078 6
      vertex 11.5139 3.38078 -6
    endloop
  endfacet
  facet normal -0.142319 0.989821 0
    outer loop
      vertex 1.70776 11.8779 -6
      vertex -4.98497 10.9156 6
      vertex 1.70776 11.8779 6
    endloop
  endfacet
  facet normal -0.142319 0.989821 0
    outer loop
      vertex -4.98497 10.9156 6
      vertex 1.70776 11.8779 -6
      vertex -4.98497 10.9156 -6
    endloop
  endfacet
endsolid OpenSCAD_Model
