solid OpenSCAD_Model
  facet normal 1 -0 0
    outer loop
      vertex 5 -5 21
      vertex 5 5 6
      vertex 5 5 21
    endloop
  endfacet
  facet normal 1 0 0
    outer loop
      vertex 5 5 6
      vertex 5 -5 21
      vertex 5 -5 6
    endloop
  endfacet
  facet normal -0 0 1
    outer loop
      vertex -5 5 21
      vertex 5 -5 21
      vertex 5 5 21
    endloop
  endfacet
  facet normal 0 0 1
    outer loop
      vertex 5 -5 21
      vertex -5 5 21
      vertex -5 -5 21
    endloop
  endfacet
  facet normal -0 0 1
    outer loop
      vertex 5 5 6
      vertex 11.5911 3.10582 6
      vertex 8.48528 8.48528 6
    endloop
  endfacet
  facet normal 0 0 1
    outer loop
      vertex 11.5911 3.10582 6
      vertex 5 5 6
      vertex 11.5911 -3.10582 6
    endloop
  endfacet
  facet normal 0 0 1
    outer loop
      vertex 5 -5 6
      vertex 11.5911 -3.10582 6
      vertex 5 5 6
    endloop
  endfacet
  facet normal 0 0 1
    outer loop
      vertex 3.10582 11.5911 6
      vertex 5 5 6
      vertex 8.48528 8.48528 6
    endloop
  endfacet
  facet normal -0 0 1
    outer loop
      vertex -3.10582 11.5911 6
      vertex 5 5 6
      vertex 3.10582 11.5911 6
    endloop
  endfacet
  facet normal 0 0 1
    outer loop
      vertex -3.10582 11.5911 6
      vertex -5 5 6
      vertex 5 5 6
    endloop
  endfacet
  facet normal 0 0 1
    outer loop
      vertex -11.5911 3.10582 6
      vertex -5 5 6
      vertex -8.48528 8.48528 6
    endloop
  endfacet
  facet normal -0 0 1
    outer loop
      vertex -8.48528 8.48528 6
      vertex -5 5 6
      vertex -3.10582 11.5911 6
    endloop
  endfacet
  facet normal 0 0 1
    outer loop
      vertex 11.5911 -3.10582 6
      vertex 5 -5 6
      vertex 8.48528 -8.48528 6
    endloop
  endfacet
  facet normal 0 0 1
    outer loop
      vertex 5 -5 6
      vertex 3.10582 -11.5911 6
      vertex 8.48528 -8.48528 6
    endloop
  endfacet
  facet normal 0 0 1
    outer loop
      vertex 5 -5 6
      vertex -3.10582 -11.5911 6
      vertex 3.10582 -11.5911 6
    endloop
  endfacet
  facet normal -0 0 1
    outer loop
      vertex -5 -5 6
      vertex -3.10582 -11.5911 6
      vertex 5 -5 6
    endloop
  endfacet
  facet normal 0 0 1
    outer loop
      vertex -5 -5 6
      vertex -8.48528 -8.48528 6
      vertex -3.10582 -11.5911 6
    endloop
  endfacet
  facet normal 0 0 1
    outer loop
      vertex -5 5 6
      vertex -11.5911 3.10582 6
      vertex -5 -5 6
    endloop
  endfacet
  facet normal -0 0 1
    outer loop
      vertex -11.5911 -3.10582 6
      vertex -5 -5 6
      vertex -11.5911 3.10582 6
    endloop
  endfacet
  facet normal 0 0 1
    outer loop
      vertex -5 -5 6
      vertex -11.5911 -3.10582 6
      vertex -8.48528 -8.48528 6
    endloop
  endfacet
  facet normal -1 0 0
    outer loop
      vertex -5 -5 6
      vertex -5 5 21
      vertex -5 5 6
    endloop
  endfacet
  facet normal -1 -0 0
    outer loop
      vertex -5 5 21
      vertex -5 -5 6
      vertex -5 -5 21
    endloop
  endfacet
  facet normal 0 1 -0
    outer loop
      vertex 5 5 6
      vertex -5 5 21
      vertex 5 5 21
    endloop
  endfacet
  facet normal 0 1 0
    outer loop
      vertex -5 5 21
      vertex 5 5 6
      vertex -5 5 6
    endloop
  endfacet
  facet normal 0 -1 0
    outer loop
      vertex -5 -5 6
      vertex 5 -5 21
      vertex -5 -5 21
    endloop
  endfacet
  facet normal 0 -1 -0
    outer loop
      vertex 5 -5 21
      vertex -5 -5 6
      vertex 5 -5 6
    endloop
  endfacet
  facet normal -0.866026 -0.499998 0
    outer loop
      vertex -8.48528 -8.48528 -6
      vertex -11.5911 -3.10582 6
      vertex -11.5911 -3.10582 -6
    endloop
  endfacet
  facet normal -0.866026 -0.499998 0
    outer loop
      vertex -11.5911 -3.10582 6
      vertex -8.48528 -8.48528 -6
      vertex -8.48528 -8.48528 6
    endloop
  endfacet
  facet normal 0.499998 -0.866026 0
    outer loop
      vertex 3.10582 -11.5911 -6
      vertex 8.48528 -8.48528 6
      vertex 3.10582 -11.5911 6
    endloop
  endfacet
  facet normal 0.499998 -0.866026 0
    outer loop
      vertex 8.48528 -8.48528 6
      vertex 3.10582 -11.5911 -6
      vertex 8.48528 -8.48528 -6
    endloop
  endfacet
  facet normal 1 -0 0
    outer loop
      vertex 11.5911 -3.10582 6
      vertex 11.5911 3.10582 -6
      vertex 11.5911 3.10582 6
    endloop
  endfacet
  facet normal 1 0 0
    outer loop
      vertex 11.5911 3.10582 -6
      vertex 11.5911 -3.10582 6
      vertex 11.5911 -3.10582 -6
    endloop
  endfacet
  facet normal 0.866026 0.499998 0
    outer loop
      vertex 11.5911 3.10582 6
      vertex 8.48528 8.48528 -6
      vertex 8.48528 8.48528 6
    endloop
  endfacet
  facet normal 0.866026 0.499998 0
    outer loop
      vertex 8.48528 8.48528 -6
      vertex 11.5911 3.10582 6
      vertex 11.5911 3.10582 -6
    endloop
  endfacet
  facet normal -0.866026 0.499998 0
    outer loop
      vertex -11.5911 3.10582 -6
      vertex -8.48528 8.48528 6
      vertex -8.48528 8.48528 -6
    endloop
  endfacet
  facet normal -0.866026 0.499998 0
    outer loop
      vertex -8.48528 8.48528 6
      vertex -11.5911 3.10582 -6
      vertex -11.5911 3.10582 6
    endloop
  endfacet
  facet normal 0 -1 0
    outer loop
      vertex -3.10582 -11.5911 -6
      vertex 3.10582 -11.5911 6
      vertex -3.10582 -11.5911 6
    endloop
  endfacet
  facet normal 0 -1 -0
    outer loop
      vertex 3.10582 -11.5911 6
      vertex -3.10582 -11.5911 -6
      vertex 3.10582 -11.5911 -6
    endloop
  endfacet
  facet normal 0 0 -1
    outer loop
      vertex 8.48528 -8.48528 -6
      vertex 11.5911 3.10582 -6
      vertex 11.5911 -3.10582 -6
    endloop
  endfacet
  facet normal 0 0 -1
    outer loop
      vertex 8.48528 -8.48528 -6
      vertex 8.48528 8.48528 -6
      vertex 11.5911 3.10582 -6
    endloop
  endfacet
  facet normal 0 0 -1
    outer loop
      vertex 3.10582 -11.5911 -6
      vertex 8.48528 8.48528 -6
      vertex 8.48528 -8.48528 -6
    endloop
  endfacet
  facet normal 0 0 -1
    outer loop
      vertex 3.10582 -11.5911 -6
      vertex 3.10582 11.5911 -6
      vertex 8.48528 8.48528 -6
    endloop
  endfacet
  facet normal 0 0 -1
    outer loop
      vertex -3.10582 -11.5911 -6
      vertex 3.10582 11.5911 -6
      vertex 3.10582 -11.5911 -6
    endloop
  endfacet
  facet normal 0 0 -1
    outer loop
      vertex -3.10582 -11.5911 -6
      vertex -3.10582 11.5911 -6
      vertex 3.10582 11.5911 -6
    endloop
  endfacet
  facet normal 0 0 -1
    outer loop
      vertex -8.48528 -8.48528 -6
      vertex -3.10582 11.5911 -6
      vertex -3.10582 -11.5911 -6
    endloop
  endfacet
  facet normal 0 0 -1
    outer loop
      vertex -8.48528 -8.48528 -6
      vertex -8.48528 8.48528 -6
      vertex -3.10582 11.5911 -6
    endloop
  endfacet
  facet normal 0 0 -1
    outer loop
      vertex -11.5911 -3.10582 -6
      vertex -8.48528 8.48528 -6
      vertex -8.48528 -8.48528 -6
    endloop
  endfacet
  facet normal 0 0 -1
    outer loop
      vertex -8.48528 8.48528 -6
      vertex -11.5911 -3.10582 -6
      vertex -11.5911 3.10582 -6
    endloop
  endfacet
  facet normal -0.499998 -0.866026 0
    outer loop
      vertex -8.48528 -8.48528 -6
      vertex -3.10582 -11.5911 6
      vertex -8.48528 -8.48528 6
    endloop
  endfacet
  facet normal -0.499998 -0.866026 -0
    outer loop
      vertex -3.10582 -11.5911 6
      vertex -8.48528 -8.48528 -6
      vertex -3.10582 -11.5911 -6
    endloop
  endfacet
  facet normal 0.499998 0.866026 -0
    outer loop
      vertex 8.48528 8.48528 -6
      vertex 3.10582 11.5911 6
      vertex 8.48528 8.48528 6
    endloop
  endfacet
  facet normal 0.499998 0.866026 0
    outer loop
      vertex 3.10582 11.5911 6
      vertex 8.48528 8.48528 -6
      vertex 3.10582 11.5911 -6
    endloop
  endfacet
  facet normal -0.499998 0.866026 0
    outer loop
      vertex -3.10582 11.5911 -6
      vertex -8.48528 8.48528 6
      vertex -3.10582 11.5911 6
    endloop
  endfacet
  facet normal -0.499998 0.866026 0
    outer loop
      vertex -8.48528 8.48528 6
      vertex -3.10582 11.5911 -6
      vertex -8.48528 8.48528 -6
    endloop
  endfacet
  facet normal 0 1 -0
    outer loop
      vertex 3.10582 11.5911 -6
      vertex -3.10582 11.5911 6
      vertex 3.10582 11.5911 6
    endloop
  endfacet
  facet normal 0 1 0
    outer loop
      vertex -3.10582 11.5911 6
      vertex 3.10582 11.5911 -6
      vertex -3.10582 11.5911 -6
    endloop
  endfacet
  facet normal 0.866026 -0.499998 0
    outer loop
      vertex 8.48528 -8.48528 6
      vertex 11.5911 -3.10582 -6
      vertex 11.5911 -3.10582 6
    endloop
  endfacet
  facet normal 0.866026 -0.499998 0
    outer loop
      vertex 11.5911 -3.10582 -6
      vertex 8.48528 -8.48528 6
      vertex 8.48528 -8.48528 -6
    endloop
  endfacet
  facet normal -1 0 0
    outer loop
      vertex -11.5911 -3.10582 -6
      vertex -11.5911 3.10582 6
      vertex -11.5911 3.10582 -6
    endloop
  endfacet
  facet normal -1 -0 0
    outer loop
      vertex -11.5911 3.10582 6
      vertex -11.5911 -3.10582 -6
      vertex -11.5911 -3.10582 6
    endloop
  endfacet
endsolid OpenSCAD_Model
