solid OpenSCAD_Model
  facet normal 1 -0 0
    outer loop
      vertex 5 -5 21
      vertex 5 5 6
      vertex 5 5 21
    endloop
  endfacet
  facet normal 1 0 0
    outer loop
      vertex 5 5 6
      vertex 5 -5 21
      vertex 5 -5 6
    endloop
  endfacet
  facet normal -0 0 1
    outer loop
      vertex -5 5 21
      vertex 5 -5 21
      vertex 5 5 21
    endloop
  endfacet
  facet normal 0 0 1
    outer loop
      vertex 5 -5 21
      vertex -5 5 21
      vertex -5 -5 21
    endloop
  endfacet
  facet normal 0 -0 1
    outer loop
      vertex -5 -4.04145 6
      vertex -5 4.04145 6
      vertex -12 0 6
    endloop
  endfacet
  facet normal 0 0 1
    outer loop
      vertex 6 10.3923 6
      vertex 5 5 6
      vertex 6 -10.3923 6
    endloop
  endfacet
  facet normal 0 -0 1
    outer loop
      vertex 5 5 6
      vertex 6 10.3923 6
      vertex -3.33974 5 6
    endloop
  endfacet
  facet normal -0 0 1
    outer loop
      vertex 5 -5 6
      vertex 6 -10.3923 6
      vertex 5 5 6
    endloop
  endfacet
  facet normal 0 0 1
    outer loop
      vertex 6 -10.3923 6
      vertex 5 -5 6
      vertex -3.33974 -5 6
    endloop
  endfacet
  facet normal 0 0 -1
    outer loop
      vertex -3.33974 -5 6
      vertex -5 -5 6
      vertex -5 -4.04145 6
    endloop
  endfacet
  facet normal -0 0 -1
    outer loop
      vertex -3.33974 5 6
      vertex -5 4.04145 6
      vertex -5 5 6
    endloop
  endfacet
  facet normal -1 0 0
    outer loop
      vertex -5 4.04145 6
      vertex -5 5 21
      vertex -5 5 6
    endloop
  endfacet
  facet normal -1 0 0
    outer loop
      vertex -5 -4.04145 6
      vertex -5 5 21
      vertex -5 4.04145 6
    endloop
  endfacet
  facet normal -1 0 0
    outer loop
      vertex -5 -5 21
      vertex -5 -4.04145 6
      vertex -5 -5 6
    endloop
  endfacet
  facet normal -1 0 0
    outer loop
      vertex -5 -4.04145 6
      vertex -5 -5 21
      vertex -5 5 21
    endloop
  endfacet
  facet normal 0 1 0
    outer loop
      vertex -3.33974 5 6
      vertex 5 5 21
      vertex 5 5 6
    endloop
  endfacet
  facet normal 0 1 0
    outer loop
      vertex 5 5 21
      vertex -3.33974 5 6
      vertex -5 5 21
    endloop
  endfacet
  facet normal 0 1 0
    outer loop
      vertex -5 5 21
      vertex -3.33974 5 6
      vertex -5 5 6
    endloop
  endfacet
  facet normal 0 -1 0
    outer loop
      vertex -3.33974 -5 6
      vertex -5 -5 21
      vertex -5 -5 6
    endloop
  endfacet
  facet normal 0 -1 0
    outer loop
      vertex -5 -5 21
      vertex -3.33974 -5 6
      vertex 5 -5 21
    endloop
  endfacet
  facet normal 0 -1 -0
    outer loop
      vertex 5 -5 21
      vertex -3.33974 -5 6
      vertex 5 -5 6
    endloop
  endfacet
  facet normal 0 0 -1
    outer loop
      vertex 6 -10.3923 -6
      vertex -12 0 -6
      vertex 6 10.3923 -6
    endloop
  endfacet
  facet normal -0.5 -0.866026 0
    outer loop
      vertex -12 0 -6
      vertex -5 -4.04145 6
      vertex -12 0 6
    endloop
  endfacet
  facet normal -0.499999 -0.866026 -3.38054e-07
    outer loop
      vertex -5 -4.04145 6
      vertex -12 0 -6
      vertex -3.33974 -5 6
    endloop
  endfacet
  facet normal -0.5 -0.866026 8.01795e-08
    outer loop
      vertex 6 -10.3923 -6
      vertex -3.33974 -5 6
      vertex -12 0 -6
    endloop
  endfacet
  facet normal -0.5 -0.866025 0
    outer loop
      vertex -3.33974 -5 6
      vertex 6 -10.3923 -6
      vertex 6 -10.3923 6
    endloop
  endfacet
  facet normal 1 -0 0
    outer loop
      vertex 6 -10.3923 6
      vertex 6 10.3923 -6
      vertex 6 10.3923 6
    endloop
  endfacet
  facet normal 1 0 0
    outer loop
      vertex 6 10.3923 -6
      vertex 6 -10.3923 6
      vertex 6 -10.3923 -6
    endloop
  endfacet
  facet normal -0.5 0.866025 0
    outer loop
      vertex 6 10.3923 -6
      vertex -3.33974 5 6
      vertex 6 10.3923 6
    endloop
  endfacet
  facet normal -0.5 0.866026 8.01795e-08
    outer loop
      vertex -12 0 -6
      vertex -3.33974 5 6
      vertex 6 10.3923 -6
    endloop
  endfacet
  facet normal -0.499999 0.866026 -3.38054e-07
    outer loop
      vertex -3.33974 5 6
      vertex -12 0 -6
      vertex -5 4.04145 6
    endloop
  endfacet
  facet normal -0.5 0.866026 0
    outer loop
      vertex -5 4.04145 6
      vertex -12 0 -6
      vertex -12 0 6
    endloop
  endfacet
endsolid OpenSCAD_Model
