solid OpenSCAD_Model
  facet normal 1 -0 0
    outer loop
      vertex 5 -5 21
      vertex 5 5 6
      vertex 5 5 21
    endloop
  endfacet
  facet normal 1 0 0
    outer loop
      vertex 5 5 6
      vertex 5 -5 21
      vertex 5 -5 6
    endloop
  endfacet
  facet normal -0 0 1
    outer loop
      vertex -5 5 21
      vertex 5 -5 21
      vertex 5 5 21
    endloop
  endfacet
  facet normal 0 0 1
    outer loop
      vertex 5 -5 21
      vertex -5 5 21
      vertex -5 -5 21
    endloop
  endfacet
  facet normal 0 0 1
    outer loop
      vertex 9.70819 7.05342 6
      vertex 5 5 6
      vertex 9.70819 -7.05342 6
    endloop
  endfacet
  facet normal 0 0 1
    outer loop
      vertex -3.70819 11.4127 6
      vertex 5 5 6
      vertex 9.70819 7.05342 6
    endloop
  endfacet
  facet normal 0 0 1
    outer loop
      vertex -3.70819 11.4127 6
      vertex -5 5 6
      vertex 5 5 6
    endloop
  endfacet
  facet normal 0 0 1
    outer loop
      vertex -5 5 6
      vertex -12 0 6
      vertex -5 -5 6
    endloop
  endfacet
  facet normal 0 0 1
    outer loop
      vertex -12 0 6
      vertex -5 5 6
      vertex -3.70819 11.4127 6
    endloop
  endfacet
  facet normal -0 0 1
    outer loop
      vertex 5 -5 6
      vertex 9.70819 -7.05342 6
      vertex 5 5 6
    endloop
  endfacet
  facet normal 0 0 1
    outer loop
      vertex 5 -5 6
      vertex -3.70819 -11.4127 6
      vertex 9.70819 -7.05342 6
    endloop
  endfacet
  facet normal -0 0 1
    outer loop
      vertex -5 -5 6
      vertex -3.70819 -11.4127 6
      vertex 5 -5 6
    endloop
  endfacet
  facet normal 0 0 1
    outer loop
      vertex -3.70819 -11.4127 6
      vertex -5 -5 6
      vertex -12 0 6
    endloop
  endfacet
  facet normal -1 0 0
    outer loop
      vertex -5 -5 6
      vertex -5 5 21
      vertex -5 5 6
    endloop
  endfacet
  facet normal -1 -0 0
    outer loop
      vertex -5 5 21
      vertex -5 -5 6
      vertex -5 -5 21
    endloop
  endfacet
  facet normal 0 1 -0
    outer loop
      vertex 5 5 6
      vertex -5 5 21
      vertex 5 5 21
    endloop
  endfacet
  facet normal 0 1 0
    outer loop
      vertex -5 5 21
      vertex 5 5 6
      vertex -5 5 6
    endloop
  endfacet
  facet normal 0 -1 0
    outer loop
      vertex -5 -5 6
      vertex 5 -5 21
      vertex -5 -5 21
    endloop
  endfacet
  facet normal 0 -1 -0
    outer loop
      vertex 5 -5 21
      vertex -5 -5 6
      vertex 5 -5 6
    endloop
  endfacet
  facet normal -0.809017 0.587785 0
    outer loop
      vertex -12 0 -6
      vertex -3.70819 11.4127 6
      vertex -3.70819 11.4127 -6
    endloop
  endfacet
  facet normal -0.809017 0.587785 0
    outer loop
      vertex -3.70819 11.4127 6
      vertex -12 0 -6
      vertex -12 0 6
    endloop
  endfacet
  facet normal 0.309019 0.951056 -0
    outer loop
      vertex 9.70819 7.05342 -6
      vertex -3.70819 11.4127 6
      vertex 9.70819 7.05342 6
    endloop
  endfacet
  facet normal 0.309019 0.951056 0
    outer loop
      vertex -3.70819 11.4127 6
      vertex 9.70819 7.05342 -6
      vertex -3.70819 11.4127 -6
    endloop
  endfacet
  facet normal 1 -0 0
    outer loop
      vertex 9.70819 -7.05342 6
      vertex 9.70819 7.05342 -6
      vertex 9.70819 7.05342 6
    endloop
  endfacet
  facet normal 1 0 0
    outer loop
      vertex 9.70819 7.05342 -6
      vertex 9.70819 -7.05342 6
      vertex 9.70819 -7.05342 -6
    endloop
  endfacet
  facet normal 0 0 -1
    outer loop
      vertex -3.70819 -11.4127 -6
      vertex 9.70819 7.05342 -6
      vertex 9.70819 -7.05342 -6
    endloop
  endfacet
  facet normal 0 0 -1
    outer loop
      vertex -3.70819 -11.4127 -6
      vertex -3.70819 11.4127 -6
      vertex 9.70819 7.05342 -6
    endloop
  endfacet
  facet normal 0 -0 -1
    outer loop
      vertex -3.70819 11.4127 -6
      vertex -3.70819 -11.4127 -6
      vertex -12 0 -6
    endloop
  endfacet
  facet normal -0.809017 -0.587785 0
    outer loop
      vertex -3.70819 -11.4127 -6
      vertex -12 0 6
      vertex -12 0 -6
    endloop
  endfacet
  facet normal -0.809017 -0.587785 0
    outer loop
      vertex -12 0 6
      vertex -3.70819 -11.4127 -6
      vertex -3.70819 -11.4127 6
    endloop
  endfacet
  facet normal 0.309019 -0.951056 0
    outer loop
      vertex -3.70819 -11.4127 -6
      vertex 9.70819 -7.05342 6
      vertex -3.70819 -11.4127 6
    endloop
  endfacet
  facet normal 0.309019 -0.951056 0
    outer loop
      vertex 9.70819 -7.05342 6
      vertex -3.70819 -11.4127 -6
      vertex 9.70819 -7.05342 -6
    endloop
  endfacet
endsolid OpenSCAD_Model
