solid OpenSCAD_Model
  facet normal 1 -0 0
    outer loop
      vertex 5 -5 21
      vertex 5 5 6
      vertex 5 5 21
    endloop
  endfacet
  facet normal 1 0 0
    outer loop
      vertex 5 5 6
      vertex 5 -5 21
      vertex 5 -5 6
    endloop
  endfacet
  facet normal -0 0 1
    outer loop
      vertex -5 5 21
      vertex 5 -5 21
      vertex 5 5 21
    endloop
  endfacet
  facet normal 0 0 1
    outer loop
      vertex 5 -5 21
      vertex -5 5 21
      vertex -5 -5 21
    endloop
  endfacet
  facet normal 0 0 1
    outer loop
      vertex 11.0865 4.59219 6
      vertex 5 5 6
      vertex 11.0865 -4.59219 6
    endloop
  endfacet
  facet normal 0 0 1
    outer loop
      vertex 4.59219 11.0865 6
      vertex 5 5 6
      vertex 11.0865 4.59219 6
    endloop
  endfacet
  facet normal -0 0 1
    outer loop
      vertex -4.59219 11.0865 6
      vertex 5 5 6
      vertex 4.59219 11.0865 6
    endloop
  endfacet
  facet normal 0 0 1
    outer loop
      vertex -4.59219 11.0865 6
      vertex -5 5 6
      vertex 5 5 6
    endloop
  endfacet
  facet normal 0 0 1
    outer loop
      vertex -5 5 6
      vertex -11.0865 4.59219 6
      vertex -5 -5 6
    endloop
  endfacet
  facet normal 0 0 1
    outer loop
      vertex -11.0865 4.59219 6
      vertex -5 5 6
      vertex -4.59219 11.0865 6
    endloop
  endfacet
  facet normal 0 0 1
    outer loop
      vertex 5 -5 6
      vertex 11.0865 -4.59219 6
      vertex 5 5 6
    endloop
  endfacet
  facet normal -0 0 1
    outer loop
      vertex 5 -5 6
      vertex 4.59219 -11.0865 6
      vertex 11.0865 -4.59219 6
    endloop
  endfacet
  facet normal 0 0 1
    outer loop
      vertex 5 -5 6
      vertex -4.59219 -11.0865 6
      vertex 4.59219 -11.0865 6
    endloop
  endfacet
  facet normal -0 0 1
    outer loop
      vertex -5 -5 6
      vertex -4.59219 -11.0865 6
      vertex 5 -5 6
    endloop
  endfacet
  facet normal -0 0 1
    outer loop
      vertex -11.0865 -4.59219 6
      vertex -5 -5 6
      vertex -11.0865 4.59219 6
    endloop
  endfacet
  facet normal 0 0 1
    outer loop
      vertex -5 -5 6
      vertex -11.0865 -4.59219 6
      vertex -4.59219 -11.0865 6
    endloop
  endfacet
  facet normal -1 0 0
    outer loop
      vertex -5 -5 6
      vertex -5 5 21
      vertex -5 5 6
    endloop
  endfacet
  facet normal -1 -0 0
    outer loop
      vertex -5 5 21
      vertex -5 -5 6
      vertex -5 -5 21
    endloop
  endfacet
  facet normal 0 1 -0
    outer loop
      vertex 5 5 6
      vertex -5 5 21
      vertex 5 5 21
    endloop
  endfacet
  facet normal 0 1 0
    outer loop
      vertex -5 5 21
      vertex 5 5 6
      vertex -5 5 6
    endloop
  endfacet
  facet normal 0 -1 0
    outer loop
      vertex -5 -5 6
      vertex 5 -5 21
      vertex -5 -5 21
    endloop
  endfacet
  facet normal 0 -1 -0
    outer loop
      vertex 5 -5 21
      vertex -5 -5 6
      vertex 5 -5 6
    endloop
  endfacet
  facet normal 0.707107 0.707107 0
    outer loop
      vertex 11.0865 4.59219 6
      vertex 4.59219 11.0865 -6
      vertex 4.59219 11.0865 6
    endloop
  endfacet
  facet normal 0.707107 0.707107 0
    outer loop
      vertex 4.59219 11.0865 -6
      vertex 11.0865 4.59219 6
      vertex 11.0865 4.59219 -6
    endloop
  endfacet
  facet normal -0.707107 0.707107 0
    outer loop
      vertex -11.0865 4.59219 -6
      vertex -4.59219 11.0865 6
      vertex -4.59219 11.0865 -6
    endloop
  endfacet
  facet normal -0.707107 0.707107 0
    outer loop
      vertex -4.59219 11.0865 6
      vertex -11.0865 4.59219 -6
      vertex -11.0865 4.59219 6
    endloop
  endfacet
  facet normal -1 0 0
    outer loop
      vertex -11.0865 -4.59219 -6
      vertex -11.0865 4.59219 6
      vertex -11.0865 4.59219 -6
    endloop
  endfacet
  facet normal -1 -0 0
    outer loop
      vertex -11.0865 4.59219 6
      vertex -11.0865 -4.59219 -6
      vertex -11.0865 -4.59219 6
    endloop
  endfacet
  facet normal -0.707107 -0.707107 0
    outer loop
      vertex -4.59219 -11.0865 -6
      vertex -11.0865 -4.59219 6
      vertex -11.0865 -4.59219 -6
    endloop
  endfacet
  facet normal -0.707107 -0.707107 0
    outer loop
      vertex -11.0865 -4.59219 6
      vertex -4.59219 -11.0865 -6
      vertex -4.59219 -11.0865 6
    endloop
  endfacet
  facet normal 1 -0 0
    outer loop
      vertex 11.0865 -4.59219 6
      vertex 11.0865 4.59219 -6
      vertex 11.0865 4.59219 6
    endloop
  endfacet
  facet normal 1 0 0
    outer loop
      vertex 11.0865 4.59219 -6
      vertex 11.0865 -4.59219 6
      vertex 11.0865 -4.59219 -6
    endloop
  endfacet
  facet normal 0 -1 0
    outer loop
      vertex -4.59219 -11.0865 -6
      vertex 4.59219 -11.0865 6
      vertex -4.59219 -11.0865 6
    endloop
  endfacet
  facet normal 0 -1 -0
    outer loop
      vertex 4.59219 -11.0865 6
      vertex -4.59219 -11.0865 -6
      vertex 4.59219 -11.0865 -6
    endloop
  endfacet
  facet normal 0 0 -1
    outer loop
      vertex 4.59219 -11.0865 -6
      vertex 11.0865 4.59219 -6
      vertex 11.0865 -4.59219 -6
    endloop
  endfacet
  facet normal 0 0 -1
    outer loop
      vertex 4.59219 -11.0865 -6
      vertex 4.59219 11.0865 -6
      vertex 11.0865 4.59219 -6
    endloop
  endfacet
  facet normal 0 0 -1
    outer loop
      vertex -4.59219 -11.0865 -6
      vertex 4.59219 11.0865 -6
      vertex 4.59219 -11.0865 -6
    endloop
  endfacet
  facet normal 0 0 -1
    outer loop
      vertex -4.59219 -11.0865 -6
      vertex -4.59219 11.0865 -6
      vertex 4.59219 11.0865 -6
    endloop
  endfacet
  facet normal 0 0 -1
    outer loop
      vertex -11.0865 -4.59219 -6
      vertex -4.59219 11.0865 -6
      vertex -4.59219 -11.0865 -6
    endloop
  endfacet
  facet normal 0 0 -1
    outer loop
      vertex -4.59219 11.0865 -6
      vertex -11.0865 -4.59219 -6
      vertex -11.0865 4.59219 -6
    endloop
  endfacet
  facet normal 0 1 -0
    outer loop
      vertex 4.59219 11.0865 -6
      vertex -4.59219 11.0865 6
      vertex 4.59219 11.0865 6
    endloop
  endfacet
  facet normal 0 1 0
    outer loop
      vertex -4.59219 11.0865 6
      vertex 4.59219 11.0865 -6
      vertex -4.59219 11.0865 -6
    endloop
  endfacet
  facet normal 0.707107 -0.707107 0
    outer loop
      vertex 4.59219 -11.0865 6
      vertex 11.0865 -4.59219 -6
      vertex 11.0865 -4.59219 6
    endloop
  endfacet
  facet normal 0.707107 -0.707107 0
    outer loop
      vertex 11.0865 -4.59219 -6
      vertex 4.59219 -11.0865 6
      vertex 4.59219 -11.0865 -6
    endloop
  endfacet
endsolid OpenSCAD_Model
