solid OpenSCAD_Model
  facet normal 1 -0 0
    outer loop
      vertex 10 -10 45
      vertex 10 10 25
      vertex 10 10 45
    endloop
  endfacet
  facet normal 1 0 0
    outer loop
      vertex 10 10 25
      vertex 10 -10 45
      vertex 10 -10 25
    endloop
  endfacet
  facet normal -0 0 1
    outer loop
      vertex -10 10 45
      vertex 10 -10 45
      vertex 10 10 45
    endloop
  endfacet
  facet normal 0 0 1
    outer loop
      vertex 10 -10 45
      vertex -10 10 45
      vertex -10 -10 45
    endloop
  endfacet
  facet normal -0 0 1
    outer loop
      vertex 10 10 25
      vertex 28.5317 9.27051 25
      vertex 17.6335 24.2705 25
    endloop
  endfacet
  facet normal 0 0 1
    outer loop
      vertex 28.5317 9.27051 25
      vertex 10 10 25
      vertex 28.5317 -9.27051 25
    endloop
  endfacet
  facet normal 0 0 1
    outer loop
      vertex 10 -10 25
      vertex 28.5317 -9.27051 25
      vertex 10 10 25
    endloop
  endfacet
  facet normal 0 0 1
    outer loop
      vertex 0 30 25
      vertex 10 10 25
      vertex 17.6335 24.2705 25
    endloop
  endfacet
  facet normal 0 0 1
    outer loop
      vertex 0 30 25
      vertex -10 10 25
      vertex 10 10 25
    endloop
  endfacet
  facet normal 0 0 1
    outer loop
      vertex -28.5317 9.27051 25
      vertex -10 10 25
      vertex -17.6335 24.2705 25
    endloop
  endfacet
  facet normal -0 0 1
    outer loop
      vertex -17.6335 24.2705 25
      vertex -10 10 25
      vertex 0 30 25
    endloop
  endfacet
  facet normal 0 0 1
    outer loop
      vertex 28.5317 -9.27051 25
      vertex 10 -10 25
      vertex 17.6335 -24.2705 25
    endloop
  endfacet
  facet normal 0 0 1
    outer loop
      vertex 10 -10 25
      vertex 0 -30 25
      vertex 17.6335 -24.2705 25
    endloop
  endfacet
  facet normal -0 0 1
    outer loop
      vertex -10 -10 25
      vertex 0 -30 25
      vertex 10 -10 25
    endloop
  endfacet
  facet normal 0 0 1
    outer loop
      vertex -10 -10 25
      vertex -17.6335 -24.2705 25
      vertex 0 -30 25
    endloop
  endfacet
  facet normal 0 0 1
    outer loop
      vertex -10 10 25
      vertex -28.5317 9.27051 25
      vertex -10 -10 25
    endloop
  endfacet
  facet normal -0 0 1
    outer loop
      vertex -28.5317 -9.27051 25
      vertex -10 -10 25
      vertex -28.5317 9.27051 25
    endloop
  endfacet
  facet normal 0 0 1
    outer loop
      vertex -10 -10 25
      vertex -28.5317 -9.27051 25
      vertex -17.6335 -24.2705 25
    endloop
  endfacet
  facet normal -1 0 0
    outer loop
      vertex -10 -10 25
      vertex -10 10 45
      vertex -10 10 25
    endloop
  endfacet
  facet normal -1 -0 0
    outer loop
      vertex -10 10 45
      vertex -10 -10 25
      vertex -10 -10 45
    endloop
  endfacet
  facet normal 0 1 -0
    outer loop
      vertex 10 10 25
      vertex -10 10 45
      vertex 10 10 45
    endloop
  endfacet
  facet normal 0 1 0
    outer loop
      vertex -10 10 45
      vertex 10 10 25
      vertex -10 10 25
    endloop
  endfacet
  facet normal 0 -1 0
    outer loop
      vertex -10 -10 25
      vertex 10 -10 45
      vertex -10 -10 45
    endloop
  endfacet
  facet normal 0 -1 -0
    outer loop
      vertex 10 -10 45
      vertex -10 -10 25
      vertex 10 -10 25
    endloop
  endfacet
  facet normal -0.309018 0.951056 0
    outer loop
      vertex 0 30 -25
      vertex -17.6335 24.2705 25
      vertex 0 30 25
    endloop
  endfacet
  facet normal -0.309018 0.951056 0
    outer loop
      vertex -17.6335 24.2705 25
      vertex 0 30 -25
      vertex -17.6335 24.2705 -25
    endloop
  endfacet
  facet normal 1 -0 0
    outer loop
      vertex 28.5317 -9.27051 25
      vertex 28.5317 9.27051 -25
      vertex 28.5317 9.27051 25
    endloop
  endfacet
  facet normal 1 0 0
    outer loop
      vertex 28.5317 9.27051 -25
      vertex 28.5317 -9.27051 25
      vertex 28.5317 -9.27051 -25
    endloop
  endfacet
  facet normal -1 0 0
    outer loop
      vertex -28.5317 -9.27051 -25
      vertex -28.5317 9.27051 25
      vertex -28.5317 9.27051 -25
    endloop
  endfacet
  facet normal -1 -0 0
    outer loop
      vertex -28.5317 9.27051 25
      vertex -28.5317 -9.27051 -25
      vertex -28.5317 -9.27051 25
    endloop
  endfacet
  facet normal 0 0 -1
    outer loop
      vertex 17.6335 -24.2705 -25
      vertex 28.5317 9.27051 -25
      vertex 28.5317 -9.27051 -25
    endloop
  endfacet
  facet normal 0 0 -1
    outer loop
      vertex 17.6335 -24.2705 -25
      vertex 17.6335 24.2705 -25
      vertex 28.5317 9.27051 -25
    endloop
  endfacet
  facet normal 0 0 -1
    outer loop
      vertex 0 -30 -25
      vertex 17.6335 24.2705 -25
      vertex 17.6335 -24.2705 -25
    endloop
  endfacet
  facet normal 0 0 -1
    outer loop
      vertex 0 -30 -25
      vertex 0 30 -25
      vertex 17.6335 24.2705 -25
    endloop
  endfacet
  facet normal 0 0 -1
    outer loop
      vertex -17.6335 -24.2705 -25
      vertex 0 30 -25
      vertex 0 -30 -25
    endloop
  endfacet
  facet normal 0 0 -1
    outer loop
      vertex -17.6335 -24.2705 -25
      vertex -17.6335 24.2705 -25
      vertex 0 30 -25
    endloop
  endfacet
  facet normal 0 0 -1
    outer loop
      vertex -28.5317 -9.27051 -25
      vertex -17.6335 24.2705 -25
      vertex -17.6335 -24.2705 -25
    endloop
  endfacet
  facet normal 0 0 -1
    outer loop
      vertex -17.6335 24.2705 -25
      vertex -28.5317 -9.27051 -25
      vertex -28.5317 9.27051 -25
    endloop
  endfacet
  facet normal 0.309018 -0.951056 0
    outer loop
      vertex 0 -30 -25
      vertex 17.6335 -24.2705 25
      vertex 0 -30 25
    endloop
  endfacet
  facet normal 0.309018 -0.951056 0
    outer loop
      vertex 17.6335 -24.2705 25
      vertex 0 -30 -25
      vertex 17.6335 -24.2705 -25
    endloop
  endfacet
  facet normal 0.309018 0.951056 -0
    outer loop
      vertex 17.6335 24.2705 -25
      vertex 0 30 25
      vertex 17.6335 24.2705 25
    endloop
  endfacet
  facet normal 0.309018 0.951056 0
    outer loop
      vertex 0 30 25
      vertex 17.6335 24.2705 -25
      vertex 0 30 -25
    endloop
  endfacet
  facet normal 0.809015 0.587788 0
    outer loop
      vertex 28.5317 9.27051 25
      vertex 17.6335 24.2705 -25
      vertex 17.6335 24.2705 25
    endloop
  endfacet
  facet normal 0.809015 0.587788 0
    outer loop
      vertex 17.6335 24.2705 -25
      vertex 28.5317 9.27051 25
      vertex 28.5317 9.27051 -25
    endloop
  endfacet
  facet normal -0.809015 0.587788 0
    outer loop
      vertex -28.5317 9.27051 -25
      vertex -17.6335 24.2705 25
      vertex -17.6335 24.2705 -25
    endloop
  endfacet
  facet normal -0.809015 0.587788 0
    outer loop
      vertex -17.6335 24.2705 25
      vertex -28.5317 9.27051 -25
      vertex -28.5317 9.27051 25
    endloop
  endfacet
  facet normal -0.309018 -0.951056 0
    outer loop
      vertex -17.6335 -24.2705 -25
      vertex 0 -30 25
      vertex -17.6335 -24.2705 25
    endloop
  endfacet
  facet normal -0.309018 -0.951056 -0
    outer loop
      vertex 0 -30 25
      vertex -17.6335 -24.2705 -25
      vertex 0 -30 -25
    endloop
  endfacet
  facet normal -0.809015 -0.587788 0
    outer loop
      vertex -17.6335 -24.2705 -25
      vertex -28.5317 -9.27051 25
      vertex -28.5317 -9.27051 -25
    endloop
  endfacet
  facet normal -0.809015 -0.587788 0
    outer loop
      vertex -28.5317 -9.27051 25
      vertex -17.6335 -24.2705 -25
      vertex -17.6335 -24.2705 25
    endloop
  endfacet
  facet normal 0.809015 -0.587788 0
    outer loop
      vertex 17.6335 -24.2705 25
      vertex 28.5317 -9.27051 -25
      vertex 28.5317 -9.27051 25
    endloop
  endfacet
  facet normal 0.809015 -0.587788 0
    outer loop
      vertex 28.5317 -9.27051 -25
      vertex 17.6335 -24.2705 25
      vertex 17.6335 -24.2705 -25
    endloop
  endfacet
endsolid OpenSCAD_Model
