solid OpenSCAD_Model
  facet normal 1 -0 0
    outer loop
      vertex 10 -10 45
      vertex 10 10 25
      vertex 10 10 45
    endloop
  endfacet
  facet normal 1 0 0
    outer loop
      vertex 10 10 25
      vertex 10 -10 45
      vertex 10 -10 25
    endloop
  endfacet
  facet normal -0 0 1
    outer loop
      vertex -10 10 45
      vertex 10 -10 45
      vertex 10 10 45
    endloop
  endfacet
  facet normal 0 0 1
    outer loop
      vertex 10 -10 45
      vertex -10 10 45
      vertex -10 -10 45
    endloop
  endfacet
  facet normal -0 0 1
    outer loop
      vertex 10 10 25
      vertex 28.7848 8.45197 25
      vertex 19.6458 22.6725 25
    endloop
  endfacet
  facet normal 0 0 1
    outer loop
      vertex 28.7848 8.45197 25
      vertex 10 10 25
      vertex 28.7848 -8.45197 25
    endloop
  endfacet
  facet normal 0 0 1
    outer loop
      vertex 10 -10 25
      vertex 28.7848 -8.45197 25
      vertex 10 10 25
    endloop
  endfacet
  facet normal 0 0 1
    outer loop
      vertex 4.26944 29.6946 25
      vertex 10 10 25
      vertex 19.6458 22.6725 25
    endloop
  endfacet
  facet normal 0 0 1
    outer loop
      vertex 4.26944 29.6946 25
      vertex -10 10 25
      vertex 10 10 25
    endloop
  endfacet
  facet normal -0 0 1
    outer loop
      vertex -25.2376 16.2192 25
      vertex -10 10 25
      vertex -12.4624 27.289 25
    endloop
  endfacet
  facet normal -0 0 1
    outer loop
      vertex -12.4624 27.289 25
      vertex -10 10 25
      vertex 4.26944 29.6946 25
    endloop
  endfacet
  facet normal 0 0 1
    outer loop
      vertex 28.7848 -8.45197 25
      vertex 10 -10 25
      vertex 19.6458 -22.6725 25
    endloop
  endfacet
  facet normal 0 0 1
    outer loop
      vertex 10 -10 25
      vertex 4.26944 -29.6946 25
      vertex 19.6458 -22.6725 25
    endloop
  endfacet
  facet normal -0 0 1
    outer loop
      vertex -10 -10 25
      vertex 4.26944 -29.6946 25
      vertex 10 -10 25
    endloop
  endfacet
  facet normal 0 0 1
    outer loop
      vertex -10 -10 25
      vertex -12.4624 -27.289 25
      vertex 4.26944 -29.6946 25
    endloop
  endfacet
  facet normal 0 0 1
    outer loop
      vertex -30 0 25
      vertex -10 10 25
      vertex -25.2376 16.2192 25
    endloop
  endfacet
  facet normal 0 0 1
    outer loop
      vertex -10 10 25
      vertex -30 0 25
      vertex -10 -10 25
    endloop
  endfacet
  facet normal 0 0 1
    outer loop
      vertex -10 -10 25
      vertex -25.2376 -16.2192 25
      vertex -12.4624 -27.289 25
    endloop
  endfacet
  facet normal 0 0 1
    outer loop
      vertex -10 -10 25
      vertex -30 0 25
      vertex -25.2376 -16.2192 25
    endloop
  endfacet
  facet normal -1 0 0
    outer loop
      vertex -10 -10 25
      vertex -10 10 45
      vertex -10 10 25
    endloop
  endfacet
  facet normal -1 -0 0
    outer loop
      vertex -10 10 45
      vertex -10 -10 25
      vertex -10 -10 45
    endloop
  endfacet
  facet normal 0 1 -0
    outer loop
      vertex 10 10 25
      vertex -10 10 45
      vertex 10 10 45
    endloop
  endfacet
  facet normal 0 1 0
    outer loop
      vertex -10 10 45
      vertex 10 10 25
      vertex -10 10 25
    endloop
  endfacet
  facet normal 0 -1 0
    outer loop
      vertex -10 -10 25
      vertex 10 -10 45
      vertex -10 -10 45
    endloop
  endfacet
  facet normal 0 -1 -0
    outer loop
      vertex 10 -10 45
      vertex -10 -10 25
      vertex 10 -10 25
    endloop
  endfacet
  facet normal 0.415413 -0.909633 0
    outer loop
      vertex 4.26944 -29.6946 -25
      vertex 19.6458 -22.6725 25
      vertex 4.26944 -29.6946 25
    endloop
  endfacet
  facet normal 0.415413 -0.909633 0
    outer loop
      vertex 19.6458 -22.6725 25
      vertex 4.26944 -29.6946 -25
      vertex 19.6458 -22.6725 -25
    endloop
  endfacet
  facet normal -0.959493 -0.281733 0
    outer loop
      vertex -25.2376 -16.2192 -25
      vertex -30 0 25
      vertex -30 0 -25
    endloop
  endfacet
  facet normal -0.959493 -0.281733 0
    outer loop
      vertex -30 0 25
      vertex -25.2376 -16.2192 -25
      vertex -25.2376 -16.2192 25
    endloop
  endfacet
  facet normal -0.959493 0.281733 0
    outer loop
      vertex -30 0 -25
      vertex -25.2376 16.2192 25
      vertex -25.2376 16.2192 -25
    endloop
  endfacet
  facet normal -0.959493 0.281733 0
    outer loop
      vertex -25.2376 16.2192 25
      vertex -30 0 -25
      vertex -30 0 25
    endloop
  endfacet
  facet normal 0 0 -1
    outer loop
      vertex 19.6458 -22.6725 -25
      vertex 28.7848 8.45197 -25
      vertex 28.7848 -8.45197 -25
    endloop
  endfacet
  facet normal 0 0 -1
    outer loop
      vertex 19.6458 -22.6725 -25
      vertex 19.6458 22.6725 -25
      vertex 28.7848 8.45197 -25
    endloop
  endfacet
  facet normal 0 0 -1
    outer loop
      vertex 4.26944 -29.6946 -25
      vertex 19.6458 22.6725 -25
      vertex 19.6458 -22.6725 -25
    endloop
  endfacet
  facet normal 0 0 -1
    outer loop
      vertex 4.26944 -29.6946 -25
      vertex 4.26944 29.6946 -25
      vertex 19.6458 22.6725 -25
    endloop
  endfacet
  facet normal 0 0 -1
    outer loop
      vertex -12.4624 -27.289 -25
      vertex 4.26944 29.6946 -25
      vertex 4.26944 -29.6946 -25
    endloop
  endfacet
  facet normal 0 0 -1
    outer loop
      vertex -12.4624 -27.289 -25
      vertex -12.4624 27.289 -25
      vertex 4.26944 29.6946 -25
    endloop
  endfacet
  facet normal 0 0 -1
    outer loop
      vertex -25.2376 -16.2192 -25
      vertex -12.4624 27.289 -25
      vertex -12.4624 -27.289 -25
    endloop
  endfacet
  facet normal 0 0 -1
    outer loop
      vertex -25.2376 -16.2192 -25
      vertex -25.2376 16.2192 -25
      vertex -12.4624 27.289 -25
    endloop
  endfacet
  facet normal 0 -0 -1
    outer loop
      vertex -25.2376 16.2192 -25
      vertex -25.2376 -16.2192 -25
      vertex -30 0 -25
    endloop
  endfacet
  facet normal -0.654862 0.755749 0
    outer loop
      vertex -12.4624 27.289 -25
      vertex -25.2376 16.2192 25
      vertex -12.4624 27.289 25
    endloop
  endfacet
  facet normal -0.654862 0.755749 0
    outer loop
      vertex -25.2376 16.2192 25
      vertex -12.4624 27.289 -25
      vertex -25.2376 16.2192 -25
    endloop
  endfacet
  facet normal 0.841253 0.540642 0
    outer loop
      vertex 28.7848 8.45197 25
      vertex 19.6458 22.6725 -25
      vertex 19.6458 22.6725 25
    endloop
  endfacet
  facet normal 0.841253 0.540642 0
    outer loop
      vertex 19.6458 22.6725 -25
      vertex 28.7848 8.45197 25
      vertex 28.7848 8.45197 -25
    endloop
  endfacet
  facet normal 0.415413 0.909633 -0
    outer loop
      vertex 19.6458 22.6725 -25
      vertex 4.26944 29.6946 25
      vertex 19.6458 22.6725 25
    endloop
  endfacet
  facet normal 0.415413 0.909633 0
    outer loop
      vertex 4.26944 29.6946 25
      vertex 19.6458 22.6725 -25
      vertex 4.26944 29.6946 -25
    endloop
  endfacet
  facet normal 0.841253 -0.540642 0
    outer loop
      vertex 19.6458 -22.6725 25
      vertex 28.7848 -8.45197 -25
      vertex 28.7848 -8.45197 25
    endloop
  endfacet
  facet normal 0.841253 -0.540642 0
    outer loop
      vertex 28.7848 -8.45197 -25
      vertex 19.6458 -22.6725 25
      vertex 19.6458 -22.6725 -25
    endloop
  endfacet
  facet normal -0.654862 -0.755749 0
    outer loop
      vertex -25.2376 -16.2192 -25
      vertex -12.4624 -27.289 25
      vertex -25.2376 -16.2192 25
    endloop
  endfacet
  facet normal -0.654862 -0.755749 -0
    outer loop
      vertex -12.4624 -27.289 25
      vertex -25.2376 -16.2192 -25
      vertex -12.4624 -27.289 -25
    endloop
  endfacet
  facet normal -0.14231 -0.989822 0
    outer loop
      vertex -12.4624 -27.289 -25
      vertex 4.26944 -29.6946 25
      vertex -12.4624 -27.289 25
    endloop
  endfacet
  facet normal -0.14231 -0.989822 -0
    outer loop
      vertex 4.26944 -29.6946 25
      vertex -12.4624 -27.289 -25
      vertex 4.26944 -29.6946 -25
    endloop
  endfacet
  facet normal -0.14231 0.989822 0
    outer loop
      vertex 4.26944 29.6946 -25
      vertex -12.4624 27.289 25
      vertex 4.26944 29.6946 25
    endloop
  endfacet
  facet normal -0.14231 0.989822 0
    outer loop
      vertex -12.4624 27.289 25
      vertex 4.26944 29.6946 -25
      vertex -12.4624 27.289 -25
    endloop
  endfacet
  facet normal 1 -0 0
    outer loop
      vertex 28.7848 -8.45197 25
      vertex 28.7848 8.45197 -25
      vertex 28.7848 8.45197 25
    endloop
  endfacet
  facet normal 1 0 0
    outer loop
      vertex 28.7848 8.45197 -25
      vertex 28.7848 -8.45197 25
      vertex 28.7848 -8.45197 -25
    endloop
  endfacet
endsolid OpenSCAD_Model
