solid OpenSCAD_Model
  facet normal 1 -0 0
    outer loop
      vertex 10 -10 45
      vertex 10 10 25
      vertex 10 10 45
    endloop
  endfacet
  facet normal 1 0 0
    outer loop
      vertex 10 10 25
      vertex 10 -10 45
      vertex 10 -10 25
    endloop
  endfacet
  facet normal -0 0 1
    outer loop
      vertex -10 10 45
      vertex 10 -10 45
      vertex 10 10 45
    endloop
  endfacet
  facet normal 0 0 1
    outer loop
      vertex 10 -10 45
      vertex -10 10 45
      vertex -10 -10 45
    endloop
  endfacet
  facet normal 0 0 1
    outer loop
      vertex 21.2132 21.2132 25
      vertex 10 10 25
      vertex 21.2132 -21.2132 25
    endloop
  endfacet
  facet normal 0 0 1
    outer loop
      vertex 21.2132 21.2132 25
      vertex -10 10 25
      vertex 10 10 25
    endloop
  endfacet
  facet normal 0 0 1
    outer loop
      vertex -10 10 25
      vertex -21.2132 21.2132 25
      vertex -10 -10 25
    endloop
  endfacet
  facet normal -0 0 1
    outer loop
      vertex -21.2132 21.2132 25
      vertex -10 10 25
      vertex 21.2132 21.2132 25
    endloop
  endfacet
  facet normal -0 0 1
    outer loop
      vertex 10 -10 25
      vertex 21.2132 -21.2132 25
      vertex 10 10 25
    endloop
  endfacet
  facet normal -0 0 1
    outer loop
      vertex -10 -10 25
      vertex 21.2132 -21.2132 25
      vertex 10 -10 25
    endloop
  endfacet
  facet normal 0 0 1
    outer loop
      vertex -10 -10 25
      vertex -21.2132 -21.2132 25
      vertex 21.2132 -21.2132 25
    endloop
  endfacet
  facet normal 0 0 1
    outer loop
      vertex -21.2132 -21.2132 25
      vertex -10 -10 25
      vertex -21.2132 21.2132 25
    endloop
  endfacet
  facet normal -1 0 0
    outer loop
      vertex -10 -10 25
      vertex -10 10 45
      vertex -10 10 25
    endloop
  endfacet
  facet normal -1 -0 0
    outer loop
      vertex -10 10 45
      vertex -10 -10 25
      vertex -10 -10 45
    endloop
  endfacet
  facet normal 0 1 -0
    outer loop
      vertex 10 10 25
      vertex -10 10 45
      vertex 10 10 45
    endloop
  endfacet
  facet normal 0 1 0
    outer loop
      vertex -10 10 45
      vertex 10 10 25
      vertex -10 10 25
    endloop
  endfacet
  facet normal 0 -1 0
    outer loop
      vertex -10 -10 25
      vertex 10 -10 45
      vertex -10 -10 45
    endloop
  endfacet
  facet normal 0 -1 -0
    outer loop
      vertex 10 -10 45
      vertex -10 -10 25
      vertex 10 -10 25
    endloop
  endfacet
  facet normal 0 0 -1
    outer loop
      vertex -21.2132 -21.2132 -25
      vertex 21.2132 21.2132 -25
      vertex 21.2132 -21.2132 -25
    endloop
  endfacet
  facet normal -0 0 -1
    outer loop
      vertex 21.2132 21.2132 -25
      vertex -21.2132 -21.2132 -25
      vertex -21.2132 21.2132 -25
    endloop
  endfacet
  facet normal -1 0 0
    outer loop
      vertex -21.2132 -21.2132 -25
      vertex -21.2132 21.2132 25
      vertex -21.2132 21.2132 -25
    endloop
  endfacet
  facet normal -1 -0 0
    outer loop
      vertex -21.2132 21.2132 25
      vertex -21.2132 -21.2132 -25
      vertex -21.2132 -21.2132 25
    endloop
  endfacet
  facet normal 0 1 -0
    outer loop
      vertex 21.2132 21.2132 -25
      vertex -21.2132 21.2132 25
      vertex 21.2132 21.2132 25
    endloop
  endfacet
  facet normal 0 1 0
    outer loop
      vertex -21.2132 21.2132 25
      vertex 21.2132 21.2132 -25
      vertex -21.2132 21.2132 -25
    endloop
  endfacet
  facet normal 1 -0 0
    outer loop
      vertex 21.2132 -21.2132 25
      vertex 21.2132 21.2132 -25
      vertex 21.2132 21.2132 25
    endloop
  endfacet
  facet normal 1 0 0
    outer loop
      vertex 21.2132 21.2132 -25
      vertex 21.2132 -21.2132 25
      vertex 21.2132 -21.2132 -25
    endloop
  endfacet
  facet normal 0 -1 0
    outer loop
      vertex -21.2132 -21.2132 -25
      vertex 21.2132 -21.2132 25
      vertex -21.2132 -21.2132 25
    endloop
  endfacet
  facet normal 0 -1 -0
    outer loop
      vertex 21.2132 -21.2132 25
      vertex -21.2132 -21.2132 -25
      vertex 21.2132 -21.2132 -25
    endloop
  endfacet
endsolid OpenSCAD_Model
