solid OpenSCAD_Model
  facet normal 1 -0 0
    outer loop
      vertex 10 -10 45
      vertex 10 10 25
      vertex 10 10 45
    endloop
  endfacet
  facet normal 1 0 0
    outer loop
      vertex 10 10 25
      vertex 10 -10 45
      vertex 10 -10 25
    endloop
  endfacet
  facet normal -0 0 1
    outer loop
      vertex -10 10 45
      vertex 10 -10 45
      vertex 10 10 45
    endloop
  endfacet
  facet normal 0 0 1
    outer loop
      vertex 10 -10 45
      vertex -10 10 45
      vertex -10 -10 45
    endloop
  endfacet
  facet normal 0 0 1
    outer loop
      vertex 24.2705 17.6335 25
      vertex 10 10 25
      vertex 24.2705 -17.6335 25
    endloop
  endfacet
  facet normal 0 0 1
    outer loop
      vertex -9.27051 28.5317 25
      vertex 10 10 25
      vertex 24.2705 17.6335 25
    endloop
  endfacet
  facet normal 0 0 1
    outer loop
      vertex -9.27051 28.5317 25
      vertex -10 10 25
      vertex 10 10 25
    endloop
  endfacet
  facet normal 0 0 1
    outer loop
      vertex -10 10 25
      vertex -30 0 25
      vertex -10 -10 25
    endloop
  endfacet
  facet normal 0 0 1
    outer loop
      vertex -30 0 25
      vertex -10 10 25
      vertex -9.27051 28.5317 25
    endloop
  endfacet
  facet normal -0 0 1
    outer loop
      vertex 10 -10 25
      vertex 24.2705 -17.6335 25
      vertex 10 10 25
    endloop
  endfacet
  facet normal 0 0 1
    outer loop
      vertex 10 -10 25
      vertex -9.27051 -28.5317 25
      vertex 24.2705 -17.6335 25
    endloop
  endfacet
  facet normal -0 0 1
    outer loop
      vertex -10 -10 25
      vertex -9.27051 -28.5317 25
      vertex 10 -10 25
    endloop
  endfacet
  facet normal 0 0 1
    outer loop
      vertex -9.27051 -28.5317 25
      vertex -10 -10 25
      vertex -30 0 25
    endloop
  endfacet
  facet normal -1 0 0
    outer loop
      vertex -10 -10 25
      vertex -10 10 45
      vertex -10 10 25
    endloop
  endfacet
  facet normal -1 -0 0
    outer loop
      vertex -10 10 45
      vertex -10 -10 25
      vertex -10 -10 45
    endloop
  endfacet
  facet normal 0 1 -0
    outer loop
      vertex 10 10 25
      vertex -10 10 45
      vertex 10 10 45
    endloop
  endfacet
  facet normal 0 1 0
    outer loop
      vertex -10 10 45
      vertex 10 10 25
      vertex -10 10 25
    endloop
  endfacet
  facet normal 0 -1 0
    outer loop
      vertex -10 -10 25
      vertex 10 -10 45
      vertex -10 -10 45
    endloop
  endfacet
  facet normal 0 -1 -0
    outer loop
      vertex 10 -10 45
      vertex -10 -10 25
      vertex 10 -10 25
    endloop
  endfacet
  facet normal -0.809017 -0.587785 0
    outer loop
      vertex -9.27051 -28.5317 -25
      vertex -30 0 25
      vertex -30 0 -25
    endloop
  endfacet
  facet normal -0.809017 -0.587785 0
    outer loop
      vertex -30 0 25
      vertex -9.27051 -28.5317 -25
      vertex -9.27051 -28.5317 25
    endloop
  endfacet
  facet normal 0.309019 0.951056 -0
    outer loop
      vertex 24.2705 17.6335 -25
      vertex -9.27051 28.5317 25
      vertex 24.2705 17.6335 25
    endloop
  endfacet
  facet normal 0.309019 0.951056 0
    outer loop
      vertex -9.27051 28.5317 25
      vertex 24.2705 17.6335 -25
      vertex -9.27051 28.5317 -25
    endloop
  endfacet
  facet normal 0.309019 -0.951056 0
    outer loop
      vertex -9.27051 -28.5317 -25
      vertex 24.2705 -17.6335 25
      vertex -9.27051 -28.5317 25
    endloop
  endfacet
  facet normal 0.309019 -0.951056 0
    outer loop
      vertex 24.2705 -17.6335 25
      vertex -9.27051 -28.5317 -25
      vertex 24.2705 -17.6335 -25
    endloop
  endfacet
  facet normal -0.809017 0.587785 0
    outer loop
      vertex -30 0 -25
      vertex -9.27051 28.5317 25
      vertex -9.27051 28.5317 -25
    endloop
  endfacet
  facet normal -0.809017 0.587785 0
    outer loop
      vertex -9.27051 28.5317 25
      vertex -30 0 -25
      vertex -30 0 25
    endloop
  endfacet
  facet normal 0 0 -1
    outer loop
      vertex -9.27051 -28.5317 -25
      vertex 24.2705 17.6335 -25
      vertex 24.2705 -17.6335 -25
    endloop
  endfacet
  facet normal 0 0 -1
    outer loop
      vertex -9.27051 -28.5317 -25
      vertex -9.27051 28.5317 -25
      vertex 24.2705 17.6335 -25
    endloop
  endfacet
  facet normal 0 -0 -1
    outer loop
      vertex -9.27051 28.5317 -25
      vertex -9.27051 -28.5317 -25
      vertex -30 0 -25
    endloop
  endfacet
  facet normal 1 -0 0
    outer loop
      vertex 24.2705 -17.6335 25
      vertex 24.2705 17.6335 -25
      vertex 24.2705 17.6335 25
    endloop
  endfacet
  facet normal 1 0 0
    outer loop
      vertex 24.2705 17.6335 -25
      vertex 24.2705 -17.6335 25
      vertex 24.2705 -17.6335 -25
    endloop
  endfacet
endsolid OpenSCAD_Model
