solid OpenSCAD_Model
  facet normal 1 -0 0
    outer loop
      vertex 10 -10 45
      vertex 10 10 25
      vertex 10 10 45
    endloop
  endfacet
  facet normal 1 0 0
    outer loop
      vertex 10 10 25
      vertex 10 -10 45
      vertex 10 -10 25
    endloop
  endfacet
  facet normal -0 0 1
    outer loop
      vertex -10 10 45
      vertex 10 -10 45
      vertex 10 10 45
    endloop
  endfacet
  facet normal 0 0 1
    outer loop
      vertex 10 -10 45
      vertex -10 10 45
      vertex -10 -10 45
    endloop
  endfacet
  facet normal 0 0 1
    outer loop
      vertex 25.9808 15 25
      vertex 10 10 25
      vertex 25.9808 -15 25
    endloop
  endfacet
  facet normal 0 0 1
    outer loop
      vertex 0 30 25
      vertex 10 10 25
      vertex 25.9808 15 25
    endloop
  endfacet
  facet normal 0 0 1
    outer loop
      vertex 0 30 25
      vertex -10 10 25
      vertex 10 10 25
    endloop
  endfacet
  facet normal 0 0 1
    outer loop
      vertex -10 10 25
      vertex -25.9808 15 25
      vertex -10 -10 25
    endloop
  endfacet
  facet normal -0 0 1
    outer loop
      vertex -25.9808 15 25
      vertex -10 10 25
      vertex 0 30 25
    endloop
  endfacet
  facet normal -0 0 1
    outer loop
      vertex 10 -10 25
      vertex 25.9808 -15 25
      vertex 10 10 25
    endloop
  endfacet
  facet normal 0 0 1
    outer loop
      vertex 10 -10 25
      vertex 0 -30 25
      vertex 25.9808 -15 25
    endloop
  endfacet
  facet normal -0 0 1
    outer loop
      vertex -10 -10 25
      vertex 0 -30 25
      vertex 10 -10 25
    endloop
  endfacet
  facet normal 0 0 1
    outer loop
      vertex -25.9808 -15 25
      vertex -10 -10 25
      vertex -25.9808 15 25
    endloop
  endfacet
  facet normal 0 0 1
    outer loop
      vertex -10 -10 25
      vertex -25.9808 -15 25
      vertex 0 -30 25
    endloop
  endfacet
  facet normal -1 0 0
    outer loop
      vertex -10 -10 25
      vertex -10 10 45
      vertex -10 10 25
    endloop
  endfacet
  facet normal -1 -0 0
    outer loop
      vertex -10 10 45
      vertex -10 -10 25
      vertex -10 -10 45
    endloop
  endfacet
  facet normal 0 1 -0
    outer loop
      vertex 10 10 25
      vertex -10 10 45
      vertex 10 10 45
    endloop
  endfacet
  facet normal 0 1 0
    outer loop
      vertex -10 10 45
      vertex 10 10 25
      vertex -10 10 25
    endloop
  endfacet
  facet normal 0 -1 0
    outer loop
      vertex -10 -10 25
      vertex 10 -10 45
      vertex -10 -10 45
    endloop
  endfacet
  facet normal 0 -1 -0
    outer loop
      vertex 10 -10 45
      vertex -10 -10 25
      vertex 10 -10 25
    endloop
  endfacet
  facet normal 0 0 -1
    outer loop
      vertex 0 -30 -25
      vertex 25.9808 15 -25
      vertex 25.9808 -15 -25
    endloop
  endfacet
  facet normal 0 0 -1
    outer loop
      vertex 0 -30 -25
      vertex 0 30 -25
      vertex 25.9808 15 -25
    endloop
  endfacet
  facet normal 0 0 -1
    outer loop
      vertex -25.9808 -15 -25
      vertex 0 30 -25
      vertex 0 -30 -25
    endloop
  endfacet
  facet normal 0 0 -1
    outer loop
      vertex 0 30 -25
      vertex -25.9808 -15 -25
      vertex -25.9808 15 -25
    endloop
  endfacet
  facet normal 0.499999 0.866026 -0
    outer loop
      vertex 25.9808 15 -25
      vertex 0 30 25
      vertex 25.9808 15 25
    endloop
  endfacet
  facet normal 0.499999 0.866026 0
    outer loop
      vertex 0 30 25
      vertex 25.9808 15 -25
      vertex 0 30 -25
    endloop
  endfacet
  facet normal -0.499999 0.866026 0
    outer loop
      vertex 0 30 -25
      vertex -25.9808 15 25
      vertex 0 30 25
    endloop
  endfacet
  facet normal -0.499999 0.866026 0
    outer loop
      vertex -25.9808 15 25
      vertex 0 30 -25
      vertex -25.9808 15 -25
    endloop
  endfacet
  facet normal -1 0 0
    outer loop
      vertex -25.9808 -15 -25
      vertex -25.9808 15 25
      vertex -25.9808 15 -25
    endloop
  endfacet
  facet normal -1 -0 0
    outer loop
      vertex -25.9808 15 25
      vertex -25.9808 -15 -25
      vertex -25.9808 -15 25
    endloop
  endfacet
  facet normal -0.499999 -0.866026 0
    outer loop
      vertex -25.9808 -15 -25
      vertex 0 -30 25
      vertex -25.9808 -15 25
    endloop
  endfacet
  facet normal -0.499999 -0.866026 -0
    outer loop
      vertex 0 -30 25
      vertex -25.9808 -15 -25
      vertex 0 -30 -25
    endloop
  endfacet
  facet normal 0.499999 -0.866026 0
    outer loop
      vertex 0 -30 -25
      vertex 25.9808 -15 25
      vertex 0 -30 25
    endloop
  endfacet
  facet normal 0.499999 -0.866026 0
    outer loop
      vertex 25.9808 -15 25
      vertex 0 -30 -25
      vertex 25.9808 -15 -25
    endloop
  endfacet
  facet normal 1 -0 0
    outer loop
      vertex 25.9808 -15 25
      vertex 25.9808 15 -25
      vertex 25.9808 15 25
    endloop
  endfacet
  facet normal 1 0 0
    outer loop
      vertex 25.9808 15 -25
      vertex 25.9808 -15 25
      vertex 25.9808 -15 -25
    endloop
  endfacet
endsolid OpenSCAD_Model
