solid OpenSCAD_Model
  facet normal 1 -0 0
    outer loop
      vertex 10 -10 45
      vertex 10 10 25
      vertex 10 10 45
    endloop
  endfacet
  facet normal 1 0 0
    outer loop
      vertex 10 10 25
      vertex 10 -10 45
      vertex 10 -10 25
    endloop
  endfacet
  facet normal -0 0 1
    outer loop
      vertex -10 10 45
      vertex 10 -10 45
      vertex 10 10 45
    endloop
  endfacet
  facet normal 0 0 1
    outer loop
      vertex 10 -10 45
      vertex -10 10 45
      vertex -10 -10 45
    endloop
  endfacet
  facet normal 0 0 1
    outer loop
      vertex 27.0291 13.0165 25
      vertex 10 10 25
      vertex 27.0291 -13.0165 25
    endloop
  endfacet
  facet normal 0 0 1
    outer loop
      vertex 6.67561 29.2478 25
      vertex 10 10 25
      vertex 27.0291 13.0165 25
    endloop
  endfacet
  facet normal 0 0 1
    outer loop
      vertex 6.67561 29.2478 25
      vertex -10 10 25
      vertex 10 10 25
    endloop
  endfacet
  facet normal 0 0 1
    outer loop
      vertex -30 0 25
      vertex -10 10 25
      vertex -18.7047 23.4549 25
    endloop
  endfacet
  facet normal -0 0 1
    outer loop
      vertex -18.7047 23.4549 25
      vertex -10 10 25
      vertex 6.67561 29.2478 25
    endloop
  endfacet
  facet normal -0 0 1
    outer loop
      vertex 10 -10 25
      vertex 27.0291 -13.0165 25
      vertex 10 10 25
    endloop
  endfacet
  facet normal 0 0 1
    outer loop
      vertex 10 -10 25
      vertex 6.67561 -29.2478 25
      vertex 27.0291 -13.0165 25
    endloop
  endfacet
  facet normal -0 0 1
    outer loop
      vertex -10 -10 25
      vertex 6.67561 -29.2478 25
      vertex 10 -10 25
    endloop
  endfacet
  facet normal 0 0 1
    outer loop
      vertex -10 -10 25
      vertex -18.7047 -23.4549 25
      vertex 6.67561 -29.2478 25
    endloop
  endfacet
  facet normal 0 0 1
    outer loop
      vertex -10 10 25
      vertex -30 0 25
      vertex -10 -10 25
    endloop
  endfacet
  facet normal 0 0 1
    outer loop
      vertex -10 -10 25
      vertex -30 0 25
      vertex -18.7047 -23.4549 25
    endloop
  endfacet
  facet normal -1 0 0
    outer loop
      vertex -10 -10 25
      vertex -10 10 45
      vertex -10 10 25
    endloop
  endfacet
  facet normal -1 -0 0
    outer loop
      vertex -10 10 45
      vertex -10 -10 25
      vertex -10 -10 45
    endloop
  endfacet
  facet normal 0 1 -0
    outer loop
      vertex 10 10 25
      vertex -10 10 45
      vertex 10 10 45
    endloop
  endfacet
  facet normal 0 1 0
    outer loop
      vertex -10 10 45
      vertex 10 10 25
      vertex -10 10 25
    endloop
  endfacet
  facet normal 0 -1 0
    outer loop
      vertex -10 -10 25
      vertex 10 -10 45
      vertex -10 -10 45
    endloop
  endfacet
  facet normal 0 -1 -0
    outer loop
      vertex 10 -10 45
      vertex -10 -10 25
      vertex 10 -10 25
    endloop
  endfacet
  facet normal -0.900969 0.433884 0
    outer loop
      vertex -30 0 -25
      vertex -18.7047 23.4549 25
      vertex -18.7047 23.4549 -25
    endloop
  endfacet
  facet normal -0.900969 0.433884 0
    outer loop
      vertex -18.7047 23.4549 25
      vertex -30 0 -25
      vertex -30 0 25
    endloop
  endfacet
  facet normal 0.623488 0.781833 -0
    outer loop
      vertex 27.0291 13.0165 -25
      vertex 6.67561 29.2478 25
      vertex 27.0291 13.0165 25
    endloop
  endfacet
  facet normal 0.623488 0.781833 0
    outer loop
      vertex 6.67561 29.2478 25
      vertex 27.0291 13.0165 -25
      vertex 6.67561 29.2478 -25
    endloop
  endfacet
  facet normal -0.222521 -0.974928 0
    outer loop
      vertex -18.7047 -23.4549 -25
      vertex 6.67561 -29.2478 25
      vertex -18.7047 -23.4549 25
    endloop
  endfacet
  facet normal -0.222521 -0.974928 -0
    outer loop
      vertex 6.67561 -29.2478 25
      vertex -18.7047 -23.4549 -25
      vertex 6.67561 -29.2478 -25
    endloop
  endfacet
  facet normal 0 0 -1
    outer loop
      vertex 6.67561 -29.2478 -25
      vertex 27.0291 13.0165 -25
      vertex 27.0291 -13.0165 -25
    endloop
  endfacet
  facet normal 0 0 -1
    outer loop
      vertex 6.67561 -29.2478 -25
      vertex 6.67561 29.2478 -25
      vertex 27.0291 13.0165 -25
    endloop
  endfacet
  facet normal 0 0 -1
    outer loop
      vertex -18.7047 -23.4549 -25
      vertex 6.67561 29.2478 -25
      vertex 6.67561 -29.2478 -25
    endloop
  endfacet
  facet normal 0 0 -1
    outer loop
      vertex -18.7047 -23.4549 -25
      vertex -18.7047 23.4549 -25
      vertex 6.67561 29.2478 -25
    endloop
  endfacet
  facet normal 0 -0 -1
    outer loop
      vertex -18.7047 23.4549 -25
      vertex -18.7047 -23.4549 -25
      vertex -30 0 -25
    endloop
  endfacet
  facet normal -0.222521 0.974928 0
    outer loop
      vertex 6.67561 29.2478 -25
      vertex -18.7047 23.4549 25
      vertex 6.67561 29.2478 25
    endloop
  endfacet
  facet normal -0.222521 0.974928 0
    outer loop
      vertex -18.7047 23.4549 25
      vertex 6.67561 29.2478 -25
      vertex -18.7047 23.4549 -25
    endloop
  endfacet
  facet normal -0.900969 -0.433884 0
    outer loop
      vertex -18.7047 -23.4549 -25
      vertex -30 0 25
      vertex -30 0 -25
    endloop
  endfacet
  facet normal -0.900969 -0.433884 0
    outer loop
      vertex -30 0 25
      vertex -18.7047 -23.4549 -25
      vertex -18.7047 -23.4549 25
    endloop
  endfacet
  facet normal 0.623488 -0.781833 0
    outer loop
      vertex 6.67561 -29.2478 -25
      vertex 27.0291 -13.0165 25
      vertex 6.67561 -29.2478 25
    endloop
  endfacet
  facet normal 0.623488 -0.781833 0
    outer loop
      vertex 27.0291 -13.0165 25
      vertex 6.67561 -29.2478 -25
      vertex 27.0291 -13.0165 -25
    endloop
  endfacet
  facet normal 1 -0 0
    outer loop
      vertex 27.0291 -13.0165 25
      vertex 27.0291 13.0165 -25
      vertex 27.0291 13.0165 25
    endloop
  endfacet
  facet normal 1 0 0
    outer loop
      vertex 27.0291 13.0165 -25
      vertex 27.0291 -13.0165 25
      vertex 27.0291 -13.0165 -25
    endloop
  endfacet
endsolid OpenSCAD_Model
