solid OpenSCAD_Model
  facet normal 0 0 -1
    outer loop
      vertex 17.3205 10 -50
      vertex -17.3205 10 -50
      vertex 0 20 -50
    endloop
  endfacet
  facet normal 0 0 -1
    outer loop
      vertex 17.3205 -10 -50
      vertex -17.3205 -10 -50
      vertex -17.3205 10 -50
    endloop
  endfacet
  facet normal 0 0 -1
    outer loop
      vertex 17.3205 -10 -50
      vertex -17.3205 10 -50
      vertex 17.3205 10 -50
    endloop
  endfacet
  facet normal -0 0 -1
    outer loop
      vertex 17.3205 -10 -50
      vertex 0 -20 -50
      vertex -17.3205 -10 -50
    endloop
  endfacet
  facet normal 0 0 1
    outer loop
      vertex 0 20 50
      vertex -17.3205 10 50
      vertex 17.3205 10 50
    endloop
  endfacet
  facet normal 0 0 1
    outer loop
      vertex -17.3205 10 50
      vertex -17.3205 -10 50
      vertex 17.3205 -10 50
    endloop
  endfacet
  facet normal 0 0 1
    outer loop
      vertex 17.3205 10 50
      vertex -17.3205 10 50
      vertex 17.3205 -10 50
    endloop
  endfacet
  facet normal -0 0 1
    outer loop
      vertex -17.3205 -10 50
      vertex 0 -20 50
      vertex 17.3205 -10 50
    endloop
  endfacet
  facet normal 1 0 0
    outer loop
      vertex 17.3205 10 -50
      vertex 17.3205 -10 50
      vertex 17.3205 -10 -50
    endloop
  endfacet
  facet normal 1 0 -0
    outer loop
      vertex 17.3205 10 -50
      vertex 17.3205 10 50
      vertex 17.3205 -10 50
    endloop
  endfacet
  facet normal 0.5 0.866025 0
    outer loop
      vertex 0 20 -50
      vertex 17.3205 10 50
      vertex 17.3205 10 -50
    endloop
  endfacet
  facet normal 0.5 0.866025 -0
    outer loop
      vertex 0 20 -50
      vertex 0 20 50
      vertex 17.3205 10 50
    endloop
  endfacet
  facet normal -0.5 0.866025 0
    outer loop
      vertex -17.3205 10 -50
      vertex 0 20 50
      vertex 0 20 -50
    endloop
  endfacet
  facet normal -0.5 0.866025 0
    outer loop
      vertex -17.3205 10 -50
      vertex -17.3205 10 50
      vertex 0 20 50
    endloop
  endfacet
  facet normal -1 0 0
    outer loop
      vertex -17.3205 -10 -50
      vertex -17.3205 10 50
      vertex -17.3205 10 -50
    endloop
  endfacet
  facet normal -1 0 0
    outer loop
      vertex -17.3205 -10 -50
      vertex -17.3205 -10 50
      vertex -17.3205 10 50
    endloop
  endfacet
  facet normal -0.5 -0.866025 0
    outer loop
      vertex 0 -20 -50
      vertex -17.3205 -10 50
      vertex -17.3205 -10 -50
    endloop
  endfacet
  facet normal -0.5 -0.866025 0
    outer loop
      vertex 0 -20 -50
      vertex 0 -20 50
      vertex -17.3205 -10 50
    endloop
  endfacet
  facet normal 0.5 -0.866025 0
    outer loop
      vertex 17.3205 -10 -50
      vertex 0 -20 50
      vertex 0 -20 -50
    endloop
  endfacet
  facet normal 0.5 -0.866025 0
    outer loop
      vertex 17.3205 -10 -50
      vertex 17.3205 -10 50
      vertex 0 -20 50
    endloop
  endfacet
endsolid OpenSCAD_Model
