solid OpenSCAD_Model
  facet normal 1 0 0
    outer loop
      vertex 5 5 21
      vertex 5 2.82627 6
      vertex 5 5 6
    endloop
  endfacet
  facet normal 1 0 0
    outer loop
      vertex 5 5 21
      vertex 5 -2.82627 6
      vertex 5 2.82627 6
    endloop
  endfacet
  facet normal 1 -0 0
    outer loop
      vertex 5 -5 21
      vertex 5 -2.82627 6
      vertex 5 5 21
    endloop
  endfacet
  facet normal 1 0 0
    outer loop
      vertex 5 -2.82627 6
      vertex 5 -5 21
      vertex 5 -5 6
    endloop
  endfacet
  facet normal -0 0 1
    outer loop
      vertex -5 5 21
      vertex 5 -5 21
      vertex 5 5 21
    endloop
  endfacet
  facet normal 0 0 1
    outer loop
      vertex 5 -5 21
      vertex -5 5 21
      vertex -5 -5 21
    endloop
  endfacet
  facet normal 0 0 -1
    outer loop
      vertex 3.5267 4.8541 6
      vertex 5 5 6
      vertex 5 2.82627 6
    endloop
  endfacet
  facet normal -0 0 -1
    outer loop
      vertex 5 5 6
      vertex 3.5267 4.8541 6
      vertex 3.07766 5 6
    endloop
  endfacet
  facet normal 0 0 -1
    outer loop
      vertex 5 -5 6
      vertex 3.5267 -4.8541 6
      vertex 5 -2.82627 6
    endloop
  endfacet
  facet normal 0 -0 -1
    outer loop
      vertex 3.5267 -4.8541 6
      vertex 5 -5 6
      vertex 3.07766 -5 6
    endloop
  endfacet
  facet normal 0 0 -1
    outer loop
      vertex -5 -5 6
      vertex -3.5267 -4.8541 6
      vertex -3.07766 -5 6
    endloop
  endfacet
  facet normal -0 0 -1
    outer loop
      vertex -3.5267 -4.8541 6
      vertex -5 -5 6
      vertex -5 -2.82627 6
    endloop
  endfacet
  facet normal 0 0 -1
    outer loop
      vertex -3.5267 4.8541 6
      vertex -5 5 6
      vertex -3.07766 5 6
    endloop
  endfacet
  facet normal 0 0 -1
    outer loop
      vertex -5 5 6
      vertex -3.5267 4.8541 6
      vertex -5 2.82627 6
    endloop
  endfacet
  facet normal -0 0 1
    outer loop
      vertex -5.70633 1.8541 6
      vertex -5 -2.82627 6
      vertex -5 2.82627 6
    endloop
  endfacet
  facet normal 0 0 1
    outer loop
      vertex -5 -2.82627 6
      vertex -5.70633 1.8541 6
      vertex -5.70633 -1.8541 6
    endloop
  endfacet
  facet normal 0 0 1
    outer loop
      vertex 5 2.82627 6
      vertex 5.70633 -1.8541 6
      vertex 5.70633 1.8541 6
    endloop
  endfacet
  facet normal 0 0 1
    outer loop
      vertex 5.70633 -1.8541 6
      vertex 5 2.82627 6
      vertex 5 -2.82627 6
    endloop
  endfacet
  facet normal 0 -0 1
    outer loop
      vertex 0 -6 6
      vertex 3.07766 -5 6
      vertex -3.07766 -5 6
    endloop
  endfacet
  facet normal 0 0 1
    outer loop
      vertex 3.07766 5 6
      vertex 0 6 6
      vertex -3.07766 5 6
    endloop
  endfacet
  facet normal -1 0 0
    outer loop
      vertex -5 2.82627 6
      vertex -5 5 21
      vertex -5 5 6
    endloop
  endfacet
  facet normal -1 0 0
    outer loop
      vertex -5 -2.82627 6
      vertex -5 5 21
      vertex -5 2.82627 6
    endloop
  endfacet
  facet normal -1 0 0
    outer loop
      vertex -5 -5 21
      vertex -5 -2.82627 6
      vertex -5 -5 6
    endloop
  endfacet
  facet normal -1 0 0
    outer loop
      vertex -5 -2.82627 6
      vertex -5 -5 21
      vertex -5 5 21
    endloop
  endfacet
  facet normal 0 1 0
    outer loop
      vertex 3.07766 5 6
      vertex 5 5 21
      vertex 5 5 6
    endloop
  endfacet
  facet normal 0 1 0
    outer loop
      vertex 5 5 21
      vertex 3.07766 5 6
      vertex -5 5 21
    endloop
  endfacet
  facet normal 0 1 -0
    outer loop
      vertex -3.07766 5 6
      vertex -5 5 21
      vertex 3.07766 5 6
    endloop
  endfacet
  facet normal 0 1 0
    outer loop
      vertex -5 5 21
      vertex -3.07766 5 6
      vertex -5 5 6
    endloop
  endfacet
  facet normal 0 -1 0
    outer loop
      vertex -3.07766 -5 6
      vertex -5 -5 21
      vertex -5 -5 6
    endloop
  endfacet
  facet normal 0 -1 0
    outer loop
      vertex -5 -5 21
      vertex -3.07766 -5 6
      vertex 5 -5 21
    endloop
  endfacet
  facet normal 0 -1 0
    outer loop
      vertex 3.07766 -5 6
      vertex 5 -5 21
      vertex -3.07766 -5 6
    endloop
  endfacet
  facet normal 0 -1 -0
    outer loop
      vertex 5 -5 21
      vertex 3.07766 -5 6
      vertex 5 -5 6
    endloop
  endfacet
  facet normal 0.309013 0.951058 -0
    outer loop
      vertex 3.5267 4.8541 -6
      vertex 3.07766 5 6
      vertex 3.5267 4.8541 6
    endloop
  endfacet
  facet normal 0.309018 0.951056 2.11379e-07
    outer loop
      vertex 0 6 -6
      vertex 3.07766 5 6
      vertex 3.5267 4.8541 -6
    endloop
  endfacet
  facet normal 0.309019 0.951056 0
    outer loop
      vertex 3.07766 5 6
      vertex 0 6 -6
      vertex 0 6 6
    endloop
  endfacet
  facet normal -0.809018 0.587784 0
    outer loop
      vertex -3.5267 4.8541 -6
      vertex -5 2.82627 6
      vertex -3.5267 4.8541 6
    endloop
  endfacet
  facet normal -0.809017 0.587786 4.29293e-07
    outer loop
      vertex -5.70633 1.8541 -6
      vertex -5 2.82627 6
      vertex -3.5267 4.8541 -6
    endloop
  endfacet
  facet normal -0.809014 0.587789 0
    outer loop
      vertex -5 2.82627 6
      vertex -5.70633 1.8541 -6
      vertex -5.70633 1.8541 6
    endloop
  endfacet
  facet normal 0.809014 -0.587789 0
    outer loop
      vertex 5 -2.82627 6
      vertex 5.70633 -1.8541 -6
      vertex 5.70633 -1.8541 6
    endloop
  endfacet
  facet normal 0.809018 -0.587784 0
    outer loop
      vertex 3.5267 -4.8541 -6
      vertex 5 -2.82627 6
      vertex 3.5267 -4.8541 6
    endloop
  endfacet
  facet normal 0.809017 -0.587786 4.29293e-07
    outer loop
      vertex 5 -2.82627 6
      vertex 3.5267 -4.8541 -6
      vertex 5.70633 -1.8541 -6
    endloop
  endfacet
  facet normal -0.309019 0.951056 0
    outer loop
      vertex 0 6 -6
      vertex -3.07766 5 6
      vertex 0 6 6
    endloop
  endfacet
  facet normal -0.309018 0.951056 2.11379e-07
    outer loop
      vertex -3.5267 4.8541 -6
      vertex -3.07766 5 6
      vertex 0 6 -6
    endloop
  endfacet
  facet normal -0.309013 0.951058 0
    outer loop
      vertex -3.07766 5 6
      vertex -3.5267 4.8541 -6
      vertex -3.5267 4.8541 6
    endloop
  endfacet
  facet normal -0.309013 -0.951058 0
    outer loop
      vertex -3.5267 -4.8541 -6
      vertex -3.07766 -5 6
      vertex -3.5267 -4.8541 6
    endloop
  endfacet
  facet normal -0.309018 -0.951056 2.11379e-07
    outer loop
      vertex 0 -6 -6
      vertex -3.07766 -5 6
      vertex -3.5267 -4.8541 -6
    endloop
  endfacet
  facet normal -0.309019 -0.951056 0
    outer loop
      vertex -3.07766 -5 6
      vertex 0 -6 -6
      vertex 0 -6 6
    endloop
  endfacet
  facet normal -1 0 0
    outer loop
      vertex -5.70633 -1.8541 -6
      vertex -5.70633 1.8541 6
      vertex -5.70633 1.8541 -6
    endloop
  endfacet
  facet normal -1 -0 0
    outer loop
      vertex -5.70633 1.8541 6
      vertex -5.70633 -1.8541 -6
      vertex -5.70633 -1.8541 6
    endloop
  endfacet
  facet normal -0.809014 -0.587789 0
    outer loop
      vertex -5.70633 -1.8541 -6
      vertex -5 -2.82627 6
      vertex -5.70633 -1.8541 6
    endloop
  endfacet
  facet normal -0.809017 -0.587786 4.29293e-07
    outer loop
      vertex -3.5267 -4.8541 -6
      vertex -5 -2.82627 6
      vertex -5.70633 -1.8541 -6
    endloop
  endfacet
  facet normal -0.809018 -0.587784 0
    outer loop
      vertex -5 -2.82627 6
      vertex -3.5267 -4.8541 -6
      vertex -3.5267 -4.8541 6
    endloop
  endfacet
  facet normal 0.809018 0.587784 0
    outer loop
      vertex 5 2.82627 6
      vertex 3.5267 4.8541 -6
      vertex 3.5267 4.8541 6
    endloop
  endfacet
  facet normal 0.809014 0.587789 -0
    outer loop
      vertex 5.70633 1.8541 -6
      vertex 5 2.82627 6
      vertex 5.70633 1.8541 6
    endloop
  endfacet
  facet normal 0.809017 0.587786 4.29293e-07
    outer loop
      vertex 5 2.82627 6
      vertex 5.70633 1.8541 -6
      vertex 3.5267 4.8541 -6
    endloop
  endfacet
  facet normal 0.309019 -0.951056 0
    outer loop
      vertex 0 -6 -6
      vertex 3.07766 -5 6
      vertex 0 -6 6
    endloop
  endfacet
  facet normal 0.309018 -0.951056 2.11379e-07
    outer loop
      vertex 3.5267 -4.8541 -6
      vertex 3.07766 -5 6
      vertex 0 -6 -6
    endloop
  endfacet
  facet normal 0.309013 -0.951058 0
    outer loop
      vertex 3.07766 -5 6
      vertex 3.5267 -4.8541 -6
      vertex 3.5267 -4.8541 6
    endloop
  endfacet
  facet normal 1 -0 0
    outer loop
      vertex 5.70633 -1.8541 6
      vertex 5.70633 1.8541 -6
      vertex 5.70633 1.8541 6
    endloop
  endfacet
  facet normal 1 0 0
    outer loop
      vertex 5.70633 1.8541 -6
      vertex 5.70633 -1.8541 6
      vertex 5.70633 -1.8541 -6
    endloop
  endfacet
  facet normal 0 0 -1
    outer loop
      vertex 3.5267 -4.8541 -6
      vertex 5.70633 1.8541 -6
      vertex 5.70633 -1.8541 -6
    endloop
  endfacet
  facet normal 0 0 -1
    outer loop
      vertex 3.5267 -4.8541 -6
      vertex 3.5267 4.8541 -6
      vertex 5.70633 1.8541 -6
    endloop
  endfacet
  facet normal 0 0 -1
    outer loop
      vertex 0 -6 -6
      vertex 3.5267 4.8541 -6
      vertex 3.5267 -4.8541 -6
    endloop
  endfacet
  facet normal 0 0 -1
    outer loop
      vertex 0 -6 -6
      vertex 0 6 -6
      vertex 3.5267 4.8541 -6
    endloop
  endfacet
  facet normal 0 0 -1
    outer loop
      vertex -3.5267 -4.8541 -6
      vertex 0 6 -6
      vertex 0 -6 -6
    endloop
  endfacet
  facet normal 0 0 -1
    outer loop
      vertex -3.5267 -4.8541 -6
      vertex -3.5267 4.8541 -6
      vertex 0 6 -6
    endloop
  endfacet
  facet normal 0 0 -1
    outer loop
      vertex -5.70633 -1.8541 -6
      vertex -3.5267 4.8541 -6
      vertex -3.5267 -4.8541 -6
    endloop
  endfacet
  facet normal 0 0 -1
    outer loop
      vertex -3.5267 4.8541 -6
      vertex -5.70633 -1.8541 -6
      vertex -5.70633 1.8541 -6
    endloop
  endfacet
endsolid OpenSCAD_Model
