solid OpenSCAD_Model
  facet normal 1 -0 0
    outer loop
      vertex 5 -5 21
      vertex 5 5 6
      vertex 5 5 21
    endloop
  endfacet
  facet normal 1 0 0
    outer loop
      vertex 5 5 6
      vertex 5 -5 21
      vertex 5 -5 6
    endloop
  endfacet
  facet normal -0 0 1
    outer loop
      vertex -5 5 21
      vertex 5 -5 21
      vertex 5 5 21
    endloop
  endfacet
  facet normal 0 0 1
    outer loop
      vertex 5 -5 21
      vertex -5 5 21
      vertex -5 -5 21
    endloop
  endfacet
  facet normal 0 -0 1
    outer loop
      vertex -5 -0.57735 6
      vertex -5 0.57735 6
      vertex -6 0 6
    endloop
  endfacet
  facet normal 0 -0 1
    outer loop
      vertex 3 -5.19615 6
      vertex 3 -5 6
      vertex 2.66026 -5 6
    endloop
  endfacet
  facet normal 0 -0 1
    outer loop
      vertex 3 5 6
      vertex 3 5.19615 6
      vertex 2.66026 5 6
    endloop
  endfacet
  facet normal 0 0 -1
    outer loop
      vertex 3 -5 6
      vertex 5 5 6
      vertex 5 -5 6
    endloop
  endfacet
  facet normal -0 0 -1
    outer loop
      vertex 5 5 6
      vertex 3 -5 6
      vertex 3 5 6
    endloop
  endfacet
  facet normal 0 0 -1
    outer loop
      vertex 2.66026 -5 6
      vertex -5 -5 6
      vertex -5 -0.57735 6
    endloop
  endfacet
  facet normal -0 0 -1
    outer loop
      vertex 2.66026 5 6
      vertex -5 0.57735 6
      vertex -5 5 6
    endloop
  endfacet
  facet normal -1 0 0
    outer loop
      vertex -5 0.57735 6
      vertex -5 5 21
      vertex -5 5 6
    endloop
  endfacet
  facet normal -1 0 0
    outer loop
      vertex -5 -0.57735 6
      vertex -5 5 21
      vertex -5 0.57735 6
    endloop
  endfacet
  facet normal -1 0 0
    outer loop
      vertex -5 -5 21
      vertex -5 -0.57735 6
      vertex -5 -5 6
    endloop
  endfacet
  facet normal -1 0 0
    outer loop
      vertex -5 -0.57735 6
      vertex -5 -5 21
      vertex -5 5 21
    endloop
  endfacet
  facet normal 0 1 0
    outer loop
      vertex 3 5 6
      vertex 5 5 21
      vertex 5 5 6
    endloop
  endfacet
  facet normal 0 1 0
    outer loop
      vertex 2.66026 5 6
      vertex 5 5 21
      vertex 3 5 6
    endloop
  endfacet
  facet normal 0 1 0
    outer loop
      vertex 5 5 21
      vertex 2.66026 5 6
      vertex -5 5 21
    endloop
  endfacet
  facet normal 0 1 0
    outer loop
      vertex -5 5 21
      vertex 2.66026 5 6
      vertex -5 5 6
    endloop
  endfacet
  facet normal 0 -1 0
    outer loop
      vertex 2.66026 -5 6
      vertex -5 -5 21
      vertex -5 -5 6
    endloop
  endfacet
  facet normal 0 -1 0
    outer loop
      vertex -5 -5 21
      vertex 2.66026 -5 6
      vertex 5 -5 21
    endloop
  endfacet
  facet normal 0 -1 0
    outer loop
      vertex 3 -5 6
      vertex 5 -5 21
      vertex 2.66026 -5 6
    endloop
  endfacet
  facet normal 0 -1 -0
    outer loop
      vertex 5 -5 21
      vertex 3 -5 6
      vertex 5 -5 6
    endloop
  endfacet
  facet normal 0 0 -1
    outer loop
      vertex 3 -5.19615 -6
      vertex -6 0 -6
      vertex 3 5.19615 -6
    endloop
  endfacet
  facet normal -0.5 -0.866026 0
    outer loop
      vertex -6 0 -6
      vertex -5 -0.57735 6
      vertex -6 0 6
    endloop
  endfacet
  facet normal -0.5 -0.866026 0
    outer loop
      vertex 3 -5.19615 -6
      vertex -5 -0.57735 6
      vertex -6 0 -6
    endloop
  endfacet
  facet normal -0.5 -0.866026 8.37356e-08
    outer loop
      vertex -5 -0.57735 6
      vertex 3 -5.19615 -6
      vertex 2.66026 -5 6
    endloop
  endfacet
  facet normal -0.500002 -0.866024 0
    outer loop
      vertex 2.66026 -5 6
      vertex 3 -5.19615 -6
      vertex 3 -5.19615 6
    endloop
  endfacet
  facet normal 1 -0 0
    outer loop
      vertex 3 5 6
      vertex 3 5.19615 -6
      vertex 3 5.19615 6
    endloop
  endfacet
  facet normal 1 -0 0
    outer loop
      vertex 3 -5 6
      vertex 3 5.19615 -6
      vertex 3 5 6
    endloop
  endfacet
  facet normal 1 0 0
    outer loop
      vertex 3 -5.19615 -6
      vertex 3 -5 6
      vertex 3 -5.19615 6
    endloop
  endfacet
  facet normal 1 0 0
    outer loop
      vertex 3 -5 6
      vertex 3 -5.19615 -6
      vertex 3 5.19615 -6
    endloop
  endfacet
  facet normal -0.500002 0.866024 0
    outer loop
      vertex 3 5.19615 -6
      vertex 2.66026 5 6
      vertex 3 5.19615 6
    endloop
  endfacet
  facet normal -0.5 0.866026 8.37356e-08
    outer loop
      vertex 2.66026 5 6
      vertex 3 5.19615 -6
      vertex -5 0.57735 6
    endloop
  endfacet
  facet normal -0.5 0.866026 0
    outer loop
      vertex -6 0 -6
      vertex -5 0.57735 6
      vertex 3 5.19615 -6
    endloop
  endfacet
  facet normal -0.5 0.866026 0
    outer loop
      vertex -5 0.57735 6
      vertex -6 0 -6
      vertex -6 0 6
    endloop
  endfacet
endsolid OpenSCAD_Model
