solid OpenSCAD_Model
  facet normal 1 -0 0
    outer loop
      vertex 5 -5 21
      vertex 5 5 6
      vertex 5 5 21
    endloop
  endfacet
  facet normal 1 0 0
    outer loop
      vertex 5 5 6
      vertex 5 -5 21
      vertex 5 -5 6
    endloop
  endfacet
  facet normal -0 0 1
    outer loop
      vertex -5 5 21
      vertex 5 -5 21
      vertex 5 5 21
    endloop
  endfacet
  facet normal 0 0 1
    outer loop
      vertex 5 -5 21
      vertex -5 5 21
      vertex -5 -5 21
    endloop
  endfacet
  facet normal 0 0 -1
    outer loop
      vertex 5 -5 6
      vertex 4.24264 -4.24264 6
      vertex 5 5 6
    endloop
  endfacet
  facet normal 0 0 -1
    outer loop
      vertex 5 -5 6
      vertex -4.24264 -4.24264 6
      vertex 4.24264 -4.24264 6
    endloop
  endfacet
  facet normal -0 0 -1
    outer loop
      vertex -4.24264 -4.24264 6
      vertex -5 -5 6
      vertex -4.24264 4.24264 6
    endloop
  endfacet
  facet normal 0 0 -1
    outer loop
      vertex -5 -5 6
      vertex -4.24264 -4.24264 6
      vertex 5 -5 6
    endloop
  endfacet
  facet normal 0 0 -1
    outer loop
      vertex 4.24264 4.24264 6
      vertex 5 5 6
      vertex 4.24264 -4.24264 6
    endloop
  endfacet
  facet normal 0 0 -1
    outer loop
      vertex -4.24264 4.24264 6
      vertex 5 5 6
      vertex 4.24264 4.24264 6
    endloop
  endfacet
  facet normal 0 0 -1
    outer loop
      vertex -4.24264 4.24264 6
      vertex -5 5 6
      vertex 5 5 6
    endloop
  endfacet
  facet normal 0 0 -1
    outer loop
      vertex -5 5 6
      vertex -4.24264 4.24264 6
      vertex -5 -5 6
    endloop
  endfacet
  facet normal -1 0 0
    outer loop
      vertex -5 -5 6
      vertex -5 5 21
      vertex -5 5 6
    endloop
  endfacet
  facet normal -1 -0 0
    outer loop
      vertex -5 5 21
      vertex -5 -5 6
      vertex -5 -5 21
    endloop
  endfacet
  facet normal 0 1 -0
    outer loop
      vertex 5 5 6
      vertex -5 5 21
      vertex 5 5 21
    endloop
  endfacet
  facet normal 0 1 0
    outer loop
      vertex -5 5 21
      vertex 5 5 6
      vertex -5 5 6
    endloop
  endfacet
  facet normal 0 -1 0
    outer loop
      vertex -5 -5 6
      vertex 5 -5 21
      vertex -5 -5 21
    endloop
  endfacet
  facet normal 0 -1 -0
    outer loop
      vertex 5 -5 21
      vertex -5 -5 6
      vertex 5 -5 6
    endloop
  endfacet
  facet normal 0 0 -1
    outer loop
      vertex -4.24264 -4.24264 -6
      vertex 4.24264 4.24264 -6
      vertex 4.24264 -4.24264 -6
    endloop
  endfacet
  facet normal -0 0 -1
    outer loop
      vertex 4.24264 4.24264 -6
      vertex -4.24264 -4.24264 -6
      vertex -4.24264 4.24264 -6
    endloop
  endfacet
  facet normal -1 0 0
    outer loop
      vertex -4.24264 -4.24264 -6
      vertex -4.24264 4.24264 6
      vertex -4.24264 4.24264 -6
    endloop
  endfacet
  facet normal -1 -0 0
    outer loop
      vertex -4.24264 4.24264 6
      vertex -4.24264 -4.24264 -6
      vertex -4.24264 -4.24264 6
    endloop
  endfacet
  facet normal 0 1 -0
    outer loop
      vertex 4.24264 4.24264 -6
      vertex -4.24264 4.24264 6
      vertex 4.24264 4.24264 6
    endloop
  endfacet
  facet normal 0 1 0
    outer loop
      vertex -4.24264 4.24264 6
      vertex 4.24264 4.24264 -6
      vertex -4.24264 4.24264 -6
    endloop
  endfacet
  facet normal 1 -0 0
    outer loop
      vertex 4.24264 -4.24264 6
      vertex 4.24264 4.24264 -6
      vertex 4.24264 4.24264 6
    endloop
  endfacet
  facet normal 1 0 0
    outer loop
      vertex 4.24264 4.24264 -6
      vertex 4.24264 -4.24264 6
      vertex 4.24264 -4.24264 -6
    endloop
  endfacet
  facet normal 0 -1 0
    outer loop
      vertex -4.24264 -4.24264 -6
      vertex 4.24264 -4.24264 6
      vertex -4.24264 -4.24264 6
    endloop
  endfacet
  facet normal 0 -1 -0
    outer loop
      vertex 4.24264 -4.24264 6
      vertex -4.24264 -4.24264 -6
      vertex 4.24264 -4.24264 -6
    endloop
  endfacet
endsolid OpenSCAD_Model
