solid OpenSCAD_Model
  facet normal 1 -0 0
    outer loop
      vertex 5 -5 21
      vertex 5 5 6
      vertex 5 5 21
    endloop
  endfacet
  facet normal 1 0 0
    outer loop
      vertex 5 5 6
      vertex 5 -5 21
      vertex 5 -5 6
    endloop
  endfacet
  facet normal -0 0 1
    outer loop
      vertex -5 5 21
      vertex 5 -5 21
      vertex 5 5 21
    endloop
  endfacet
  facet normal 0 0 1
    outer loop
      vertex 5 -5 21
      vertex -5 5 21
      vertex -5 -5 21
    endloop
  endfacet
  facet normal 0 0 -1
    outer loop
      vertex 5 -5 6
      vertex 4.8541 -3.5267 6
      vertex 5 5 6
    endloop
  endfacet
  facet normal 0 -0 -1
    outer loop
      vertex 4.8541 -3.5267 6
      vertex 5 -5 6
      vertex 0.31976 -5 6
    endloop
  endfacet
  facet normal 0 0 -1
    outer loop
      vertex 4.8541 3.5267 6
      vertex 5 5 6
      vertex 4.8541 -3.5267 6
    endloop
  endfacet
  facet normal -0 0 -1
    outer loop
      vertex 5 5 6
      vertex 4.8541 3.5267 6
      vertex 0.31976 5 6
    endloop
  endfacet
  facet normal 0 0 -1
    outer loop
      vertex -2.36728 -5 6
      vertex -5 -5 6
      vertex -5 -1.37638 6
    endloop
  endfacet
  facet normal -0 0 -1
    outer loop
      vertex -2.36728 5 6
      vertex -5 1.37638 6
      vertex -5 5 6
    endloop
  endfacet
  facet normal 0 -0 1
    outer loop
      vertex -5 -1.37638 6
      vertex -5 1.37638 6
      vertex -6 0 6
    endloop
  endfacet
  facet normal 0 0 1
    outer loop
      vertex 0.31976 5 6
      vertex -1.8541 5.70633 6
      vertex -2.36728 5 6
    endloop
  endfacet
  facet normal 0 -0 1
    outer loop
      vertex -1.8541 -5.70633 6
      vertex 0.31976 -5 6
      vertex -2.36728 -5 6
    endloop
  endfacet
  facet normal -1 0 0
    outer loop
      vertex -5 1.37638 6
      vertex -5 5 21
      vertex -5 5 6
    endloop
  endfacet
  facet normal -1 0 0
    outer loop
      vertex -5 -1.37638 6
      vertex -5 5 21
      vertex -5 1.37638 6
    endloop
  endfacet
  facet normal -1 0 0
    outer loop
      vertex -5 -5 21
      vertex -5 -1.37638 6
      vertex -5 -5 6
    endloop
  endfacet
  facet normal -1 0 0
    outer loop
      vertex -5 -1.37638 6
      vertex -5 -5 21
      vertex -5 5 21
    endloop
  endfacet
  facet normal 0 1 0
    outer loop
      vertex 0.31976 5 6
      vertex 5 5 21
      vertex 5 5 6
    endloop
  endfacet
  facet normal 0 1 0
    outer loop
      vertex 5 5 21
      vertex 0.31976 5 6
      vertex -5 5 21
    endloop
  endfacet
  facet normal 0 1 -0
    outer loop
      vertex -2.36728 5 6
      vertex -5 5 21
      vertex 0.31976 5 6
    endloop
  endfacet
  facet normal 0 1 0
    outer loop
      vertex -5 5 21
      vertex -2.36728 5 6
      vertex -5 5 6
    endloop
  endfacet
  facet normal 0 -1 0
    outer loop
      vertex -2.36728 -5 6
      vertex -5 -5 21
      vertex -5 -5 6
    endloop
  endfacet
  facet normal 0 -1 0
    outer loop
      vertex 0.31976 -5 6
      vertex -5 -5 21
      vertex -2.36728 -5 6
    endloop
  endfacet
  facet normal 0 -1 0
    outer loop
      vertex -5 -5 21
      vertex 0.31976 -5 6
      vertex 5 -5 21
    endloop
  endfacet
  facet normal 0 -1 -0
    outer loop
      vertex 5 -5 21
      vertex 0.31976 -5 6
      vertex 5 -5 6
    endloop
  endfacet
  facet normal -0.809016 0.587786 0
    outer loop
      vertex -1.8541 5.70633 -6
      vertex -2.36728 5 6
      vertex -1.8541 5.70633 6
    endloop
  endfacet
  facet normal -0.809016 0.587786 -3.6094e-09
    outer loop
      vertex -1.8541 5.70633 -6
      vertex -5 1.37638 6
      vertex -2.36728 5 6
    endloop
  endfacet
  facet normal -0.809016 0.587786 -4.53917e-08
    outer loop
      vertex -6 0 -6
      vertex -5 1.37638 6
      vertex -1.8541 5.70633 -6
    endloop
  endfacet
  facet normal -0.809017 0.587786 0
    outer loop
      vertex -5 1.37638 6
      vertex -6 0 -6
      vertex -6 0 6
    endloop
  endfacet
  facet normal 0.309018 0.951056 -0
    outer loop
      vertex 4.8541 3.5267 -6
      vertex 0.31976 5 6
      vertex 4.8541 3.5267 6
    endloop
  endfacet
  facet normal 0.309017 0.951056 -8.93869e-08
    outer loop
      vertex -1.8541 5.70633 -6
      vertex 0.31976 5 6
      vertex 4.8541 3.5267 -6
    endloop
  endfacet
  facet normal 0.309017 0.951057 0
    outer loop
      vertex 0.31976 5 6
      vertex -1.8541 5.70633 -6
      vertex -1.8541 5.70633 6
    endloop
  endfacet
  facet normal 1 -0 0
    outer loop
      vertex 4.8541 -3.5267 6
      vertex 4.8541 3.5267 -6
      vertex 4.8541 3.5267 6
    endloop
  endfacet
  facet normal 1 0 0
    outer loop
      vertex 4.8541 3.5267 -6
      vertex 4.8541 -3.5267 6
      vertex 4.8541 -3.5267 -6
    endloop
  endfacet
  facet normal 0 0 -1
    outer loop
      vertex -1.8541 -5.70633 -6
      vertex 4.8541 3.5267 -6
      vertex 4.8541 -3.5267 -6
    endloop
  endfacet
  facet normal 0 0 -1
    outer loop
      vertex -1.8541 -5.70633 -6
      vertex -1.8541 5.70633 -6
      vertex 4.8541 3.5267 -6
    endloop
  endfacet
  facet normal 0 -0 -1
    outer loop
      vertex -1.8541 5.70633 -6
      vertex -1.8541 -5.70633 -6
      vertex -6 0 -6
    endloop
  endfacet
  facet normal -0.809017 -0.587786 0
    outer loop
      vertex -6 0 -6
      vertex -5 -1.37638 6
      vertex -6 0 6
    endloop
  endfacet
  facet normal -0.809016 -0.587786 -4.53917e-08
    outer loop
      vertex -1.8541 -5.70633 -6
      vertex -5 -1.37638 6
      vertex -6 0 -6
    endloop
  endfacet
  facet normal -0.809016 -0.587786 -3.6094e-09
    outer loop
      vertex -5 -1.37638 6
      vertex -1.8541 -5.70633 -6
      vertex -2.36728 -5 6
    endloop
  endfacet
  facet normal -0.809016 -0.587786 0
    outer loop
      vertex -2.36728 -5 6
      vertex -1.8541 -5.70633 -6
      vertex -1.8541 -5.70633 6
    endloop
  endfacet
  facet normal 0.309017 -0.951057 0
    outer loop
      vertex -1.8541 -5.70633 -6
      vertex 0.31976 -5 6
      vertex -1.8541 -5.70633 6
    endloop
  endfacet
  facet normal 0.309017 -0.951056 -8.93869e-08
    outer loop
      vertex 4.8541 -3.5267 -6
      vertex 0.31976 -5 6
      vertex -1.8541 -5.70633 -6
    endloop
  endfacet
  facet normal 0.309018 -0.951056 0
    outer loop
      vertex 0.31976 -5 6
      vertex 4.8541 -3.5267 -6
      vertex 4.8541 -3.5267 6
    endloop
  endfacet
endsolid OpenSCAD_Model
