solid OpenSCAD_Model
  facet normal 1 0 0
    outer loop
      vertex 5 5 21
      vertex 5 3.11325 6
      vertex 5 5 6
    endloop
  endfacet
  facet normal 1 0 0
    outer loop
      vertex 5 5 21
      vertex 5 -3.11325 6
      vertex 5 3.11325 6
    endloop
  endfacet
  facet normal 1 -0 0
    outer loop
      vertex 5 -5 21
      vertex 5 -3.11325 6
      vertex 5 5 21
    endloop
  endfacet
  facet normal 1 0 0
    outer loop
      vertex 5 -3.11325 6
      vertex 5 -5 21
      vertex 5 -5 6
    endloop
  endfacet
  facet normal -0 0 1
    outer loop
      vertex -5 5 21
      vertex 5 -5 21
      vertex 5 5 21
    endloop
  endfacet
  facet normal 0 0 1
    outer loop
      vertex 5 -5 21
      vertex -5 5 21
      vertex -5 -5 21
    endloop
  endfacet
  facet normal 0 0 -1
    outer loop
      vertex 5 3.11325 6
      vertex 1.73205 5 6
      vertex 5 5 6
    endloop
  endfacet
  facet normal 0 0 -1
    outer loop
      vertex 5 -5 6
      vertex 1.73205 -5 6
      vertex 5 -3.11325 6
    endloop
  endfacet
  facet normal 0 0 -1
    outer loop
      vertex -1.73205 -5 6
      vertex -5 -5 6
      vertex -5 -3.11325 6
    endloop
  endfacet
  facet normal -0 0 -1
    outer loop
      vertex -1.73205 5 6
      vertex -5 3.11325 6
      vertex -5 5 6
    endloop
  endfacet
  facet normal 0 -0 1
    outer loop
      vertex 0 -6 6
      vertex 1.73205 -5 6
      vertex -1.73205 -5 6
    endloop
  endfacet
  facet normal 0 0 1
    outer loop
      vertex 5 3.11325 6
      vertex 5.19615 -3 6
      vertex 5.19615 3 6
    endloop
  endfacet
  facet normal 0 0 1
    outer loop
      vertex 5.19615 -3 6
      vertex 5 3.11325 6
      vertex 5 -3.11325 6
    endloop
  endfacet
  facet normal -0 0 1
    outer loop
      vertex -5.19615 3 6
      vertex -5 -3.11325 6
      vertex -5 3.11325 6
    endloop
  endfacet
  facet normal 0 0 1
    outer loop
      vertex -5 -3.11325 6
      vertex -5.19615 3 6
      vertex -5.19615 -3 6
    endloop
  endfacet
  facet normal 0 0 1
    outer loop
      vertex 1.73205 5 6
      vertex 0 6 6
      vertex -1.73205 5 6
    endloop
  endfacet
  facet normal -1 0 0
    outer loop
      vertex -5 3.11325 6
      vertex -5 5 21
      vertex -5 5 6
    endloop
  endfacet
  facet normal -1 0 0
    outer loop
      vertex -5 -3.11325 6
      vertex -5 5 21
      vertex -5 3.11325 6
    endloop
  endfacet
  facet normal -1 0 0
    outer loop
      vertex -5 -5 21
      vertex -5 -3.11325 6
      vertex -5 -5 6
    endloop
  endfacet
  facet normal -1 0 0
    outer loop
      vertex -5 -3.11325 6
      vertex -5 -5 21
      vertex -5 5 21
    endloop
  endfacet
  facet normal 0 1 0
    outer loop
      vertex 1.73205 5 6
      vertex 5 5 21
      vertex 5 5 6
    endloop
  endfacet
  facet normal 0 1 0
    outer loop
      vertex 5 5 21
      vertex 1.73205 5 6
      vertex -5 5 21
    endloop
  endfacet
  facet normal 0 1 -0
    outer loop
      vertex -1.73205 5 6
      vertex -5 5 21
      vertex 1.73205 5 6
    endloop
  endfacet
  facet normal 0 1 0
    outer loop
      vertex -5 5 21
      vertex -1.73205 5 6
      vertex -5 5 6
    endloop
  endfacet
  facet normal 0 -1 0
    outer loop
      vertex -1.73205 -5 6
      vertex -5 -5 21
      vertex -5 -5 6
    endloop
  endfacet
  facet normal 0 -1 0
    outer loop
      vertex -5 -5 21
      vertex -1.73205 -5 6
      vertex 5 -5 21
    endloop
  endfacet
  facet normal 0 -1 0
    outer loop
      vertex 1.73205 -5 6
      vertex 5 -5 21
      vertex -1.73205 -5 6
    endloop
  endfacet
  facet normal 0 -1 -0
    outer loop
      vertex 5 -5 21
      vertex 1.73205 -5 6
      vertex 5 -5 6
    endloop
  endfacet
  facet normal 0 0 -1
    outer loop
      vertex 0 -6 -6
      vertex 5.19615 3 -6
      vertex 5.19615 -3 -6
    endloop
  endfacet
  facet normal 0 0 -1
    outer loop
      vertex 0 -6 -6
      vertex 0 6 -6
      vertex 5.19615 3 -6
    endloop
  endfacet
  facet normal 0 0 -1
    outer loop
      vertex -5.19615 -3 -6
      vertex 0 6 -6
      vertex 0 -6 -6
    endloop
  endfacet
  facet normal 0 0 -1
    outer loop
      vertex 0 6 -6
      vertex -5.19615 -3 -6
      vertex -5.19615 3 -6
    endloop
  endfacet
  facet normal 0.500009 0.86602 -0
    outer loop
      vertex 5.19615 3 -6
      vertex 5 3.11325 6
      vertex 5.19615 3 6
    endloop
  endfacet
  facet normal 0.5 0.866026 -2.05932e-07
    outer loop
      vertex 5 3.11325 6
      vertex 5.19615 3 -6
      vertex 1.73205 5 6
    endloop
  endfacet
  facet normal 0.5 0.866025 0
    outer loop
      vertex 0 6 -6
      vertex 1.73205 5 6
      vertex 5.19615 3 -6
    endloop
  endfacet
  facet normal 0.5 0.866025 0
    outer loop
      vertex 1.73205 5 6
      vertex 0 6 -6
      vertex 0 6 6
    endloop
  endfacet
  facet normal -0.5 0.866025 0
    outer loop
      vertex 0 6 -6
      vertex -1.73205 5 6
      vertex 0 6 6
    endloop
  endfacet
  facet normal -0.5 0.866025 0
    outer loop
      vertex -5.19615 3 -6
      vertex -1.73205 5 6
      vertex 0 6 -6
    endloop
  endfacet
  facet normal -0.5 0.866026 -2.05932e-07
    outer loop
      vertex -1.73205 5 6
      vertex -5.19615 3 -6
      vertex -5 3.11325 6
    endloop
  endfacet
  facet normal -0.500009 0.86602 0
    outer loop
      vertex -5 3.11325 6
      vertex -5.19615 3 -6
      vertex -5.19615 3 6
    endloop
  endfacet
  facet normal -1 0 0
    outer loop
      vertex -5.19615 -3 -6
      vertex -5.19615 3 6
      vertex -5.19615 3 -6
    endloop
  endfacet
  facet normal -1 -0 0
    outer loop
      vertex -5.19615 3 6
      vertex -5.19615 -3 -6
      vertex -5.19615 -3 6
    endloop
  endfacet
  facet normal -0.500009 -0.86602 0
    outer loop
      vertex -5.19615 -3 -6
      vertex -5 -3.11325 6
      vertex -5.19615 -3 6
    endloop
  endfacet
  facet normal -0.5 -0.866026 -2.05932e-07
    outer loop
      vertex -5 -3.11325 6
      vertex -5.19615 -3 -6
      vertex -1.73205 -5 6
    endloop
  endfacet
  facet normal -0.5 -0.866025 0
    outer loop
      vertex 0 -6 -6
      vertex -1.73205 -5 6
      vertex -5.19615 -3 -6
    endloop
  endfacet
  facet normal -0.5 -0.866025 0
    outer loop
      vertex -1.73205 -5 6
      vertex 0 -6 -6
      vertex 0 -6 6
    endloop
  endfacet
  facet normal 0.5 -0.866025 0
    outer loop
      vertex 0 -6 -6
      vertex 1.73205 -5 6
      vertex 0 -6 6
    endloop
  endfacet
  facet normal 0.5 -0.866025 0
    outer loop
      vertex 5.19615 -3 -6
      vertex 1.73205 -5 6
      vertex 0 -6 -6
    endloop
  endfacet
  facet normal 0.5 -0.866026 -2.05932e-07
    outer loop
      vertex 1.73205 -5 6
      vertex 5.19615 -3 -6
      vertex 5 -3.11325 6
    endloop
  endfacet
  facet normal 0.500009 -0.86602 0
    outer loop
      vertex 5 -3.11325 6
      vertex 5.19615 -3 -6
      vertex 5.19615 -3 6
    endloop
  endfacet
  facet normal 1 -0 0
    outer loop
      vertex 5.19615 -3 6
      vertex 5.19615 3 -6
      vertex 5.19615 3 6
    endloop
  endfacet
  facet normal 1 0 0
    outer loop
      vertex 5.19615 3 -6
      vertex 5.19615 -3 6
      vertex 5.19615 -3 -6
    endloop
  endfacet
endsolid OpenSCAD_Model
