solid OpenSCAD_Model
  facet normal 1 0 0
    outer loop
      vertex 5 5 21
      vertex 5 2.83937 6
      vertex 5 5 6
    endloop
  endfacet
  facet normal 1 0 0
    outer loop
      vertex 5 5 21
      vertex 5 -2.83937 6
      vertex 5 2.83937 6
    endloop
  endfacet
  facet normal 1 -0 0
    outer loop
      vertex 5 -5 21
      vertex 5 -2.83937 6
      vertex 5 5 21
    endloop
  endfacet
  facet normal 1 0 0
    outer loop
      vertex 5 -2.83937 6
      vertex 5 -5 21
      vertex 5 -5 6
    endloop
  endfacet
  facet normal -0 0 1
    outer loop
      vertex -5 5 21
      vertex 5 -5 21
      vertex 5 5 21
    endloop
  endfacet
  facet normal 0 0 1
    outer loop
      vertex 5 -5 21
      vertex -5 5 21
      vertex -5 -5 21
    endloop
  endfacet
  facet normal 0 0 -1
    outer loop
      vertex 5 2.83937 6
      vertex 2.83937 5 6
      vertex 5 5 6
    endloop
  endfacet
  facet normal 0 0 -1
    outer loop
      vertex 5 -5 6
      vertex 2.83937 -5 6
      vertex 5 -2.83937 6
    endloop
  endfacet
  facet normal 0 0 -1
    outer loop
      vertex -2.83937 -5 6
      vertex -5 -5 6
      vertex -5 -2.83937 6
    endloop
  endfacet
  facet normal -0 0 -1
    outer loop
      vertex -2.83937 5 6
      vertex -5 2.83937 6
      vertex -5 5 6
    endloop
  endfacet
  facet normal 0 0 1
    outer loop
      vertex 5 2.83937 6
      vertex 5.54327 -2.2961 6
      vertex 5.54327 2.2961 6
    endloop
  endfacet
  facet normal 0 0 1
    outer loop
      vertex 5.54327 -2.2961 6
      vertex 5 2.83937 6
      vertex 5 -2.83937 6
    endloop
  endfacet
  facet normal -0 0 1
    outer loop
      vertex -2.2961 5.54327 6
      vertex 2.83937 5 6
      vertex 2.2961 5.54327 6
    endloop
  endfacet
  facet normal 0 0 1
    outer loop
      vertex 2.83937 5 6
      vertex -2.2961 5.54327 6
      vertex -2.83937 5 6
    endloop
  endfacet
  facet normal 0 0 1
    outer loop
      vertex 2.83937 -5 6
      vertex -2.2961 -5.54327 6
      vertex 2.2961 -5.54327 6
    endloop
  endfacet
  facet normal 0 -0 1
    outer loop
      vertex -2.2961 -5.54327 6
      vertex 2.83937 -5 6
      vertex -2.83937 -5 6
    endloop
  endfacet
  facet normal -0 0 1
    outer loop
      vertex -5.54327 2.2961 6
      vertex -5 -2.83937 6
      vertex -5 2.83937 6
    endloop
  endfacet
  facet normal 0 0 1
    outer loop
      vertex -5 -2.83937 6
      vertex -5.54327 2.2961 6
      vertex -5.54327 -2.2961 6
    endloop
  endfacet
  facet normal -1 0 0
    outer loop
      vertex -5 2.83937 6
      vertex -5 5 21
      vertex -5 5 6
    endloop
  endfacet
  facet normal -1 0 0
    outer loop
      vertex -5 -2.83937 6
      vertex -5 5 21
      vertex -5 2.83937 6
    endloop
  endfacet
  facet normal -1 0 0
    outer loop
      vertex -5 -5 21
      vertex -5 -2.83937 6
      vertex -5 -5 6
    endloop
  endfacet
  facet normal -1 0 0
    outer loop
      vertex -5 -2.83937 6
      vertex -5 -5 21
      vertex -5 5 21
    endloop
  endfacet
  facet normal 0 1 0
    outer loop
      vertex 2.83937 5 6
      vertex 5 5 21
      vertex 5 5 6
    endloop
  endfacet
  facet normal 0 1 0
    outer loop
      vertex 5 5 21
      vertex 2.83937 5 6
      vertex -5 5 21
    endloop
  endfacet
  facet normal 0 1 -0
    outer loop
      vertex -2.83937 5 6
      vertex -5 5 21
      vertex 2.83937 5 6
    endloop
  endfacet
  facet normal 0 1 0
    outer loop
      vertex -5 5 21
      vertex -2.83937 5 6
      vertex -5 5 6
    endloop
  endfacet
  facet normal 0 -1 0
    outer loop
      vertex -2.83937 -5 6
      vertex -5 -5 21
      vertex -5 -5 6
    endloop
  endfacet
  facet normal 0 -1 0
    outer loop
      vertex -5 -5 21
      vertex -2.83937 -5 6
      vertex 5 -5 21
    endloop
  endfacet
  facet normal 0 -1 0
    outer loop
      vertex 2.83937 -5 6
      vertex 5 -5 21
      vertex -2.83937 -5 6
    endloop
  endfacet
  facet normal 0 -1 -0
    outer loop
      vertex 5 -5 21
      vertex 2.83937 -5 6
      vertex 5 -5 6
    endloop
  endfacet
  facet normal 0.707107 0.707107 0
    outer loop
      vertex 2.83937 5 6
      vertex 2.2961 5.54327 -6
      vertex 2.2961 5.54327 6
    endloop
  endfacet
  facet normal 0.707107 0.707107 -2.42228e-17
    outer loop
      vertex 5 2.83937 6
      vertex 2.2961 5.54327 -6
      vertex 2.83937 5 6
    endloop
  endfacet
  facet normal 0.707107 0.707107 -0
    outer loop
      vertex 5.54327 2.2961 -6
      vertex 5 2.83937 6
      vertex 5.54327 2.2961 6
    endloop
  endfacet
  facet normal 0.707107 0.707107 -2.41763e-17
    outer loop
      vertex 5 2.83937 6
      vertex 5.54327 2.2961 -6
      vertex 2.2961 5.54327 -6
    endloop
  endfacet
  facet normal -0.707107 0.707107 0
    outer loop
      vertex -2.2961 5.54327 -6
      vertex -2.83937 5 6
      vertex -2.2961 5.54327 6
    endloop
  endfacet
  facet normal -0.707107 0.707107 -2.42228e-17
    outer loop
      vertex -2.2961 5.54327 -6
      vertex -5 2.83937 6
      vertex -2.83937 5 6
    endloop
  endfacet
  facet normal -0.707107 0.707107 -2.41763e-17
    outer loop
      vertex -5.54327 2.2961 -6
      vertex -5 2.83937 6
      vertex -2.2961 5.54327 -6
    endloop
  endfacet
  facet normal -0.707107 0.707107 0
    outer loop
      vertex -5 2.83937 6
      vertex -5.54327 2.2961 -6
      vertex -5.54327 2.2961 6
    endloop
  endfacet
  facet normal -1 0 0
    outer loop
      vertex -5.54327 -2.2961 -6
      vertex -5.54327 2.2961 6
      vertex -5.54327 2.2961 -6
    endloop
  endfacet
  facet normal -1 -0 0
    outer loop
      vertex -5.54327 2.2961 6
      vertex -5.54327 -2.2961 -6
      vertex -5.54327 -2.2961 6
    endloop
  endfacet
  facet normal -0.707107 -0.707107 0
    outer loop
      vertex -5.54327 -2.2961 -6
      vertex -5 -2.83937 6
      vertex -5.54327 -2.2961 6
    endloop
  endfacet
  facet normal -0.707107 -0.707107 -2.42228e-17
    outer loop
      vertex -5.54327 -2.2961 -6
      vertex -2.83937 -5 6
      vertex -5 -2.83937 6
    endloop
  endfacet
  facet normal -0.707107 -0.707107 -2.41763e-17
    outer loop
      vertex -2.2961 -5.54327 -6
      vertex -2.83937 -5 6
      vertex -5.54327 -2.2961 -6
    endloop
  endfacet
  facet normal -0.707107 -0.707107 0
    outer loop
      vertex -2.83937 -5 6
      vertex -2.2961 -5.54327 -6
      vertex -2.2961 -5.54327 6
    endloop
  endfacet
  facet normal 1 -0 0
    outer loop
      vertex 5.54327 -2.2961 6
      vertex 5.54327 2.2961 -6
      vertex 5.54327 2.2961 6
    endloop
  endfacet
  facet normal 1 0 0
    outer loop
      vertex 5.54327 2.2961 -6
      vertex 5.54327 -2.2961 6
      vertex 5.54327 -2.2961 -6
    endloop
  endfacet
  facet normal 0 -1 0
    outer loop
      vertex -2.2961 -5.54327 -6
      vertex 2.2961 -5.54327 6
      vertex -2.2961 -5.54327 6
    endloop
  endfacet
  facet normal 0 -1 -0
    outer loop
      vertex 2.2961 -5.54327 6
      vertex -2.2961 -5.54327 -6
      vertex 2.2961 -5.54327 -6
    endloop
  endfacet
  facet normal 0 0 -1
    outer loop
      vertex 2.2961 -5.54327 -6
      vertex 5.54327 2.2961 -6
      vertex 5.54327 -2.2961 -6
    endloop
  endfacet
  facet normal 0 0 -1
    outer loop
      vertex 2.2961 -5.54327 -6
      vertex 2.2961 5.54327 -6
      vertex 5.54327 2.2961 -6
    endloop
  endfacet
  facet normal 0 0 -1
    outer loop
      vertex -2.2961 -5.54327 -6
      vertex 2.2961 5.54327 -6
      vertex 2.2961 -5.54327 -6
    endloop
  endfacet
  facet normal 0 0 -1
    outer loop
      vertex -2.2961 -5.54327 -6
      vertex -2.2961 5.54327 -6
      vertex 2.2961 5.54327 -6
    endloop
  endfacet
  facet normal 0 0 -1
    outer loop
      vertex -5.54327 -2.2961 -6
      vertex -2.2961 5.54327 -6
      vertex -2.2961 -5.54327 -6
    endloop
  endfacet
  facet normal 0 0 -1
    outer loop
      vertex -2.2961 5.54327 -6
      vertex -5.54327 -2.2961 -6
      vertex -5.54327 2.2961 -6
    endloop
  endfacet
  facet normal 0 1 -0
    outer loop
      vertex 2.2961 5.54327 -6
      vertex -2.2961 5.54327 6
      vertex 2.2961 5.54327 6
    endloop
  endfacet
  facet normal 0 1 0
    outer loop
      vertex -2.2961 5.54327 6
      vertex 2.2961 5.54327 -6
      vertex -2.2961 5.54327 -6
    endloop
  endfacet
  facet normal 0.707107 -0.707107 0
    outer loop
      vertex 5 -2.83937 6
      vertex 5.54327 -2.2961 -6
      vertex 5.54327 -2.2961 6
    endloop
  endfacet
  facet normal 0.707107 -0.707107 -2.42228e-17
    outer loop
      vertex 2.83937 -5 6
      vertex 5.54327 -2.2961 -6
      vertex 5 -2.83937 6
    endloop
  endfacet
  facet normal 0.707107 -0.707107 0
    outer loop
      vertex 2.2961 -5.54327 -6
      vertex 2.83937 -5 6
      vertex 2.2961 -5.54327 6
    endloop
  endfacet
  facet normal 0.707107 -0.707107 -2.41763e-17
    outer loop
      vertex 2.83937 -5 6
      vertex 2.2961 -5.54327 -6
      vertex 5.54327 -2.2961 -6
    endloop
  endfacet
endsolid OpenSCAD_Model
