solid OpenSCAD_Model
  facet normal 1 -0 0
    outer loop
      vertex 30 -30 25
      vertex 30 30 -25
      vertex 30 30 25
    endloop
  endfacet
  facet normal 1 0 0
    outer loop
      vertex 30 30 -25
      vertex 30 -30 25
      vertex 30 -30 -25
    endloop
  endfacet
  facet normal 0 0 1
    outer loop
      vertex 30 30 25
      vertex 19.1432 5.12939 25
      vertex 30 -30 25
    endloop
  endfacet
  facet normal 0 0 1
    outer loop
      vertex 30 30 25
      vertex 14.0138 14.0138 25
      vertex 19.1432 5.12939 25
    endloop
  endfacet
  facet normal 0 0 1
    outer loop
      vertex 30 30 25
      vertex 5.12939 19.1432 25
      vertex 14.0138 14.0138 25
    endloop
  endfacet
  facet normal 0 0 1
    outer loop
      vertex 30 30 25
      vertex -5.12939 19.1432 25
      vertex 5.12939 19.1432 25
    endloop
  endfacet
  facet normal 0 0 1
    outer loop
      vertex -19.1432 5.12939 25
      vertex -30 30 25
      vertex -19.1432 -5.12939 25
    endloop
  endfacet
  facet normal 0 0 1
    outer loop
      vertex -14.0138 14.0138 25
      vertex -30 30 25
      vertex -19.1432 5.12939 25
    endloop
  endfacet
  facet normal 0 0 1
    outer loop
      vertex -5.12939 19.1432 25
      vertex -30 30 25
      vertex -14.0138 14.0138 25
    endloop
  endfacet
  facet normal -0 0 1
    outer loop
      vertex -30 30 25
      vertex -5.12939 19.1432 25
      vertex 30 30 25
    endloop
  endfacet
  facet normal -0 0 1
    outer loop
      vertex 19.1432 -5.12939 25
      vertex 30 -30 25
      vertex 19.1432 5.12939 25
    endloop
  endfacet
  facet normal -0 0 1
    outer loop
      vertex 14.0138 -14.0138 25
      vertex 30 -30 25
      vertex 19.1432 -5.12939 25
    endloop
  endfacet
  facet normal -0 0 1
    outer loop
      vertex 5.12939 -19.1432 25
      vertex 30 -30 25
      vertex 14.0138 -14.0138 25
    endloop
  endfacet
  facet normal -0 0 1
    outer loop
      vertex -5.12939 -19.1432 25
      vertex 30 -30 25
      vertex 5.12939 -19.1432 25
    endloop
  endfacet
  facet normal 0 0 1
    outer loop
      vertex -5.12939 -19.1432 25
      vertex -30 -30 25
      vertex 30 -30 25
    endloop
  endfacet
  facet normal 0 0 1
    outer loop
      vertex -14.0138 -14.0138 25
      vertex -30 -30 25
      vertex -5.12939 -19.1432 25
    endloop
  endfacet
  facet normal 0 0 1
    outer loop
      vertex -19.1432 -5.12939 25
      vertex -30 -30 25
      vertex -14.0138 -14.0138 25
    endloop
  endfacet
  facet normal 0 0 1
    outer loop
      vertex -30 -30 25
      vertex -19.1432 -5.12939 25
      vertex -30 30 25
    endloop
  endfacet
  facet normal 0 0 -1
    outer loop
      vertex 30 -30 -25
      vertex 19.1432 -5.12939 -25
      vertex 30 30 -25
    endloop
  endfacet
  facet normal 0 0 -1
    outer loop
      vertex 30 -30 -25
      vertex 14.0138 -14.0138 -25
      vertex 19.1432 -5.12939 -25
    endloop
  endfacet
  facet normal 0 0 -1
    outer loop
      vertex 30 -30 -25
      vertex 5.12939 -19.1432 -25
      vertex 14.0138 -14.0138 -25
    endloop
  endfacet
  facet normal 0 0 -1
    outer loop
      vertex 30 -30 -25
      vertex -5.12939 -19.1432 -25
      vertex 5.12939 -19.1432 -25
    endloop
  endfacet
  facet normal -0 0 -1
    outer loop
      vertex -19.1432 -5.12939 -25
      vertex -30 -30 -25
      vertex -19.1432 5.12939 -25
    endloop
  endfacet
  facet normal -0 0 -1
    outer loop
      vertex -14.0138 -14.0138 -25
      vertex -30 -30 -25
      vertex -19.1432 -5.12939 -25
    endloop
  endfacet
  facet normal -0 0 -1
    outer loop
      vertex -5.12939 -19.1432 -25
      vertex -30 -30 -25
      vertex -14.0138 -14.0138 -25
    endloop
  endfacet
  facet normal 0 0 -1
    outer loop
      vertex -30 -30 -25
      vertex -5.12939 -19.1432 -25
      vertex 30 -30 -25
    endloop
  endfacet
  facet normal 0 0 -1
    outer loop
      vertex 19.1432 5.12939 -25
      vertex 30 30 -25
      vertex 19.1432 -5.12939 -25
    endloop
  endfacet
  facet normal 0 0 -1
    outer loop
      vertex 14.0138 14.0138 -25
      vertex 30 30 -25
      vertex 19.1432 5.12939 -25
    endloop
  endfacet
  facet normal 0 0 -1
    outer loop
      vertex 5.12939 19.1432 -25
      vertex 30 30 -25
      vertex 14.0138 14.0138 -25
    endloop
  endfacet
  facet normal 0 0 -1
    outer loop
      vertex -5.12939 19.1432 -25
      vertex 30 30 -25
      vertex 5.12939 19.1432 -25
    endloop
  endfacet
  facet normal 0 0 -1
    outer loop
      vertex -5.12939 19.1432 -25
      vertex -30 30 -25
      vertex 30 30 -25
    endloop
  endfacet
  facet normal 0 0 -1
    outer loop
      vertex -14.0138 14.0138 -25
      vertex -30 30 -25
      vertex -5.12939 19.1432 -25
    endloop
  endfacet
  facet normal 0 0 -1
    outer loop
      vertex -19.1432 5.12939 -25
      vertex -30 30 -25
      vertex -14.0138 14.0138 -25
    endloop
  endfacet
  facet normal 0 0 -1
    outer loop
      vertex -30 30 -25
      vertex -19.1432 5.12939 -25
      vertex -30 -30 -25
    endloop
  endfacet
  facet normal -1 0 0
    outer loop
      vertex -30 -30 -25
      vertex -30 30 25
      vertex -30 30 -25
    endloop
  endfacet
  facet normal -1 -0 0
    outer loop
      vertex -30 30 25
      vertex -30 -30 -25
      vertex -30 -30 25
    endloop
  endfacet
  facet normal 0 1 -0
    outer loop
      vertex 30 30 -25
      vertex -30 30 25
      vertex 30 30 25
    endloop
  endfacet
  facet normal 0 1 0
    outer loop
      vertex -30 30 25
      vertex 30 30 -25
      vertex -30 30 -25
    endloop
  endfacet
  facet normal 0 -1 0
    outer loop
      vertex -30 -30 -25
      vertex 30 -30 25
      vertex -30 -30 25
    endloop
  endfacet
  facet normal 0 -1 -0
    outer loop
      vertex 30 -30 25
      vertex -30 -30 -25
      vertex 30 -30 -25
    endloop
  endfacet
  facet normal -1 0 0
    outer loop
      vertex 19.1432 -5.12939 -25
      vertex 19.1432 5.12939 25
      vertex 19.1432 5.12939 -25
    endloop
  endfacet
  facet normal -1 -0 0
    outer loop
      vertex 19.1432 5.12939 25
      vertex 19.1432 -5.12939 -25
      vertex 19.1432 -5.12939 25
    endloop
  endfacet
  facet normal -0.866026 0.499999 0
    outer loop
      vertex 14.0138 -14.0138 -25
      vertex 19.1432 -5.12939 25
      vertex 19.1432 -5.12939 -25
    endloop
  endfacet
  facet normal -0.866026 0.499999 0
    outer loop
      vertex 19.1432 -5.12939 25
      vertex 14.0138 -14.0138 -25
      vertex 14.0138 -14.0138 25
    endloop
  endfacet
  facet normal -0.499999 -0.866026 0
    outer loop
      vertex 5.12939 19.1432 -25
      vertex 14.0138 14.0138 25
      vertex 5.12939 19.1432 25
    endloop
  endfacet
  facet normal -0.499999 -0.866026 -0
    outer loop
      vertex 14.0138 14.0138 25
      vertex 5.12939 19.1432 -25
      vertex 14.0138 14.0138 -25
    endloop
  endfacet
  facet normal -0.866026 -0.499999 0
    outer loop
      vertex 19.1432 5.12939 -25
      vertex 14.0138 14.0138 25
      vertex 14.0138 14.0138 -25
    endloop
  endfacet
  facet normal -0.866026 -0.499999 0
    outer loop
      vertex 14.0138 14.0138 25
      vertex 19.1432 5.12939 -25
      vertex 19.1432 5.12939 25
    endloop
  endfacet
  facet normal 1 -0 0
    outer loop
      vertex -19.1432 -5.12939 25
      vertex -19.1432 5.12939 -25
      vertex -19.1432 5.12939 25
    endloop
  endfacet
  facet normal 1 0 0
    outer loop
      vertex -19.1432 5.12939 -25
      vertex -19.1432 -5.12939 25
      vertex -19.1432 -5.12939 -25
    endloop
  endfacet
  facet normal -0.499999 0.866026 0
    outer loop
      vertex 14.0138 -14.0138 -25
      vertex 5.12939 -19.1432 25
      vertex 14.0138 -14.0138 25
    endloop
  endfacet
  facet normal -0.499999 0.866026 0
    outer loop
      vertex 5.12939 -19.1432 25
      vertex 14.0138 -14.0138 -25
      vertex 5.12939 -19.1432 -25
    endloop
  endfacet
  facet normal 0 1 -0
    outer loop
      vertex 5.12939 -19.1432 -25
      vertex -5.12939 -19.1432 25
      vertex 5.12939 -19.1432 25
    endloop
  endfacet
  facet normal 0 1 0
    outer loop
      vertex -5.12939 -19.1432 25
      vertex 5.12939 -19.1432 -25
      vertex -5.12939 -19.1432 -25
    endloop
  endfacet
  facet normal 0.499999 -0.866026 0
    outer loop
      vertex -14.0138 14.0138 -25
      vertex -5.12939 19.1432 25
      vertex -14.0138 14.0138 25
    endloop
  endfacet
  facet normal 0.499999 -0.866026 0
    outer loop
      vertex -5.12939 19.1432 25
      vertex -14.0138 14.0138 -25
      vertex -5.12939 19.1432 -25
    endloop
  endfacet
  facet normal 0 -1 0
    outer loop
      vertex -5.12939 19.1432 -25
      vertex 5.12939 19.1432 25
      vertex -5.12939 19.1432 25
    endloop
  endfacet
  facet normal 0 -1 -0
    outer loop
      vertex 5.12939 19.1432 25
      vertex -5.12939 19.1432 -25
      vertex 5.12939 19.1432 -25
    endloop
  endfacet
  facet normal 0.866026 0.499999 0
    outer loop
      vertex -14.0138 -14.0138 25
      vertex -19.1432 -5.12939 -25
      vertex -19.1432 -5.12939 25
    endloop
  endfacet
  facet normal 0.866026 0.499999 0
    outer loop
      vertex -19.1432 -5.12939 -25
      vertex -14.0138 -14.0138 25
      vertex -14.0138 -14.0138 -25
    endloop
  endfacet
  facet normal 0.866026 -0.499999 0
    outer loop
      vertex -19.1432 5.12939 25
      vertex -14.0138 14.0138 -25
      vertex -14.0138 14.0138 25
    endloop
  endfacet
  facet normal 0.866026 -0.499999 0
    outer loop
      vertex -14.0138 14.0138 -25
      vertex -19.1432 5.12939 25
      vertex -19.1432 5.12939 -25
    endloop
  endfacet
  facet normal 0.499999 0.866026 -0
    outer loop
      vertex -5.12939 -19.1432 -25
      vertex -14.0138 -14.0138 25
      vertex -5.12939 -19.1432 25
    endloop
  endfacet
  facet normal 0.499999 0.866026 0
    outer loop
      vertex -14.0138 -14.0138 25
      vertex -5.12939 -19.1432 -25
      vertex -14.0138 -14.0138 -25
    endloop
  endfacet
endsolid OpenSCAD_Model
