solid OpenSCAD_Model
  facet normal 1 -0 0
    outer loop
      vertex 30 -30 25
      vertex 30 30 -25
      vertex 30 30 25
    endloop
  endfacet
  facet normal 1 0 0
    outer loop
      vertex 30 30 -25
      vertex 30 -30 25
      vertex 30 -30 -25
    endloop
  endfacet
  facet normal 0 0 1
    outer loop
      vertex 30 30 25
      vertex 10.3536 10.3536 25
      vertex 30 -30 25
    endloop
  endfacet
  facet normal 0 0 1
    outer loop
      vertex 30 30 25
      vertex -10.3536 10.3536 25
      vertex 10.3536 10.3536 25
    endloop
  endfacet
  facet normal 0 0 1
    outer loop
      vertex -10.3536 10.3536 25
      vertex -30 30 25
      vertex -10.3536 -10.3536 25
    endloop
  endfacet
  facet normal -0 0 1
    outer loop
      vertex -30 30 25
      vertex -10.3536 10.3536 25
      vertex 30 30 25
    endloop
  endfacet
  facet normal -0 0 1
    outer loop
      vertex 10.3536 -10.3536 25
      vertex 30 -30 25
      vertex 10.3536 10.3536 25
    endloop
  endfacet
  facet normal -0 0 1
    outer loop
      vertex -10.3536 -10.3536 25
      vertex 30 -30 25
      vertex 10.3536 -10.3536 25
    endloop
  endfacet
  facet normal 0 0 1
    outer loop
      vertex -10.3536 -10.3536 25
      vertex -30 -30 25
      vertex 30 -30 25
    endloop
  endfacet
  facet normal 0 0 1
    outer loop
      vertex -30 -30 25
      vertex -10.3536 -10.3536 25
      vertex -30 30 25
    endloop
  endfacet
  facet normal 0 0 -1
    outer loop
      vertex 30 -30 -25
      vertex 10.3536 -10.3536 -25
      vertex 30 30 -25
    endloop
  endfacet
  facet normal 0 0 -1
    outer loop
      vertex 30 -30 -25
      vertex -10.3536 -10.3536 -25
      vertex 10.3536 -10.3536 -25
    endloop
  endfacet
  facet normal -0 0 -1
    outer loop
      vertex -10.3536 -10.3536 -25
      vertex -30 -30 -25
      vertex -10.3536 10.3536 -25
    endloop
  endfacet
  facet normal 0 0 -1
    outer loop
      vertex -30 -30 -25
      vertex -10.3536 -10.3536 -25
      vertex 30 -30 -25
    endloop
  endfacet
  facet normal 0 0 -1
    outer loop
      vertex 10.3536 10.3536 -25
      vertex 30 30 -25
      vertex 10.3536 -10.3536 -25
    endloop
  endfacet
  facet normal 0 0 -1
    outer loop
      vertex -10.3536 10.3536 -25
      vertex 30 30 -25
      vertex 10.3536 10.3536 -25
    endloop
  endfacet
  facet normal 0 0 -1
    outer loop
      vertex -10.3536 10.3536 -25
      vertex -30 30 -25
      vertex 30 30 -25
    endloop
  endfacet
  facet normal 0 0 -1
    outer loop
      vertex -30 30 -25
      vertex -10.3536 10.3536 -25
      vertex -30 -30 -25
    endloop
  endfacet
  facet normal -1 0 0
    outer loop
      vertex -30 -30 -25
      vertex -30 30 25
      vertex -30 30 -25
    endloop
  endfacet
  facet normal -1 -0 0
    outer loop
      vertex -30 30 25
      vertex -30 -30 -25
      vertex -30 -30 25
    endloop
  endfacet
  facet normal 0 1 -0
    outer loop
      vertex 30 30 -25
      vertex -30 30 25
      vertex 30 30 25
    endloop
  endfacet
  facet normal 0 1 0
    outer loop
      vertex -30 30 25
      vertex 30 30 -25
      vertex -30 30 -25
    endloop
  endfacet
  facet normal 0 -1 0
    outer loop
      vertex -30 -30 -25
      vertex 30 -30 25
      vertex -30 -30 25
    endloop
  endfacet
  facet normal 0 -1 -0
    outer loop
      vertex 30 -30 25
      vertex -30 -30 -25
      vertex 30 -30 -25
    endloop
  endfacet
  facet normal 1 -0 0
    outer loop
      vertex -10.3536 -10.3536 25
      vertex -10.3536 10.3536 -25
      vertex -10.3536 10.3536 25
    endloop
  endfacet
  facet normal 1 0 0
    outer loop
      vertex -10.3536 10.3536 -25
      vertex -10.3536 -10.3536 25
      vertex -10.3536 -10.3536 -25
    endloop
  endfacet
  facet normal 0 -1 0
    outer loop
      vertex -10.3536 10.3536 -25
      vertex 10.3536 10.3536 25
      vertex -10.3536 10.3536 25
    endloop
  endfacet
  facet normal 0 -1 -0
    outer loop
      vertex 10.3536 10.3536 25
      vertex -10.3536 10.3536 -25
      vertex 10.3536 10.3536 -25
    endloop
  endfacet
  facet normal -1 0 0
    outer loop
      vertex 10.3536 -10.3536 -25
      vertex 10.3536 10.3536 25
      vertex 10.3536 10.3536 -25
    endloop
  endfacet
  facet normal -1 -0 0
    outer loop
      vertex 10.3536 10.3536 25
      vertex 10.3536 -10.3536 -25
      vertex 10.3536 -10.3536 25
    endloop
  endfacet
  facet normal 0 1 -0
    outer loop
      vertex 10.3536 -10.3536 -25
      vertex -10.3536 -10.3536 25
      vertex 10.3536 -10.3536 25
    endloop
  endfacet
  facet normal 0 1 0
    outer loop
      vertex -10.3536 -10.3536 25
      vertex 10.3536 -10.3536 -25
      vertex -10.3536 -10.3536 -25
    endloop
  endfacet
endsolid OpenSCAD_Model
