solid OpenSCAD_Model
  facet normal 1 -0 0
    outer loop
      vertex 30 -30 25
      vertex 30 30 -25
      vertex 30 30 25
    endloop
  endfacet
  facet normal 1 0 0
    outer loop
      vertex 30 30 -25
      vertex 30 -30 25
      vertex 30 -30 -25
    endloop
  endfacet
  facet normal 0 0 1
    outer loop
      vertex 30 30 25
      vertex 14.4957 14.4957 25
      vertex 30 -30 25
    endloop
  endfacet
  facet normal 0 0 1
    outer loop
      vertex 30 30 25
      vertex -14.4957 14.4957 25
      vertex 14.4957 14.4957 25
    endloop
  endfacet
  facet normal 0 0 1
    outer loop
      vertex -14.4957 14.4957 25
      vertex -30 30 25
      vertex -14.4957 -14.4957 25
    endloop
  endfacet
  facet normal -0 0 1
    outer loop
      vertex -30 30 25
      vertex -14.4957 14.4957 25
      vertex 30 30 25
    endloop
  endfacet
  facet normal -0 0 1
    outer loop
      vertex 14.4957 -14.4957 25
      vertex 30 -30 25
      vertex 14.4957 14.4957 25
    endloop
  endfacet
  facet normal -0 0 1
    outer loop
      vertex -14.4957 -14.4957 25
      vertex 30 -30 25
      vertex 14.4957 -14.4957 25
    endloop
  endfacet
  facet normal 0 0 1
    outer loop
      vertex -14.4957 -14.4957 25
      vertex -30 -30 25
      vertex 30 -30 25
    endloop
  endfacet
  facet normal 0 0 1
    outer loop
      vertex -30 -30 25
      vertex -14.4957 -14.4957 25
      vertex -30 30 25
    endloop
  endfacet
  facet normal 0 0 -1
    outer loop
      vertex 30 -30 -25
      vertex 14.4957 -14.4957 -25
      vertex 30 30 -25
    endloop
  endfacet
  facet normal 0 0 -1
    outer loop
      vertex 30 -30 -25
      vertex -14.4957 -14.4957 -25
      vertex 14.4957 -14.4957 -25
    endloop
  endfacet
  facet normal -0 0 -1
    outer loop
      vertex -14.4957 -14.4957 -25
      vertex -30 -30 -25
      vertex -14.4957 14.4957 -25
    endloop
  endfacet
  facet normal 0 0 -1
    outer loop
      vertex -30 -30 -25
      vertex -14.4957 -14.4957 -25
      vertex 30 -30 -25
    endloop
  endfacet
  facet normal 0 0 -1
    outer loop
      vertex 14.4957 14.4957 -25
      vertex 30 30 -25
      vertex 14.4957 -14.4957 -25
    endloop
  endfacet
  facet normal 0 0 -1
    outer loop
      vertex -14.4957 14.4957 -25
      vertex 30 30 -25
      vertex 14.4957 14.4957 -25
    endloop
  endfacet
  facet normal 0 0 -1
    outer loop
      vertex -14.4957 14.4957 -25
      vertex -30 30 -25
      vertex 30 30 -25
    endloop
  endfacet
  facet normal 0 0 -1
    outer loop
      vertex -30 30 -25
      vertex -14.4957 14.4957 -25
      vertex -30 -30 -25
    endloop
  endfacet
  facet normal -1 0 0
    outer loop
      vertex -30 -30 -25
      vertex -30 30 25
      vertex -30 30 -25
    endloop
  endfacet
  facet normal -1 -0 0
    outer loop
      vertex -30 30 25
      vertex -30 -30 -25
      vertex -30 -30 25
    endloop
  endfacet
  facet normal 0 1 -0
    outer loop
      vertex 30 30 -25
      vertex -30 30 25
      vertex 30 30 25
    endloop
  endfacet
  facet normal 0 1 0
    outer loop
      vertex -30 30 25
      vertex 30 30 -25
      vertex -30 30 -25
    endloop
  endfacet
  facet normal 0 -1 0
    outer loop
      vertex -30 -30 -25
      vertex 30 -30 25
      vertex -30 -30 25
    endloop
  endfacet
  facet normal 0 -1 -0
    outer loop
      vertex 30 -30 25
      vertex -30 -30 -25
      vertex 30 -30 -25
    endloop
  endfacet
  facet normal 1 -0 0
    outer loop
      vertex -14.4957 -14.4957 25
      vertex -14.4957 14.4957 -25
      vertex -14.4957 14.4957 25
    endloop
  endfacet
  facet normal 1 0 0
    outer loop
      vertex -14.4957 14.4957 -25
      vertex -14.4957 -14.4957 25
      vertex -14.4957 -14.4957 -25
    endloop
  endfacet
  facet normal 0 -1 0
    outer loop
      vertex -14.4957 14.4957 -25
      vertex 14.4957 14.4957 25
      vertex -14.4957 14.4957 25
    endloop
  endfacet
  facet normal 0 -1 -0
    outer loop
      vertex 14.4957 14.4957 25
      vertex -14.4957 14.4957 -25
      vertex 14.4957 14.4957 -25
    endloop
  endfacet
  facet normal -1 0 0
    outer loop
      vertex 14.4957 -14.4957 -25
      vertex 14.4957 14.4957 25
      vertex 14.4957 14.4957 -25
    endloop
  endfacet
  facet normal -1 -0 0
    outer loop
      vertex 14.4957 14.4957 25
      vertex 14.4957 -14.4957 -25
      vertex 14.4957 -14.4957 25
    endloop
  endfacet
  facet normal 0 1 -0
    outer loop
      vertex 14.4957 -14.4957 -25
      vertex -14.4957 -14.4957 25
      vertex 14.4957 -14.4957 25
    endloop
  endfacet
  facet normal 0 1 0
    outer loop
      vertex -14.4957 -14.4957 25
      vertex 14.4957 -14.4957 -25
      vertex -14.4957 -14.4957 -25
    endloop
  endfacet
endsolid OpenSCAD_Model
