solid OpenSCAD_Model
  facet normal 1 -0 0
    outer loop
      vertex 30 -30 25
      vertex 30 30 -25
      vertex 30 30 25
    endloop
  endfacet
  facet normal 1 0 0
    outer loop
      vertex 30 30 -25
      vertex 30 -30 25
      vertex 30 -30 -25
    endloop
  endfacet
  facet normal 0 0 1
    outer loop
      vertex 30 30 25
      vertex 18.1865 10.5 25
      vertex 30 -30 25
    endloop
  endfacet
  facet normal 0 0 1
    outer loop
      vertex 30 30 25
      vertex 0 21 25
      vertex 18.1865 10.5 25
    endloop
  endfacet
  facet normal 0 0 1
    outer loop
      vertex -18.1865 10.5 25
      vertex -30 30 25
      vertex -18.1865 -10.5 25
    endloop
  endfacet
  facet normal 0 0 1
    outer loop
      vertex 0 21 25
      vertex -30 30 25
      vertex -18.1865 10.5 25
    endloop
  endfacet
  facet normal -0 0 1
    outer loop
      vertex -30 30 25
      vertex 0 21 25
      vertex 30 30 25
    endloop
  endfacet
  facet normal -0 0 1
    outer loop
      vertex 18.1865 -10.5 25
      vertex 30 -30 25
      vertex 18.1865 10.5 25
    endloop
  endfacet
  facet normal -0 0 1
    outer loop
      vertex 0 -21 25
      vertex 30 -30 25
      vertex 18.1865 -10.5 25
    endloop
  endfacet
  facet normal 0 0 1
    outer loop
      vertex 0 -21 25
      vertex -30 -30 25
      vertex 30 -30 25
    endloop
  endfacet
  facet normal 0 0 1
    outer loop
      vertex -18.1865 -10.5 25
      vertex -30 -30 25
      vertex 0 -21 25
    endloop
  endfacet
  facet normal 0 0 1
    outer loop
      vertex -30 -30 25
      vertex -18.1865 -10.5 25
      vertex -30 30 25
    endloop
  endfacet
  facet normal 0 0 -1
    outer loop
      vertex 30 -30 -25
      vertex 18.1865 -10.5 -25
      vertex 30 30 -25
    endloop
  endfacet
  facet normal 0 0 -1
    outer loop
      vertex 30 -30 -25
      vertex 0 -21 -25
      vertex 18.1865 -10.5 -25
    endloop
  endfacet
  facet normal -0 0 -1
    outer loop
      vertex -18.1865 -10.5 -25
      vertex -30 -30 -25
      vertex -18.1865 10.5 -25
    endloop
  endfacet
  facet normal -0 0 -1
    outer loop
      vertex 0 -21 -25
      vertex -30 -30 -25
      vertex -18.1865 -10.5 -25
    endloop
  endfacet
  facet normal 0 0 -1
    outer loop
      vertex -30 -30 -25
      vertex 0 -21 -25
      vertex 30 -30 -25
    endloop
  endfacet
  facet normal 0 0 -1
    outer loop
      vertex 18.1865 10.5 -25
      vertex 30 30 -25
      vertex 18.1865 -10.5 -25
    endloop
  endfacet
  facet normal 0 0 -1
    outer loop
      vertex 0 21 -25
      vertex 30 30 -25
      vertex 18.1865 10.5 -25
    endloop
  endfacet
  facet normal 0 0 -1
    outer loop
      vertex 0 21 -25
      vertex -30 30 -25
      vertex 30 30 -25
    endloop
  endfacet
  facet normal 0 0 -1
    outer loop
      vertex -18.1865 10.5 -25
      vertex -30 30 -25
      vertex 0 21 -25
    endloop
  endfacet
  facet normal 0 0 -1
    outer loop
      vertex -30 30 -25
      vertex -18.1865 10.5 -25
      vertex -30 -30 -25
    endloop
  endfacet
  facet normal -1 0 0
    outer loop
      vertex -30 -30 -25
      vertex -30 30 25
      vertex -30 30 -25
    endloop
  endfacet
  facet normal -1 -0 0
    outer loop
      vertex -30 30 25
      vertex -30 -30 -25
      vertex -30 -30 25
    endloop
  endfacet
  facet normal 0 1 -0
    outer loop
      vertex 30 30 -25
      vertex -30 30 25
      vertex 30 30 25
    endloop
  endfacet
  facet normal 0 1 0
    outer loop
      vertex -30 30 25
      vertex 30 30 -25
      vertex -30 30 -25
    endloop
  endfacet
  facet normal 0 -1 0
    outer loop
      vertex -30 -30 -25
      vertex 30 -30 25
      vertex -30 -30 25
    endloop
  endfacet
  facet normal 0 -1 -0
    outer loop
      vertex 30 -30 25
      vertex -30 -30 -25
      vertex 30 -30 -25
    endloop
  endfacet
  facet normal -0.500001 -0.866025 0
    outer loop
      vertex 0 21 -25
      vertex 18.1865 10.5 25
      vertex 0 21 25
    endloop
  endfacet
  facet normal -0.500001 -0.866025 -0
    outer loop
      vertex 18.1865 10.5 25
      vertex 0 21 -25
      vertex 18.1865 10.5 -25
    endloop
  endfacet
  facet normal 0.500001 -0.866025 0
    outer loop
      vertex -18.1865 10.5 -25
      vertex 0 21 25
      vertex -18.1865 10.5 25
    endloop
  endfacet
  facet normal 0.500001 -0.866025 0
    outer loop
      vertex 0 21 25
      vertex -18.1865 10.5 -25
      vertex 0 21 -25
    endloop
  endfacet
  facet normal 1 -0 0
    outer loop
      vertex -18.1865 -10.5 25
      vertex -18.1865 10.5 -25
      vertex -18.1865 10.5 25
    endloop
  endfacet
  facet normal 1 0 0
    outer loop
      vertex -18.1865 10.5 -25
      vertex -18.1865 -10.5 25
      vertex -18.1865 -10.5 -25
    endloop
  endfacet
  facet normal 0.500001 0.866025 -0
    outer loop
      vertex 0 -21 -25
      vertex -18.1865 -10.5 25
      vertex 0 -21 25
    endloop
  endfacet
  facet normal 0.500001 0.866025 0
    outer loop
      vertex -18.1865 -10.5 25
      vertex 0 -21 -25
      vertex -18.1865 -10.5 -25
    endloop
  endfacet
  facet normal -0.500001 0.866025 0
    outer loop
      vertex 18.1865 -10.5 -25
      vertex 0 -21 25
      vertex 18.1865 -10.5 25
    endloop
  endfacet
  facet normal -0.500001 0.866025 0
    outer loop
      vertex 0 -21 25
      vertex 18.1865 -10.5 -25
      vertex 0 -21 -25
    endloop
  endfacet
  facet normal -1 0 0
    outer loop
      vertex 18.1865 -10.5 -25
      vertex 18.1865 10.5 25
      vertex 18.1865 10.5 -25
    endloop
  endfacet
  facet normal -1 -0 0
    outer loop
      vertex 18.1865 10.5 25
      vertex 18.1865 -10.5 -25
      vertex 18.1865 -10.5 25
    endloop
  endfacet
endsolid OpenSCAD_Model
