solid OpenSCAD_Model
  facet normal 1 -0 0
    outer loop
      vertex 30 -30 25
      vertex 30 30 -25
      vertex 30 30 25
    endloop
  endfacet
  facet normal 1 0 0
    outer loop
      vertex 30 30 -25
      vertex 30 -30 25
      vertex 30 -30 -25
    endloop
  endfacet
  facet normal 0 0 1
    outer loop
      vertex 30 30 25
      vertex 19.4015 8.03635 25
      vertex 30 -30 25
    endloop
  endfacet
  facet normal 0 0 1
    outer loop
      vertex 30 30 25
      vertex 8.03635 19.4015 25
      vertex 19.4015 8.03635 25
    endloop
  endfacet
  facet normal 0 0 1
    outer loop
      vertex 30 30 25
      vertex -8.03635 19.4015 25
      vertex 8.03635 19.4015 25
    endloop
  endfacet
  facet normal 0 0 1
    outer loop
      vertex -19.4015 8.03635 25
      vertex -30 30 25
      vertex -19.4015 -8.03635 25
    endloop
  endfacet
  facet normal 0 0 1
    outer loop
      vertex -8.03635 19.4015 25
      vertex -30 30 25
      vertex -19.4015 8.03635 25
    endloop
  endfacet
  facet normal -0 0 1
    outer loop
      vertex -30 30 25
      vertex -8.03635 19.4015 25
      vertex 30 30 25
    endloop
  endfacet
  facet normal -0 0 1
    outer loop
      vertex 19.4015 -8.03635 25
      vertex 30 -30 25
      vertex 19.4015 8.03635 25
    endloop
  endfacet
  facet normal -0 0 1
    outer loop
      vertex 8.03635 -19.4015 25
      vertex 30 -30 25
      vertex 19.4015 -8.03635 25
    endloop
  endfacet
  facet normal -0 0 1
    outer loop
      vertex -8.03635 -19.4015 25
      vertex 30 -30 25
      vertex 8.03635 -19.4015 25
    endloop
  endfacet
  facet normal 0 0 1
    outer loop
      vertex -8.03635 -19.4015 25
      vertex -30 -30 25
      vertex 30 -30 25
    endloop
  endfacet
  facet normal 0 0 1
    outer loop
      vertex -19.4015 -8.03635 25
      vertex -30 -30 25
      vertex -8.03635 -19.4015 25
    endloop
  endfacet
  facet normal 0 0 1
    outer loop
      vertex -30 -30 25
      vertex -19.4015 -8.03635 25
      vertex -30 30 25
    endloop
  endfacet
  facet normal 0 0 -1
    outer loop
      vertex 30 -30 -25
      vertex 19.4015 -8.03635 -25
      vertex 30 30 -25
    endloop
  endfacet
  facet normal 0 0 -1
    outer loop
      vertex 30 -30 -25
      vertex 8.03635 -19.4015 -25
      vertex 19.4015 -8.03635 -25
    endloop
  endfacet
  facet normal 0 0 -1
    outer loop
      vertex 30 -30 -25
      vertex -8.03635 -19.4015 -25
      vertex 8.03635 -19.4015 -25
    endloop
  endfacet
  facet normal -0 0 -1
    outer loop
      vertex -19.4015 -8.03635 -25
      vertex -30 -30 -25
      vertex -19.4015 8.03635 -25
    endloop
  endfacet
  facet normal -0 0 -1
    outer loop
      vertex -8.03635 -19.4015 -25
      vertex -30 -30 -25
      vertex -19.4015 -8.03635 -25
    endloop
  endfacet
  facet normal 0 0 -1
    outer loop
      vertex -30 -30 -25
      vertex -8.03635 -19.4015 -25
      vertex 30 -30 -25
    endloop
  endfacet
  facet normal 0 0 -1
    outer loop
      vertex 19.4015 8.03635 -25
      vertex 30 30 -25
      vertex 19.4015 -8.03635 -25
    endloop
  endfacet
  facet normal 0 0 -1
    outer loop
      vertex 8.03635 19.4015 -25
      vertex 30 30 -25
      vertex 19.4015 8.03635 -25
    endloop
  endfacet
  facet normal 0 0 -1
    outer loop
      vertex -8.03635 19.4015 -25
      vertex 30 30 -25
      vertex 8.03635 19.4015 -25
    endloop
  endfacet
  facet normal 0 0 -1
    outer loop
      vertex -8.03635 19.4015 -25
      vertex -30 30 -25
      vertex 30 30 -25
    endloop
  endfacet
  facet normal 0 0 -1
    outer loop
      vertex -19.4015 8.03635 -25
      vertex -30 30 -25
      vertex -8.03635 19.4015 -25
    endloop
  endfacet
  facet normal 0 0 -1
    outer loop
      vertex -30 30 -25
      vertex -19.4015 8.03635 -25
      vertex -30 -30 -25
    endloop
  endfacet
  facet normal -1 0 0
    outer loop
      vertex -30 -30 -25
      vertex -30 30 25
      vertex -30 30 -25
    endloop
  endfacet
  facet normal -1 -0 0
    outer loop
      vertex -30 30 25
      vertex -30 -30 -25
      vertex -30 -30 25
    endloop
  endfacet
  facet normal 0 1 -0
    outer loop
      vertex 30 30 -25
      vertex -30 30 25
      vertex 30 30 25
    endloop
  endfacet
  facet normal 0 1 0
    outer loop
      vertex -30 30 25
      vertex 30 30 -25
      vertex -30 30 -25
    endloop
  endfacet
  facet normal 0 -1 0
    outer loop
      vertex -30 -30 -25
      vertex 30 -30 25
      vertex -30 -30 25
    endloop
  endfacet
  facet normal 0 -1 -0
    outer loop
      vertex 30 -30 25
      vertex -30 -30 -25
      vertex 30 -30 -25
    endloop
  endfacet
  facet normal -0.707107 -0.707107 0
    outer loop
      vertex 19.4015 8.03635 -25
      vertex 8.03635 19.4015 25
      vertex 8.03635 19.4015 -25
    endloop
  endfacet
  facet normal -0.707107 -0.707107 0
    outer loop
      vertex 8.03635 19.4015 25
      vertex 19.4015 8.03635 -25
      vertex 19.4015 8.03635 25
    endloop
  endfacet
  facet normal 0.707107 0.707107 0
    outer loop
      vertex -8.03635 -19.4015 25
      vertex -19.4015 -8.03635 -25
      vertex -19.4015 -8.03635 25
    endloop
  endfacet
  facet normal 0.707107 0.707107 0
    outer loop
      vertex -19.4015 -8.03635 -25
      vertex -8.03635 -19.4015 25
      vertex -8.03635 -19.4015 -25
    endloop
  endfacet
  facet normal -1 0 0
    outer loop
      vertex 19.4015 -8.03635 -25
      vertex 19.4015 8.03635 25
      vertex 19.4015 8.03635 -25
    endloop
  endfacet
  facet normal -1 -0 0
    outer loop
      vertex 19.4015 8.03635 25
      vertex 19.4015 -8.03635 -25
      vertex 19.4015 -8.03635 25
    endloop
  endfacet
  facet normal 0 1 -0
    outer loop
      vertex 8.03635 -19.4015 -25
      vertex -8.03635 -19.4015 25
      vertex 8.03635 -19.4015 25
    endloop
  endfacet
  facet normal 0 1 0
    outer loop
      vertex -8.03635 -19.4015 25
      vertex 8.03635 -19.4015 -25
      vertex -8.03635 -19.4015 -25
    endloop
  endfacet
  facet normal 0.707107 -0.707107 0
    outer loop
      vertex -19.4015 8.03635 25
      vertex -8.03635 19.4015 -25
      vertex -8.03635 19.4015 25
    endloop
  endfacet
  facet normal 0.707107 -0.707107 0
    outer loop
      vertex -8.03635 19.4015 -25
      vertex -19.4015 8.03635 25
      vertex -19.4015 8.03635 -25
    endloop
  endfacet
  facet normal 0 -1 0
    outer loop
      vertex -8.03635 19.4015 -25
      vertex 8.03635 19.4015 25
      vertex -8.03635 19.4015 25
    endloop
  endfacet
  facet normal 0 -1 -0
    outer loop
      vertex 8.03635 19.4015 25
      vertex -8.03635 19.4015 -25
      vertex 8.03635 19.4015 -25
    endloop
  endfacet
  facet normal 1 -0 0
    outer loop
      vertex -19.4015 -8.03635 25
      vertex -19.4015 8.03635 -25
      vertex -19.4015 8.03635 25
    endloop
  endfacet
  facet normal 1 0 0
    outer loop
      vertex -19.4015 8.03635 -25
      vertex -19.4015 -8.03635 25
      vertex -19.4015 -8.03635 -25
    endloop
  endfacet
  facet normal -0.707107 0.707107 0
    outer loop
      vertex 8.03635 -19.4015 -25
      vertex 19.4015 -8.03635 25
      vertex 19.4015 -8.03635 -25
    endloop
  endfacet
  facet normal -0.707107 0.707107 0
    outer loop
      vertex 19.4015 -8.03635 25
      vertex 8.03635 -19.4015 -25
      vertex 8.03635 -19.4015 25
    endloop
  endfacet
endsolid OpenSCAD_Model
