solid OpenSCAD_Model
  facet normal 1 -0 0
    outer loop
      vertex -13.5355 -103.536 25
      vertex -13.5355 -76.4645 -25
      vertex -13.5355 -76.4645 25
    endloop
  endfacet
  facet normal 1 0 0
    outer loop
      vertex -13.5355 -76.4645 -25
      vertex -13.5355 -103.536 25
      vertex -13.5355 -103.536 -25
    endloop
  endfacet
  facet normal 0 -1 0
    outer loop
      vertex -13.5355 -76.4645 -25
      vertex 13.5355 -76.4645 25
      vertex -13.5355 -76.4645 25
    endloop
  endfacet
  facet normal 0 -1 -0
    outer loop
      vertex 13.5355 -76.4645 25
      vertex -13.5355 -76.4645 -25
      vertex 13.5355 -76.4645 -25
    endloop
  endfacet
  facet normal -1 0 0
    outer loop
      vertex 13.5355 -103.536 -25
      vertex 13.5355 -76.4645 25
      vertex 13.5355 -76.4645 -25
    endloop
  endfacet
  facet normal -1 -0 0
    outer loop
      vertex 13.5355 -76.4645 25
      vertex 13.5355 -103.536 -25
      vertex 13.5355 -103.536 25
    endloop
  endfacet
  facet normal 0 1 -0
    outer loop
      vertex 13.5355 -103.536 -25
      vertex -13.5355 -103.536 25
      vertex 13.5355 -103.536 25
    endloop
  endfacet
  facet normal 0 1 0
    outer loop
      vertex -13.5355 -103.536 25
      vertex 13.5355 -103.536 -25
      vertex -13.5355 -103.536 -25
    endloop
  endfacet
  facet normal -0.500002 -0.866024 0
    outer loop
      vertex 0 -7.6795 -25
      vertex 19.3301 -18.8398 25
      vertex 0 -7.6795 25
    endloop
  endfacet
  facet normal -0.500002 -0.866024 -0
    outer loop
      vertex 19.3301 -18.8398 25
      vertex 0 -7.6795 -25
      vertex 19.3301 -18.8398 -25
    endloop
  endfacet
  facet normal -1 0 0
    outer loop
      vertex 19.3301 -41.1602 -25
      vertex 19.3301 -18.8398 25
      vertex 19.3301 -18.8398 -25
    endloop
  endfacet
  facet normal -1 -0 0
    outer loop
      vertex 19.3301 -18.8398 25
      vertex 19.3301 -41.1602 -25
      vertex 19.3301 -41.1602 25
    endloop
  endfacet
  facet normal 1 -0 0
    outer loop
      vertex -19.3301 -41.1602 25
      vertex -19.3301 -18.8398 -25
      vertex -19.3301 -18.8398 25
    endloop
  endfacet
  facet normal 1 0 0
    outer loop
      vertex -19.3301 -18.8398 -25
      vertex -19.3301 -41.1602 25
      vertex -19.3301 -41.1602 -25
    endloop
  endfacet
  facet normal 0.500002 0.866024 -0
    outer loop
      vertex 0 -52.3205 -25
      vertex -19.3301 -41.1602 25
      vertex 0 -52.3205 25
    endloop
  endfacet
  facet normal 0.500002 0.866024 0
    outer loop
      vertex -19.3301 -41.1602 25
      vertex 0 -52.3205 -25
      vertex -19.3301 -41.1602 -25
    endloop
  endfacet
  facet normal -0.500002 0.866024 0
    outer loop
      vertex 19.3301 -41.1602 -25
      vertex 0 -52.3205 25
      vertex 19.3301 -41.1602 25
    endloop
  endfacet
  facet normal -0.500002 0.866024 0
    outer loop
      vertex 0 -52.3205 25
      vertex 19.3301 -41.1602 -25
      vertex 0 -52.3205 -25
    endloop
  endfacet
  facet normal 0.500002 -0.866024 0
    outer loop
      vertex -19.3301 -18.8398 -25
      vertex 0 -7.6795 25
      vertex -19.3301 -18.8398 25
    endloop
  endfacet
  facet normal 0.500002 -0.866024 0
    outer loop
      vertex 0 -7.6795 25
      vertex -19.3301 -18.8398 -25
      vertex 0 -7.6795 -25
    endloop
  endfacet
  facet normal -0.707106 -0.707107 0
    outer loop
      vertex 21.6905 38.9845 -25
      vertex 8.98448 51.6905 25
      vertex 8.98448 51.6905 -25
    endloop
  endfacet
  facet normal -0.707106 -0.707107 0
    outer loop
      vertex 8.98448 51.6905 25
      vertex 21.6905 38.9845 -25
      vertex 21.6905 38.9845 25
    endloop
  endfacet
  facet normal 0.707105 0.707108 0
    outer loop
      vertex -8.98448 8.30954 25
      vertex -21.6905 21.0155 -25
      vertex -21.6905 21.0155 25
    endloop
  endfacet
  facet normal 0.707105 0.707108 0
    outer loop
      vertex -21.6905 21.0155 -25
      vertex -8.98448 8.30954 25
      vertex -8.98448 8.30954 -25
    endloop
  endfacet
  facet normal -1 0 0
    outer loop
      vertex 21.6905 21.0155 -25
      vertex 21.6905 38.9845 25
      vertex 21.6905 38.9845 -25
    endloop
  endfacet
  facet normal -1 -0 0
    outer loop
      vertex 21.6905 38.9845 25
      vertex 21.6905 21.0155 -25
      vertex 21.6905 21.0155 25
    endloop
  endfacet
  facet normal 0 1 -0
    outer loop
      vertex 8.98448 8.30954 -25
      vertex -8.98448 8.30954 25
      vertex 8.98448 8.30954 25
    endloop
  endfacet
  facet normal 0 1 0
    outer loop
      vertex -8.98448 8.30954 25
      vertex 8.98448 8.30954 -25
      vertex -8.98448 8.30954 -25
    endloop
  endfacet
  facet normal 0.707106 -0.707107 0
    outer loop
      vertex -21.6905 38.9845 25
      vertex -8.98448 51.6905 -25
      vertex -8.98448 51.6905 25
    endloop
  endfacet
  facet normal 0.707106 -0.707107 0
    outer loop
      vertex -8.98448 51.6905 -25
      vertex -21.6905 38.9845 25
      vertex -21.6905 38.9845 -25
    endloop
  endfacet
  facet normal 0 -1 0
    outer loop
      vertex -8.98448 51.6905 -25
      vertex 8.98448 51.6905 25
      vertex -8.98448 51.6905 25
    endloop
  endfacet
  facet normal 0 -1 -0
    outer loop
      vertex 8.98448 51.6905 25
      vertex -8.98448 51.6905 -25
      vertex 8.98448 51.6905 -25
    endloop
  endfacet
  facet normal 1 -0 0
    outer loop
      vertex -21.6905 21.0155 25
      vertex -21.6905 38.9845 -25
      vertex -21.6905 38.9845 25
    endloop
  endfacet
  facet normal 1 0 0
    outer loop
      vertex -21.6905 38.9845 -25
      vertex -21.6905 21.0155 25
      vertex -21.6905 21.0155 -25
    endloop
  endfacet
  facet normal -0.707105 0.707108 0
    outer loop
      vertex 8.98448 8.30954 -25
      vertex 21.6905 21.0155 25
      vertex 21.6905 21.0155 -25
    endloop
  endfacet
  facet normal -0.707105 0.707108 0
    outer loop
      vertex 21.6905 21.0155 25
      vertex 8.98448 8.30954 -25
      vertex 8.98448 8.30954 25
    endloop
  endfacet
  facet normal 0.866029 -0.499993 0
    outer loop
      vertex -23.4899 96.2941 25
      vertex -17.1958 107.196 -25
      vertex -17.1958 107.196 25
    endloop
  endfacet
  facet normal 0.866029 -0.499993 0
    outer loop
      vertex -17.1958 107.196 -25
      vertex -23.4899 96.2941 25
      vertex -23.4899 96.2941 -25
    endloop
  endfacet
  facet normal -0.499999 0.866026 0
    outer loop
      vertex 17.1958 72.8042 -25
      vertex 6.29408 66.5101 25
      vertex 17.1958 72.8042 25
    endloop
  endfacet
  facet normal -0.499999 0.866026 0
    outer loop
      vertex 6.29408 66.5101 25
      vertex 17.1958 72.8042 -25
      vertex 6.29408 66.5101 -25
    endloop
  endfacet
  facet normal 0.866025 0.5 0
    outer loop
      vertex -17.1958 72.8042 25
      vertex -23.4899 83.7059 -25
      vertex -23.4899 83.7059 25
    endloop
  endfacet
  facet normal 0.866025 0.5 0
    outer loop
      vertex -23.4899 83.7059 -25
      vertex -17.1958 72.8042 25
      vertex -17.1958 72.8042 -25
    endloop
  endfacet
  facet normal 0.499999 0.866026 -0
    outer loop
      vertex -6.29408 66.5101 -25
      vertex -17.1958 72.8042 25
      vertex -6.29408 66.5101 25
    endloop
  endfacet
  facet normal 0.499999 0.866026 0
    outer loop
      vertex -17.1958 72.8042 25
      vertex -6.29408 66.5101 -25
      vertex -17.1958 72.8042 -25
    endloop
  endfacet
  facet normal 0 -1 0
    outer loop
      vertex -6.29408 113.49 -25
      vertex 6.29408 113.49 25
      vertex -6.29408 113.49 25
    endloop
  endfacet
  facet normal 0 -1 -0
    outer loop
      vertex 6.29408 113.49 25
      vertex -6.29408 113.49 -25
      vertex 6.29408 113.49 -25
    endloop
  endfacet
  facet normal -0.866029 -0.499993 0
    outer loop
      vertex 23.4899 96.2941 -25
      vertex 17.1958 107.196 25
      vertex 17.1958 107.196 -25
    endloop
  endfacet
  facet normal -0.866029 -0.499993 0
    outer loop
      vertex 17.1958 107.196 25
      vertex 23.4899 96.2941 -25
      vertex 23.4899 96.2941 25
    endloop
  endfacet
  facet normal 0 1 -0
    outer loop
      vertex 6.29408 66.5101 -25
      vertex -6.29408 66.5101 25
      vertex 6.29408 66.5101 25
    endloop
  endfacet
  facet normal 0 1 0
    outer loop
      vertex -6.29408 66.5101 25
      vertex 6.29408 66.5101 -25
      vertex -6.29408 66.5101 -25
    endloop
  endfacet
  facet normal 0.499993 -0.866029 0
    outer loop
      vertex -17.1958 107.196 -25
      vertex -6.29408 113.49 25
      vertex -17.1958 107.196 25
    endloop
  endfacet
  facet normal 0.499993 -0.866029 0
    outer loop
      vertex -6.29408 113.49 25
      vertex -17.1958 107.196 -25
      vertex -6.29408 113.49 -25
    endloop
  endfacet
  facet normal -0.499993 -0.866029 0
    outer loop
      vertex 6.29408 113.49 -25
      vertex 17.1958 107.196 25
      vertex 6.29408 113.49 25
    endloop
  endfacet
  facet normal -0.499993 -0.866029 -0
    outer loop
      vertex 17.1958 107.196 25
      vertex 6.29408 113.49 -25
      vertex 17.1958 107.196 -25
    endloop
  endfacet
  facet normal 1 -0 0
    outer loop
      vertex -23.4899 83.7059 25
      vertex -23.4899 96.2941 -25
      vertex -23.4899 96.2941 25
    endloop
  endfacet
  facet normal 1 0 0
    outer loop
      vertex -23.4899 96.2941 -25
      vertex -23.4899 83.7059 25
      vertex -23.4899 83.7059 -25
    endloop
  endfacet
  facet normal -1 0 0
    outer loop
      vertex 23.4899 83.7059 -25
      vertex 23.4899 96.2941 25
      vertex 23.4899 96.2941 -25
    endloop
  endfacet
  facet normal -1 -0 0
    outer loop
      vertex 23.4899 96.2941 25
      vertex 23.4899 83.7059 -25
      vertex 23.4899 83.7059 25
    endloop
  endfacet
  facet normal -0.866025 0.5 0
    outer loop
      vertex 17.1958 72.8042 -25
      vertex 23.4899 83.7059 25
      vertex 23.4899 83.7059 -25
    endloop
  endfacet
  facet normal -0.866025 0.5 0
    outer loop
      vertex 23.4899 83.7059 25
      vertex 17.1958 72.8042 -25
      vertex 17.1958 72.8042 25
    endloop
  endfacet
  facet normal 1 -0 0
    outer loop
      vertex 30 -120 25
      vertex 30 120 -25
      vertex 30 120 25
    endloop
  endfacet
  facet normal 1 0 0
    outer loop
      vertex 30 120 -25
      vertex 30 -120 25
      vertex 30 -120 -25
    endloop
  endfacet
  facet normal -0 0 1
    outer loop
      vertex 0 -52.3205 25
      vertex 13.5355 -76.4645 25
      vertex 19.3301 -41.1602 25
    endloop
  endfacet
  facet normal 0 0 1
    outer loop
      vertex 0 -52.3205 25
      vertex -13.5355 -76.4645 25
      vertex 13.5355 -76.4645 25
    endloop
  endfacet
  facet normal 0 0 1
    outer loop
      vertex -30 -120 25
      vertex -13.5355 -76.4645 25
      vertex -19.3301 -41.1602 25
    endloop
  endfacet
  facet normal 0 0 1
    outer loop
      vertex -19.3301 -41.1602 25
      vertex -13.5355 -76.4645 25
      vertex 0 -52.3205 25
    endloop
  endfacet
  facet normal -0 0 1
    outer loop
      vertex 8.98448 8.30954 25
      vertex 19.3301 -18.8398 25
      vertex 21.6905 21.0155 25
    endloop
  endfacet
  facet normal 0 0 1
    outer loop
      vertex 8.98448 8.30954 25
      vertex 0 -7.6795 25
      vertex 19.3301 -18.8398 25
    endloop
  endfacet
  facet normal -0 0 1
    outer loop
      vertex -8.98448 8.30954 25
      vertex 0 -7.6795 25
      vertex 8.98448 8.30954 25
    endloop
  endfacet
  facet normal 0 0 1
    outer loop
      vertex -8.98448 8.30954 25
      vertex -19.3301 -18.8398 25
      vertex 0 -7.6795 25
    endloop
  endfacet
  facet normal 0 0 1
    outer loop
      vertex -30 -120 25
      vertex -19.3301 -18.8398 25
      vertex -21.6905 21.0155 25
    endloop
  endfacet
  facet normal 0 0 1
    outer loop
      vertex -21.6905 21.0155 25
      vertex -19.3301 -18.8398 25
      vertex -8.98448 8.30954 25
    endloop
  endfacet
  facet normal -0 0 1
    outer loop
      vertex 17.1958 72.8042 25
      vertex 21.6905 38.9845 25
      vertex 23.4899 83.7059 25
    endloop
  endfacet
  facet normal 0 0 1
    outer loop
      vertex 17.1958 72.8042 25
      vertex 8.98448 51.6905 25
      vertex 21.6905 38.9845 25
    endloop
  endfacet
  facet normal -0 0 1
    outer loop
      vertex 6.29408 66.5101 25
      vertex 8.98448 51.6905 25
      vertex 17.1958 72.8042 25
    endloop
  endfacet
  facet normal -0 0 1
    outer loop
      vertex -6.29408 66.5101 25
      vertex 8.98448 51.6905 25
      vertex 6.29408 66.5101 25
    endloop
  endfacet
  facet normal 0 0 1
    outer loop
      vertex -6.29408 66.5101 25
      vertex -8.98448 51.6905 25
      vertex 8.98448 51.6905 25
    endloop
  endfacet
  facet normal 0 0 1
    outer loop
      vertex -17.1958 72.8042 25
      vertex -8.98448 51.6905 25
      vertex -6.29408 66.5101 25
    endloop
  endfacet
  facet normal 0 0 1
    outer loop
      vertex -17.1958 72.8042 25
      vertex -21.6905 38.9845 25
      vertex -8.98448 51.6905 25
    endloop
  endfacet
  facet normal 0 0 1
    outer loop
      vertex -30 120 25
      vertex -21.6905 38.9845 25
      vertex -23.4899 83.7059 25
    endloop
  endfacet
  facet normal 0 0 1
    outer loop
      vertex -23.4899 83.7059 25
      vertex -21.6905 38.9845 25
      vertex -17.1958 72.8042 25
    endloop
  endfacet
  facet normal 0 0 1
    outer loop
      vertex 23.4899 83.7059 25
      vertex 30 120 25
      vertex 23.4899 96.2941 25
    endloop
  endfacet
  facet normal 0 0 1
    outer loop
      vertex 30 120 25
      vertex 17.1958 107.196 25
      vertex 23.4899 96.2941 25
    endloop
  endfacet
  facet normal 0 0 1
    outer loop
      vertex 30 120 25
      vertex 6.29408 113.49 25
      vertex 17.1958 107.196 25
    endloop
  endfacet
  facet normal 0 0 1
    outer loop
      vertex 30 120 25
      vertex -6.29408 113.49 25
      vertex 6.29408 113.49 25
    endloop
  endfacet
  facet normal 0 0 1
    outer loop
      vertex -23.4899 96.2941 25
      vertex -30 120 25
      vertex -23.4899 83.7059 25
    endloop
  endfacet
  facet normal 0 0 1
    outer loop
      vertex -17.1958 107.196 25
      vertex -30 120 25
      vertex -23.4899 96.2941 25
    endloop
  endfacet
  facet normal 0 0 1
    outer loop
      vertex -6.29408 113.49 25
      vertex -30 120 25
      vertex -17.1958 107.196 25
    endloop
  endfacet
  facet normal -0 0 1
    outer loop
      vertex -30 120 25
      vertex -6.29408 113.49 25
      vertex 30 120 25
    endloop
  endfacet
  facet normal 0 0 1
    outer loop
      vertex 21.6905 38.9845 25
      vertex 30 120 25
      vertex 23.4899 83.7059 25
    endloop
  endfacet
  facet normal 0 0 1
    outer loop
      vertex 30 120 25
      vertex 21.6905 38.9845 25
      vertex 21.6905 21.0155 25
    endloop
  endfacet
  facet normal 0 0 1
    outer loop
      vertex 30 120 25
      vertex 21.6905 21.0155 25
      vertex 30 -120 25
    endloop
  endfacet
  facet normal -0 0 1
    outer loop
      vertex 19.3301 -18.8398 25
      vertex 30 -120 25
      vertex 21.6905 21.0155 25
    endloop
  endfacet
  facet normal -0 0 1
    outer loop
      vertex 19.3301 -41.1602 25
      vertex 30 -120 25
      vertex 19.3301 -18.8398 25
    endloop
  endfacet
  facet normal -0 0 1
    outer loop
      vertex 13.5355 -76.4645 25
      vertex 30 -120 25
      vertex 19.3301 -41.1602 25
    endloop
  endfacet
  facet normal -0 0 1
    outer loop
      vertex 13.5355 -103.536 25
      vertex 30 -120 25
      vertex 13.5355 -76.4645 25
    endloop
  endfacet
  facet normal -0 0 1
    outer loop
      vertex -13.5355 -103.536 25
      vertex 30 -120 25
      vertex 13.5355 -103.536 25
    endloop
  endfacet
  facet normal 0 0 1
    outer loop
      vertex -21.6905 38.9845 25
      vertex -30 120 25
      vertex -21.6905 21.0155 25
    endloop
  endfacet
  facet normal 0 0 1
    outer loop
      vertex -30 -120 25
      vertex -21.6905 21.0155 25
      vertex -30 120 25
    endloop
  endfacet
  facet normal 0 0 1
    outer loop
      vertex -13.5355 -103.536 25
      vertex -30 -120 25
      vertex 30 -120 25
    endloop
  endfacet
  facet normal 0 0 1
    outer loop
      vertex -13.5355 -76.4645 25
      vertex -30 -120 25
      vertex -13.5355 -103.536 25
    endloop
  endfacet
  facet normal 0 0 1
    outer loop
      vertex -19.3301 -18.8398 25
      vertex -30 -120 25
      vertex -19.3301 -41.1602 25
    endloop
  endfacet
  facet normal 0 0 -1
    outer loop
      vertex 21.6905 21.0155 -25
      vertex 30 120 -25
      vertex 30 -120 -25
    endloop
  endfacet
  facet normal 0 0 -1
    outer loop
      vertex 21.6905 38.9845 -25
      vertex 30 120 -25
      vertex 21.6905 21.0155 -25
    endloop
  endfacet
  facet normal 0 0 -1
    outer loop
      vertex 19.3301 -18.8398 -25
      vertex 30 -120 -25
      vertex 19.3301 -41.1602 -25
    endloop
  endfacet
  facet normal 0 0 -1
    outer loop
      vertex 13.5355 -76.4645 -25
      vertex 30 -120 -25
      vertex 13.5355 -103.536 -25
    endloop
  endfacet
  facet normal 0 0 -1
    outer loop
      vertex 30 -120 -25
      vertex -13.5355 -103.536 -25
      vertex 13.5355 -103.536 -25
    endloop
  endfacet
  facet normal 0 0 -1
    outer loop
      vertex -30 -120 -25
      vertex -13.5355 -76.4645 -25
      vertex -13.5355 -103.536 -25
    endloop
  endfacet
  facet normal 0 0 -1
    outer loop
      vertex -30 -120 -25
      vertex -19.3301 -18.8398 -25
      vertex -19.3301 -41.1602 -25
    endloop
  endfacet
  facet normal 0 0 -1
    outer loop
      vertex -30 120 -25
      vertex -21.6905 38.9845 -25
      vertex -21.6905 21.0155 -25
    endloop
  endfacet
  facet normal 0 0 -1
    outer loop
      vertex -21.6905 38.9845 -25
      vertex -30 120 -25
      vertex -23.4899 83.7059 -25
    endloop
  endfacet
  facet normal 0 0 -1
    outer loop
      vertex -30 120 -25
      vertex -21.6905 21.0155 -25
      vertex -30 -120 -25
    endloop
  endfacet
  facet normal -0 0 -1
    outer loop
      vertex -19.3301 -18.8398 -25
      vertex -30 -120 -25
      vertex -21.6905 21.0155 -25
    endloop
  endfacet
  facet normal -0 0 -1
    outer loop
      vertex -13.5355 -76.4645 -25
      vertex -30 -120 -25
      vertex -19.3301 -41.1602 -25
    endloop
  endfacet
  facet normal 0 0 -1
    outer loop
      vertex -30 -120 -25
      vertex -13.5355 -103.536 -25
      vertex 30 -120 -25
    endloop
  endfacet
  facet normal 0 0 -1
    outer loop
      vertex 23.4899 96.2941 -25
      vertex 30 120 -25
      vertex 23.4899 83.7059 -25
    endloop
  endfacet
  facet normal 0 0 -1
    outer loop
      vertex 17.1958 107.196 -25
      vertex 30 120 -25
      vertex 23.4899 96.2941 -25
    endloop
  endfacet
  facet normal 0 0 -1
    outer loop
      vertex 6.29408 113.49 -25
      vertex 30 120 -25
      vertex 17.1958 107.196 -25
    endloop
  endfacet
  facet normal 0 0 -1
    outer loop
      vertex -6.29408 113.49 -25
      vertex 30 120 -25
      vertex 6.29408 113.49 -25
    endloop
  endfacet
  facet normal 0 0 -1
    outer loop
      vertex -6.29408 113.49 -25
      vertex -30 120 -25
      vertex 30 120 -25
    endloop
  endfacet
  facet normal 0 0 -1
    outer loop
      vertex -17.1958 107.196 -25
      vertex -30 120 -25
      vertex -6.29408 113.49 -25
    endloop
  endfacet
  facet normal 0 0 -1
    outer loop
      vertex -23.4899 96.2941 -25
      vertex -30 120 -25
      vertex -17.1958 107.196 -25
    endloop
  endfacet
  facet normal 0 0 -1
    outer loop
      vertex -23.4899 83.7059 -25
      vertex -30 120 -25
      vertex -23.4899 96.2941 -25
    endloop
  endfacet
  facet normal 0 0 -1
    outer loop
      vertex 30 120 -25
      vertex 21.6905 38.9845 -25
      vertex 23.4899 83.7059 -25
    endloop
  endfacet
  facet normal 0 0 -1
    outer loop
      vertex 21.6905 38.9845 -25
      vertex 17.1958 72.8042 -25
      vertex 23.4899 83.7059 -25
    endloop
  endfacet
  facet normal 0 0 -1
    outer loop
      vertex 8.98448 51.6905 -25
      vertex 17.1958 72.8042 -25
      vertex 21.6905 38.9845 -25
    endloop
  endfacet
  facet normal 0 0 -1
    outer loop
      vertex 8.98448 51.6905 -25
      vertex 6.29408 66.5101 -25
      vertex 17.1958 72.8042 -25
    endloop
  endfacet
  facet normal 0 0 -1
    outer loop
      vertex 8.98448 51.6905 -25
      vertex -6.29408 66.5101 -25
      vertex 6.29408 66.5101 -25
    endloop
  endfacet
  facet normal 0 0 -1
    outer loop
      vertex -8.98448 51.6905 -25
      vertex -6.29408 66.5101 -25
      vertex 8.98448 51.6905 -25
    endloop
  endfacet
  facet normal 0 0 -1
    outer loop
      vertex -8.98448 51.6905 -25
      vertex -17.1958 72.8042 -25
      vertex -6.29408 66.5101 -25
    endloop
  endfacet
  facet normal 0 0 -1
    outer loop
      vertex -21.6905 38.9845 -25
      vertex -17.1958 72.8042 -25
      vertex -8.98448 51.6905 -25
    endloop
  endfacet
  facet normal -0 0 -1
    outer loop
      vertex -17.1958 72.8042 -25
      vertex -21.6905 38.9845 -25
      vertex -23.4899 83.7059 -25
    endloop
  endfacet
  facet normal 0 0 -1
    outer loop
      vertex 30 -120 -25
      vertex 19.3301 -18.8398 -25
      vertex 21.6905 21.0155 -25
    endloop
  endfacet
  facet normal 0 0 -1
    outer loop
      vertex 19.3301 -18.8398 -25
      vertex 8.98448 8.30954 -25
      vertex 21.6905 21.0155 -25
    endloop
  endfacet
  facet normal 0 0 -1
    outer loop
      vertex 0 -7.6795 -25
      vertex 8.98448 8.30954 -25
      vertex 19.3301 -18.8398 -25
    endloop
  endfacet
  facet normal 0 0 -1
    outer loop
      vertex 0 -7.6795 -25
      vertex -8.98448 8.30954 -25
      vertex 8.98448 8.30954 -25
    endloop
  endfacet
  facet normal 0 0 -1
    outer loop
      vertex -19.3301 -18.8398 -25
      vertex -8.98448 8.30954 -25
      vertex 0 -7.6795 -25
    endloop
  endfacet
  facet normal -0 0 -1
    outer loop
      vertex -8.98448 8.30954 -25
      vertex -19.3301 -18.8398 -25
      vertex -21.6905 21.0155 -25
    endloop
  endfacet
  facet normal 0 0 -1
    outer loop
      vertex 30 -120 -25
      vertex 13.5355 -76.4645 -25
      vertex 19.3301 -41.1602 -25
    endloop
  endfacet
  facet normal 0 0 -1
    outer loop
      vertex 13.5355 -76.4645 -25
      vertex 0 -52.3205 -25
      vertex 19.3301 -41.1602 -25
    endloop
  endfacet
  facet normal 0 0 -1
    outer loop
      vertex -13.5355 -76.4645 -25
      vertex 0 -52.3205 -25
      vertex 13.5355 -76.4645 -25
    endloop
  endfacet
  facet normal -0 0 -1
    outer loop
      vertex 0 -52.3205 -25
      vertex -13.5355 -76.4645 -25
      vertex -19.3301 -41.1602 -25
    endloop
  endfacet
  facet normal -1 0 0
    outer loop
      vertex -30 -120 -25
      vertex -30 120 25
      vertex -30 120 -25
    endloop
  endfacet
  facet normal -1 -0 0
    outer loop
      vertex -30 120 25
      vertex -30 -120 -25
      vertex -30 -120 25
    endloop
  endfacet
  facet normal 0 1 -0
    outer loop
      vertex 30 120 -25
      vertex -30 120 25
      vertex 30 120 25
    endloop
  endfacet
  facet normal 0 1 0
    outer loop
      vertex -30 120 25
      vertex 30 120 -25
      vertex -30 120 -25
    endloop
  endfacet
  facet normal 0 -1 0
    outer loop
      vertex -30 -120 -25
      vertex 30 -120 25
      vertex -30 -120 25
    endloop
  endfacet
  facet normal 0 -1 -0
    outer loop
      vertex 30 -120 25
      vertex -30 -120 -25
      vertex 30 -120 -25
    endloop
  endfacet
endsolid OpenSCAD_Model
