solid OpenSCAD_Model
  facet normal 1 -0 0
    outer loop
      vertex -15.9099 -105.91 25
      vertex -15.9099 -74.0901 -25
      vertex -15.9099 -74.0901 25
    endloop
  endfacet
  facet normal 1 0 0
    outer loop
      vertex -15.9099 -74.0901 -25
      vertex -15.9099 -105.91 25
      vertex -15.9099 -105.91 -25
    endloop
  endfacet
  facet normal 0 -1 0
    outer loop
      vertex -15.9099 -74.0901 -25
      vertex 15.9099 -74.0901 25
      vertex -15.9099 -74.0901 25
    endloop
  endfacet
  facet normal 0 -1 -0
    outer loop
      vertex 15.9099 -74.0901 25
      vertex -15.9099 -74.0901 -25
      vertex 15.9099 -74.0901 -25
    endloop
  endfacet
  facet normal -1 0 0
    outer loop
      vertex 15.9099 -105.91 -25
      vertex 15.9099 -74.0901 25
      vertex 15.9099 -74.0901 -25
    endloop
  endfacet
  facet normal -1 -0 0
    outer loop
      vertex 15.9099 -74.0901 25
      vertex 15.9099 -105.91 -25
      vertex 15.9099 -105.91 25
    endloop
  endfacet
  facet normal 0 1 -0
    outer loop
      vertex 15.9099 -105.91 -25
      vertex -15.9099 -105.91 25
      vertex 15.9099 -105.91 25
    endloop
  endfacet
  facet normal 0 1 0
    outer loop
      vertex -15.9099 -105.91 25
      vertex 15.9099 -105.91 -25
      vertex -15.9099 -105.91 -25
    endloop
  endfacet
  facet normal 0.866026 -0.499999 0
    outer loop
      vertex -22.5 -30 25
      vertex -11.25 -10.5144 -25
      vertex -11.25 -10.5144 25
    endloop
  endfacet
  facet normal 0.866026 -0.499999 0
    outer loop
      vertex -11.25 -10.5144 -25
      vertex -22.5 -30 25
      vertex -22.5 -30 -25
    endloop
  endfacet
  facet normal -0.866026 0.499999 0
    outer loop
      vertex 11.25 -49.4856 -25
      vertex 22.5 -30 25
      vertex 22.5 -30 -25
    endloop
  endfacet
  facet normal -0.866026 0.499999 0
    outer loop
      vertex 22.5 -30 25
      vertex 11.25 -49.4856 -25
      vertex 11.25 -49.4856 25
    endloop
  endfacet
  facet normal 0.866026 0.499999 0
    outer loop
      vertex -11.25 -49.4856 25
      vertex -22.5 -30 -25
      vertex -22.5 -30 25
    endloop
  endfacet
  facet normal 0.866026 0.499999 0
    outer loop
      vertex -22.5 -30 -25
      vertex -11.25 -49.4856 25
      vertex -11.25 -49.4856 -25
    endloop
  endfacet
  facet normal 0 1 -0
    outer loop
      vertex 11.25 -49.4856 -25
      vertex -11.25 -49.4856 25
      vertex 11.25 -49.4856 25
    endloop
  endfacet
  facet normal 0 1 0
    outer loop
      vertex -11.25 -49.4856 25
      vertex 11.25 -49.4856 -25
      vertex -11.25 -49.4856 -25
    endloop
  endfacet
  facet normal 0 -1 0
    outer loop
      vertex -11.25 -10.5144 -25
      vertex 11.25 -10.5144 25
      vertex -11.25 -10.5144 25
    endloop
  endfacet
  facet normal 0 -1 -0
    outer loop
      vertex 11.25 -10.5144 25
      vertex -11.25 -10.5144 -25
      vertex 11.25 -10.5144 -25
    endloop
  endfacet
  facet normal -0.866026 -0.499999 0
    outer loop
      vertex 22.5 -30 -25
      vertex 11.25 -10.5144 25
      vertex 11.25 -10.5144 -25
    endloop
  endfacet
  facet normal -0.866026 -0.499999 0
    outer loop
      vertex 11.25 -10.5144 25
      vertex 22.5 -30 -25
      vertex 22.5 -30 25
    endloop
  endfacet
  facet normal -0.707106 -0.707108 0
    outer loop
      vertex 20.7873 38.6104 -25
      vertex 8.61037 50.7873 25
      vertex 8.61037 50.7873 -25
    endloop
  endfacet
  facet normal -0.707106 -0.707108 0
    outer loop
      vertex 8.61037 50.7873 25
      vertex 20.7873 38.6104 -25
      vertex 20.7873 38.6104 25
    endloop
  endfacet
  facet normal 0.707105 0.707108 0
    outer loop
      vertex -8.61037 9.21272 25
      vertex -20.7873 21.3896 -25
      vertex -20.7873 21.3896 25
    endloop
  endfacet
  facet normal 0.707105 0.707108 0
    outer loop
      vertex -20.7873 21.3896 -25
      vertex -8.61037 9.21272 25
      vertex -8.61037 9.21272 -25
    endloop
  endfacet
  facet normal -1 0 0
    outer loop
      vertex 20.7873 21.3896 -25
      vertex 20.7873 38.6104 25
      vertex 20.7873 38.6104 -25
    endloop
  endfacet
  facet normal -1 -0 0
    outer loop
      vertex 20.7873 38.6104 25
      vertex 20.7873 21.3896 -25
      vertex 20.7873 21.3896 25
    endloop
  endfacet
  facet normal 0 1 -0
    outer loop
      vertex 8.61037 9.21272 -25
      vertex -8.61037 9.21272 25
      vertex 8.61037 9.21272 25
    endloop
  endfacet
  facet normal 0 1 0
    outer loop
      vertex -8.61037 9.21272 25
      vertex 8.61037 9.21272 -25
      vertex -8.61037 9.21272 -25
    endloop
  endfacet
  facet normal 0.707106 -0.707108 0
    outer loop
      vertex -20.7873 38.6104 25
      vertex -8.61037 50.7873 -25
      vertex -8.61037 50.7873 25
    endloop
  endfacet
  facet normal 0.707106 -0.707108 0
    outer loop
      vertex -8.61037 50.7873 -25
      vertex -20.7873 38.6104 25
      vertex -20.7873 38.6104 -25
    endloop
  endfacet
  facet normal 0 -1 0
    outer loop
      vertex -8.61037 50.7873 -25
      vertex 8.61037 50.7873 25
      vertex -8.61037 50.7873 25
    endloop
  endfacet
  facet normal 0 -1 -0
    outer loop
      vertex 8.61037 50.7873 25
      vertex -8.61037 50.7873 -25
      vertex 8.61037 50.7873 -25
    endloop
  endfacet
  facet normal 1 -0 0
    outer loop
      vertex -20.7873 21.3896 25
      vertex -20.7873 38.6104 -25
      vertex -20.7873 38.6104 25
    endloop
  endfacet
  facet normal 1 0 0
    outer loop
      vertex -20.7873 38.6104 -25
      vertex -20.7873 21.3896 25
      vertex -20.7873 21.3896 -25
    endloop
  endfacet
  facet normal -0.707105 0.707108 0
    outer loop
      vertex 8.61037 9.21272 -25
      vertex 20.7873 21.3896 25
      vertex 20.7873 21.3896 -25
    endloop
  endfacet
  facet normal -0.707105 0.707108 0
    outer loop
      vertex 20.7873 21.3896 25
      vertex 8.61037 9.21272 -25
      vertex 8.61037 9.21272 25
    endloop
  endfacet
  facet normal 0.866027 0.499997 0
    outer loop
      vertex -15.9099 74.0901 25
      vertex -21.7333 84.1766 -25
      vertex -21.7333 84.1766 25
    endloop
  endfacet
  facet normal 0.866027 0.499997 0
    outer loop
      vertex -21.7333 84.1766 -25
      vertex -15.9099 74.0901 25
      vertex -15.9099 74.0901 -25
    endloop
  endfacet
  facet normal -0.499998 0.866026 0
    outer loop
      vertex 15.9099 74.0901 -25
      vertex 5.82343 68.2667 25
      vertex 15.9099 74.0901 25
    endloop
  endfacet
  facet normal -0.499998 0.866026 0
    outer loop
      vertex 5.82343 68.2667 25
      vertex 15.9099 74.0901 -25
      vertex 5.82343 68.2667 -25
    endloop
  endfacet
  facet normal -1 0 0
    outer loop
      vertex 21.7333 84.1766 -25
      vertex 21.7333 95.8234 25
      vertex 21.7333 95.8234 -25
    endloop
  endfacet
  facet normal -1 -0 0
    outer loop
      vertex 21.7333 95.8234 25
      vertex 21.7333 84.1766 -25
      vertex 21.7333 84.1766 25
    endloop
  endfacet
  facet normal -0.866029 -0.499993 0
    outer loop
      vertex 21.7333 95.8234 -25
      vertex 15.9099 105.91 25
      vertex 15.9099 105.91 -25
    endloop
  endfacet
  facet normal -0.866029 -0.499993 0
    outer loop
      vertex 15.9099 105.91 25
      vertex 21.7333 95.8234 -25
      vertex 21.7333 95.8234 25
    endloop
  endfacet
  facet normal 0.866029 -0.499993 0
    outer loop
      vertex -21.7333 95.8234 25
      vertex -15.9099 105.91 -25
      vertex -15.9099 105.91 25
    endloop
  endfacet
  facet normal 0.866029 -0.499993 0
    outer loop
      vertex -15.9099 105.91 -25
      vertex -21.7333 95.8234 25
      vertex -21.7333 95.8234 -25
    endloop
  endfacet
  facet normal 0 1 -0
    outer loop
      vertex 5.82343 68.2667 -25
      vertex -5.82343 68.2667 25
      vertex 5.82343 68.2667 25
    endloop
  endfacet
  facet normal 0 1 0
    outer loop
      vertex -5.82343 68.2667 25
      vertex 5.82343 68.2667 -25
      vertex -5.82343 68.2667 -25
    endloop
  endfacet
  facet normal 0.499998 0.866026 -0
    outer loop
      vertex -5.82343 68.2667 -25
      vertex -15.9099 74.0901 25
      vertex -5.82343 68.2667 25
    endloop
  endfacet
  facet normal 0.499998 0.866026 0
    outer loop
      vertex -15.9099 74.0901 25
      vertex -5.82343 68.2667 -25
      vertex -15.9099 74.0901 -25
    endloop
  endfacet
  facet normal -0.499973 -0.866041 0
    outer loop
      vertex 5.82343 111.733 -25
      vertex 15.9099 105.91 25
      vertex 5.82343 111.733 25
    endloop
  endfacet
  facet normal -0.499973 -0.866041 -0
    outer loop
      vertex 15.9099 105.91 25
      vertex 5.82343 111.733 -25
      vertex 15.9099 105.91 -25
    endloop
  endfacet
  facet normal 0.499973 -0.866041 0
    outer loop
      vertex -15.9099 105.91 -25
      vertex -5.82343 111.733 25
      vertex -15.9099 105.91 25
    endloop
  endfacet
  facet normal 0.499973 -0.866041 0
    outer loop
      vertex -5.82343 111.733 25
      vertex -15.9099 105.91 -25
      vertex -5.82343 111.733 -25
    endloop
  endfacet
  facet normal 0 -1 0
    outer loop
      vertex -5.82343 111.733 -25
      vertex 5.82343 111.733 25
      vertex -5.82343 111.733 25
    endloop
  endfacet
  facet normal 0 -1 -0
    outer loop
      vertex 5.82343 111.733 25
      vertex -5.82343 111.733 -25
      vertex 5.82343 111.733 -25
    endloop
  endfacet
  facet normal -0.866027 0.499997 0
    outer loop
      vertex 15.9099 74.0901 -25
      vertex 21.7333 84.1766 25
      vertex 21.7333 84.1766 -25
    endloop
  endfacet
  facet normal -0.866027 0.499997 0
    outer loop
      vertex 21.7333 84.1766 25
      vertex 15.9099 74.0901 -25
      vertex 15.9099 74.0901 25
    endloop
  endfacet
  facet normal 1 -0 0
    outer loop
      vertex -21.7333 84.1766 25
      vertex -21.7333 95.8234 -25
      vertex -21.7333 95.8234 25
    endloop
  endfacet
  facet normal 1 0 0
    outer loop
      vertex -21.7333 95.8234 -25
      vertex -21.7333 84.1766 25
      vertex -21.7333 84.1766 -25
    endloop
  endfacet
  facet normal 1 -0 0
    outer loop
      vertex 30 -120 25
      vertex 30 120 -25
      vertex 30 120 25
    endloop
  endfacet
  facet normal 1 0 0
    outer loop
      vertex 30 120 -25
      vertex 30 -120 25
      vertex 30 -120 -25
    endloop
  endfacet
  facet normal -0 0 1
    outer loop
      vertex 11.25 -49.4856 25
      vertex 15.9099 -74.0901 25
      vertex 22.5 -30 25
    endloop
  endfacet
  facet normal -0 0 1
    outer loop
      vertex -11.25 -49.4856 25
      vertex 15.9099 -74.0901 25
      vertex 11.25 -49.4856 25
    endloop
  endfacet
  facet normal 0 0 1
    outer loop
      vertex -11.25 -49.4856 25
      vertex -15.9099 -74.0901 25
      vertex 15.9099 -74.0901 25
    endloop
  endfacet
  facet normal 0 0 1
    outer loop
      vertex -30 -120 25
      vertex -15.9099 -74.0901 25
      vertex -22.5 -30 25
    endloop
  endfacet
  facet normal 0 0 1
    outer loop
      vertex -22.5 -30 25
      vertex -15.9099 -74.0901 25
      vertex -11.25 -49.4856 25
    endloop
  endfacet
  facet normal -0 0 1
    outer loop
      vertex 15.9099 74.0901 25
      vertex 20.7873 38.6104 25
      vertex 21.7333 84.1766 25
    endloop
  endfacet
  facet normal 0 0 1
    outer loop
      vertex 15.9099 74.0901 25
      vertex 8.61037 50.7873 25
      vertex 20.7873 38.6104 25
    endloop
  endfacet
  facet normal -0 0 1
    outer loop
      vertex 5.82343 68.2667 25
      vertex 8.61037 50.7873 25
      vertex 15.9099 74.0901 25
    endloop
  endfacet
  facet normal -0 0 1
    outer loop
      vertex -5.82343 68.2667 25
      vertex 8.61037 50.7873 25
      vertex 5.82343 68.2667 25
    endloop
  endfacet
  facet normal 0 0 1
    outer loop
      vertex -5.82343 68.2667 25
      vertex -8.61037 50.7873 25
      vertex 8.61037 50.7873 25
    endloop
  endfacet
  facet normal 0 0 1
    outer loop
      vertex -15.9099 74.0901 25
      vertex -8.61037 50.7873 25
      vertex -5.82343 68.2667 25
    endloop
  endfacet
  facet normal 0 0 1
    outer loop
      vertex -15.9099 74.0901 25
      vertex -20.7873 38.6104 25
      vertex -8.61037 50.7873 25
    endloop
  endfacet
  facet normal 0 0 1
    outer loop
      vertex -20.7873 38.6104 25
      vertex -21.7333 84.1766 25
      vertex -20.7873 21.3896 25
    endloop
  endfacet
  facet normal 0 0 1
    outer loop
      vertex -21.7333 84.1766 25
      vertex -20.7873 38.6104 25
      vertex -15.9099 74.0901 25
    endloop
  endfacet
  facet normal 0 0 1
    outer loop
      vertex 30 120 25
      vertex 22.5 -30 25
      vertex 30 -120 25
    endloop
  endfacet
  facet normal 0 0 1
    outer loop
      vertex 21.7333 84.1766 25
      vertex 30 120 25
      vertex 21.7333 95.8234 25
    endloop
  endfacet
  facet normal 0 0 1
    outer loop
      vertex 30 120 25
      vertex 15.9099 105.91 25
      vertex 21.7333 95.8234 25
    endloop
  endfacet
  facet normal 0 0 1
    outer loop
      vertex 30 120 25
      vertex 5.82343 111.733 25
      vertex 15.9099 105.91 25
    endloop
  endfacet
  facet normal 0 0 1
    outer loop
      vertex 30 120 25
      vertex -5.82343 111.733 25
      vertex 5.82343 111.733 25
    endloop
  endfacet
  facet normal 0 0 1
    outer loop
      vertex -30 120 25
      vertex -21.7333 84.1766 25
      vertex -21.7333 95.8234 25
    endloop
  endfacet
  facet normal 0 0 1
    outer loop
      vertex -21.7333 84.1766 25
      vertex -30 120 25
      vertex -22.5 -30 25
    endloop
  endfacet
  facet normal 0 0 1
    outer loop
      vertex -15.9099 105.91 25
      vertex -30 120 25
      vertex -21.7333 95.8234 25
    endloop
  endfacet
  facet normal 0 0 1
    outer loop
      vertex -5.82343 111.733 25
      vertex -30 120 25
      vertex -15.9099 105.91 25
    endloop
  endfacet
  facet normal -0 0 1
    outer loop
      vertex -30 120 25
      vertex -5.82343 111.733 25
      vertex 30 120 25
    endloop
  endfacet
  facet normal -0 0 1
    outer loop
      vertex 15.9099 -74.0901 25
      vertex 30 -120 25
      vertex 22.5 -30 25
    endloop
  endfacet
  facet normal -0 0 1
    outer loop
      vertex 15.9099 -105.91 25
      vertex 30 -120 25
      vertex 15.9099 -74.0901 25
    endloop
  endfacet
  facet normal -0 0 1
    outer loop
      vertex -15.9099 -105.91 25
      vertex 30 -120 25
      vertex 15.9099 -105.91 25
    endloop
  endfacet
  facet normal 0 0 1
    outer loop
      vertex -15.9099 -105.91 25
      vertex -30 -120 25
      vertex 30 -120 25
    endloop
  endfacet
  facet normal 0 0 1
    outer loop
      vertex -15.9099 -74.0901 25
      vertex -30 -120 25
      vertex -15.9099 -105.91 25
    endloop
  endfacet
  facet normal 0 0 1
    outer loop
      vertex -30 -120 25
      vertex -22.5 -30 25
      vertex -30 120 25
    endloop
  endfacet
  facet normal 0 0 1
    outer loop
      vertex 20.7873 38.6104 25
      vertex 30 120 25
      vertex 21.7333 84.1766 25
    endloop
  endfacet
  facet normal 0 0 1
    outer loop
      vertex 20.7873 21.3896 25
      vertex 30 120 25
      vertex 20.7873 38.6104 25
    endloop
  endfacet
  facet normal 0 0 1
    outer loop
      vertex 30 120 25
      vertex 20.7873 21.3896 25
      vertex 22.5 -30 25
    endloop
  endfacet
  facet normal 0 0 1
    outer loop
      vertex 20.7873 21.3896 25
      vertex 11.25 -10.5144 25
      vertex 22.5 -30 25
    endloop
  endfacet
  facet normal -0 0 1
    outer loop
      vertex 8.61037 9.21272 25
      vertex 11.25 -10.5144 25
      vertex 20.7873 21.3896 25
    endloop
  endfacet
  facet normal -0 0 1
    outer loop
      vertex -8.61037 9.21272 25
      vertex 11.25 -10.5144 25
      vertex 8.61037 9.21272 25
    endloop
  endfacet
  facet normal 0 0 1
    outer loop
      vertex -8.61037 9.21272 25
      vertex -11.25 -10.5144 25
      vertex 11.25 -10.5144 25
    endloop
  endfacet
  facet normal 0 0 1
    outer loop
      vertex -20.7873 21.3896 25
      vertex -11.25 -10.5144 25
      vertex -8.61037 9.21272 25
    endloop
  endfacet
  facet normal 0 0 1
    outer loop
      vertex -20.7873 21.3896 25
      vertex -22.5 -30 25
      vertex -11.25 -10.5144 25
    endloop
  endfacet
  facet normal 0 0 1
    outer loop
      vertex -22.5 -30 25
      vertex -20.7873 21.3896 25
      vertex -21.7333 84.1766 25
    endloop
  endfacet
  facet normal 0 0 -1
    outer loop
      vertex 20.7873 38.6104 -25
      vertex 30 120 -25
      vertex 20.7873 21.3896 -25
    endloop
  endfacet
  facet normal 0 0 -1
    outer loop
      vertex 11.25 -10.5144 -25
      vertex 20.7873 21.3896 -25
      vertex 22.5 -30 -25
    endloop
  endfacet
  facet normal 0 0 -1
    outer loop
      vertex 11.25 -10.5144 -25
      vertex 8.61037 9.21272 -25
      vertex 20.7873 21.3896 -25
    endloop
  endfacet
  facet normal 0 0 -1
    outer loop
      vertex 11.25 -10.5144 -25
      vertex -8.61037 9.21272 -25
      vertex 8.61037 9.21272 -25
    endloop
  endfacet
  facet normal 0 0 -1
    outer loop
      vertex -11.25 -10.5144 -25
      vertex -8.61037 9.21272 -25
      vertex 11.25 -10.5144 -25
    endloop
  endfacet
  facet normal 0 0 -1
    outer loop
      vertex -11.25 -10.5144 -25
      vertex -20.7873 21.3896 -25
      vertex -8.61037 9.21272 -25
    endloop
  endfacet
  facet normal 0 0 -1
    outer loop
      vertex -30 120 -25
      vertex -20.7873 38.6104 -25
      vertex -20.7873 21.3896 -25
    endloop
  endfacet
  facet normal 0 0 -1
    outer loop
      vertex -20.7873 38.6104 -25
      vertex -30 120 -25
      vertex -21.7333 84.1766 -25
    endloop
  endfacet
  facet normal 0 0 -1
    outer loop
      vertex -30 120 -25
      vertex -20.7873 21.3896 -25
      vertex -22.5 -30 -25
    endloop
  endfacet
  facet normal 0 0 -1
    outer loop
      vertex -22.5 -30 -25
      vertex -20.7873 21.3896 -25
      vertex -11.25 -10.5144 -25
    endloop
  endfacet
  facet normal 0 0 -1
    outer loop
      vertex 30 -120 -25
      vertex 22.5 -30 -25
      vertex 30 120 -25
    endloop
  endfacet
  facet normal 0 0 -1
    outer loop
      vertex 15.9099 -74.0901 -25
      vertex 30 -120 -25
      vertex 15.9099 -105.91 -25
    endloop
  endfacet
  facet normal 0 0 -1
    outer loop
      vertex 30 -120 -25
      vertex -15.9099 -105.91 -25
      vertex 15.9099 -105.91 -25
    endloop
  endfacet
  facet normal 0 0 -1
    outer loop
      vertex -30 -120 -25
      vertex -15.9099 -74.0901 -25
      vertex -15.9099 -105.91 -25
    endloop
  endfacet
  facet normal -0 0 -1
    outer loop
      vertex -15.9099 -74.0901 -25
      vertex -30 -120 -25
      vertex -22.5 -30 -25
    endloop
  endfacet
  facet normal 0 0 -1
    outer loop
      vertex -30 -120 -25
      vertex -15.9099 -105.91 -25
      vertex 30 -120 -25
    endloop
  endfacet
  facet normal 0 0 -1
    outer loop
      vertex 20.7873 21.3896 -25
      vertex 30 120 -25
      vertex 22.5 -30 -25
    endloop
  endfacet
  facet normal 0 0 -1
    outer loop
      vertex 21.7333 95.8234 -25
      vertex 30 120 -25
      vertex 21.7333 84.1766 -25
    endloop
  endfacet
  facet normal 0 0 -1
    outer loop
      vertex 15.9099 105.91 -25
      vertex 30 120 -25
      vertex 21.7333 95.8234 -25
    endloop
  endfacet
  facet normal 0 0 -1
    outer loop
      vertex 5.82343 111.733 -25
      vertex 30 120 -25
      vertex 15.9099 105.91 -25
    endloop
  endfacet
  facet normal 0 0 -1
    outer loop
      vertex -5.82343 111.733 -25
      vertex 30 120 -25
      vertex 5.82343 111.733 -25
    endloop
  endfacet
  facet normal 0 0 -1
    outer loop
      vertex -30 120 -25
      vertex -22.5 -30 -25
      vertex -30 -120 -25
    endloop
  endfacet
  facet normal 0 0 -1
    outer loop
      vertex -5.82343 111.733 -25
      vertex -30 120 -25
      vertex 30 120 -25
    endloop
  endfacet
  facet normal 0 0 -1
    outer loop
      vertex -15.9099 105.91 -25
      vertex -30 120 -25
      vertex -5.82343 111.733 -25
    endloop
  endfacet
  facet normal 0 0 -1
    outer loop
      vertex -21.7333 95.8234 -25
      vertex -30 120 -25
      vertex -15.9099 105.91 -25
    endloop
  endfacet
  facet normal 0 0 -1
    outer loop
      vertex -21.7333 84.1766 -25
      vertex -30 120 -25
      vertex -21.7333 95.8234 -25
    endloop
  endfacet
  facet normal 0 0 -1
    outer loop
      vertex 30 120 -25
      vertex 20.7873 38.6104 -25
      vertex 21.7333 84.1766 -25
    endloop
  endfacet
  facet normal 0 0 -1
    outer loop
      vertex 20.7873 38.6104 -25
      vertex 15.9099 74.0901 -25
      vertex 21.7333 84.1766 -25
    endloop
  endfacet
  facet normal 0 0 -1
    outer loop
      vertex 8.61037 50.7873 -25
      vertex 15.9099 74.0901 -25
      vertex 20.7873 38.6104 -25
    endloop
  endfacet
  facet normal 0 0 -1
    outer loop
      vertex 8.61037 50.7873 -25
      vertex 5.82343 68.2667 -25
      vertex 15.9099 74.0901 -25
    endloop
  endfacet
  facet normal 0 0 -1
    outer loop
      vertex 8.61037 50.7873 -25
      vertex -5.82343 68.2667 -25
      vertex 5.82343 68.2667 -25
    endloop
  endfacet
  facet normal 0 0 -1
    outer loop
      vertex -8.61037 50.7873 -25
      vertex -5.82343 68.2667 -25
      vertex 8.61037 50.7873 -25
    endloop
  endfacet
  facet normal 0 0 -1
    outer loop
      vertex -8.61037 50.7873 -25
      vertex -15.9099 74.0901 -25
      vertex -5.82343 68.2667 -25
    endloop
  endfacet
  facet normal 0 0 -1
    outer loop
      vertex -20.7873 38.6104 -25
      vertex -15.9099 74.0901 -25
      vertex -8.61037 50.7873 -25
    endloop
  endfacet
  facet normal -0 0 -1
    outer loop
      vertex -15.9099 74.0901 -25
      vertex -20.7873 38.6104 -25
      vertex -21.7333 84.1766 -25
    endloop
  endfacet
  facet normal 0 0 -1
    outer loop
      vertex 30 -120 -25
      vertex 15.9099 -74.0901 -25
      vertex 22.5 -30 -25
    endloop
  endfacet
  facet normal 0 0 -1
    outer loop
      vertex 15.9099 -74.0901 -25
      vertex 11.25 -49.4856 -25
      vertex 22.5 -30 -25
    endloop
  endfacet
  facet normal 0 0 -1
    outer loop
      vertex 15.9099 -74.0901 -25
      vertex -11.25 -49.4856 -25
      vertex 11.25 -49.4856 -25
    endloop
  endfacet
  facet normal 0 0 -1
    outer loop
      vertex -15.9099 -74.0901 -25
      vertex -11.25 -49.4856 -25
      vertex 15.9099 -74.0901 -25
    endloop
  endfacet
  facet normal -0 0 -1
    outer loop
      vertex -11.25 -49.4856 -25
      vertex -15.9099 -74.0901 -25
      vertex -22.5 -30 -25
    endloop
  endfacet
  facet normal -1 0 0
    outer loop
      vertex -30 -120 -25
      vertex -30 120 25
      vertex -30 120 -25
    endloop
  endfacet
  facet normal -1 -0 0
    outer loop
      vertex -30 120 25
      vertex -30 -120 -25
      vertex -30 -120 25
    endloop
  endfacet
  facet normal 0 1 -0
    outer loop
      vertex 30 120 -25
      vertex -30 120 25
      vertex 30 120 25
    endloop
  endfacet
  facet normal 0 1 0
    outer loop
      vertex -30 120 25
      vertex 30 120 -25
      vertex -30 120 -25
    endloop
  endfacet
  facet normal 0 -1 0
    outer loop
      vertex -30 -120 -25
      vertex 30 -120 25
      vertex -30 -120 25
    endloop
  endfacet
  facet normal 0 -1 -0
    outer loop
      vertex 30 -120 25
      vertex -30 -120 -25
      vertex 30 -120 -25
    endloop
  endfacet
endsolid OpenSCAD_Model
